<?xml version="1.0" standalone="no"?>
<!DOCTYPE svg PUBLIC "-//W3C//DTD SVG 1.1//EN" "http://www.w3.org/Graphics/SVG/1.1/DTD/svg11.dtd" >
<svg xmlns="http://www.w3.org/2000/svg">
<metadata></metadata>
<defs>
<font id="evil_green_plantregular" horiz-adv-x="1705" >
<font-face units-per-em="2048" ascent="1536" descent="-512" />
<missing-glyph horiz-adv-x="860" />
<glyph horiz-adv-x="2048" />
<glyph horiz-adv-x="2048" />
<glyph unicode="&#xd;" horiz-adv-x="860" />
<glyph unicode=" "  horiz-adv-x="860" />
<glyph unicode="&#x09;" horiz-adv-x="860" />
<glyph unicode="&#xa0;" horiz-adv-x="860" />
<glyph unicode="!" horiz-adv-x="667" d="M52 1241q-3 76 19.5 140.5t79 111.5t156.5 72q74 16 119 -37t65.5 -149.5t20.5 -221.5t-14.5 -252t-43 -240.5t-63.5 -187.5q-31 -61 -67.5 -69.5t-68.5 13t-49 61.5t-7 75q10 37 -1.5 94.5t-33 128t-48 149.5t-44 157.5t-20.5 154.5zM188.5 179.5q-2.5 23.5 4 42 t27 28.5t61.5 8t79.5 -30.5t61 -64.5t20.5 -69t-43 -41q-82 -16 -139 6.5t-65 71.5q-4 25 -6.5 48.5z" />
<glyph unicode="&#x22;" horiz-adv-x="714" d="M61 1213q-2 42 0 44t21.5 11.5t48.5 15.5t67 8t76 -8q27 -6 38.5 -46t10.5 -96.5t-12.5 -121t-29 -122.5t-41 -100t-47.5 -53q-25 -10 -45.5 23t-35 89t-25.5 125t-17.5 129t-8.5 102zM425 1061.5q-3 60.5 0 109t13 62.5q14 20 35 27.5t43.5 4.5t49 -11.5t57.5 -16.5 t32.5 -60.5t-13.5 -122t-45 -143t-62 -123.5q-23 -33 -41.5 -17.5t-33 61t-23.5 107.5t-12 122.5z" />
<glyph unicode="#" horiz-adv-x="1218" d="M52 402q-3 26 4 33t31 3t79 -4t76.5 -2t30 10.5t12.5 47t22 106.5q12 47 36 84t47.5 64.5t42 46t19.5 31t-20.5 20.5t-77.5 12q-55 4 -92 -8t-60.5 -30.5t-35.5 -37t-17.5 -26t-6.5 4t-3 50.5q-2 59 -25.5 106.5t-37 81t1 51t88.5 15.5t116 -14.5t64.5 -10.5t31.5 28 t17 101q8 76 2 116t-6 58.5t15.5 21.5t66.5 3q33 0 56.5 12.5t39 24.5t22.5 17t8 -9t-3 -55t-12 -121t-15.5 -124t-11.5 -64.5t-4 -21.5t8 4t23.5 12.5t44.5 2.5q57 -6 82.5 -7t36 17.5t12.5 61.5t12 123q6 41 10 62.5t15.5 28.5t33 3t62.5 -12q39 -8 62.5 -6t28.5 -6.5 t-7 -38t-43 -103.5t-21.5 -104.5t38 -36.5t68.5 0t73 6t52 6t27.5 1t7.5 -29.5t-10 -85.5q-8 -61 -7 -83t-9 -24t-43 4t-111 0q-45 -4 -66.5 6.5t-30.5 21.5t-8 15t3 -10t1 -56t-13 -124t-33 -129t-38 -72t-25.5 -30t4 -4t53.5 5t119 0q51 -4 93 13.5t68.5 25.5t37 -6 t1.5 -80q-6 -45 0 -71.5t12.5 -43t6.5 -21.5t-19.5 -6t-64.5 2t-127 3q-84 0 -127 9t-60.5 16.5t-17.5 10.5t3 -8.5t2 -40t-19 -83.5q-25 -72 -27 -113t-8 -60.5t-27.5 -23.5t-83.5 0q-61 4 -92 -6t-34 -1t17.5 53t61.5 155q20 55 36.5 78.5t20 30t-14 2t-64.5 -4.5 t-60.5 14.5t-16.5 19.5t-6 -13.5t-32 -85.5q-35 -82 -48.5 -133t-16.5 -82t0 -43t0 -13.5t-16 4t-46 11.5q-51 8 -77.5 22.5t-36 32t-4 35t21.5 29.5q14 12 43.5 42.5t49 62.5t15.5 59.5t-53 33.5t-88 -8t-64.5 -22.5t-39 4t-11.5 73.5t-1 87zM428 434q4 4 37 4 q66 2 108.5 -5t71.5 -1t48.5 39t37.5 113q23 102 37 160.5t19.5 87t0 32.5t-21.5 -2t-42 -15t-62 -9q-37 0 -54.5 9t-22.5 16t-4 6t0 -18t-8.5 -58t-29.5 -113q-33 -109 -61.5 -161t-43 -70.5t-10.5 -14.5z" />
<glyph unicode="$" horiz-adv-x="1617" d="M136 873.5q-7 37.5 10.5 91t41.5 145.5q18 66 76 106.5t121.5 63.5t114.5 31t57 12v233l150 19v-268q4 -2 36 0q29 0 85.5 3t166.5 9q72 4 105 0t39 -16.5t-7.5 -32t-31 -49t-34.5 -67.5t-17 -85t-2.5 -66.5t-6.5 -19.5t-14 14.5t-28.5 35t-48 42t-72.5 35.5 q-66 20 -121.5 28.5t-105.5 -8t-97 -60.5t-92 -124q-31 -53 -23 -85t44 -52.5t93.5 -33.5t123 -31.5t134 -47t128.5 -78.5q88 -74 128.5 -130t49 -108t-10 -106.5t-45.5 -123.5q-29 -68 -85 -101t-113 -45q-68 -14 -144 -12l13 -168h-166v188q-18 6 -56 6q-31 0 -84 -4 t-137 -18q-55 -10 -76.5 -9t-22.5 12t10 30.5t18.5 48t3.5 65.5t-33 80q-45 66 -37 85.5t48 9t100.5 -44t119.5 -72.5q63 -43 126 -51.5t114 10t90 58.5t55.5 92t7 111.5t-50.5 117.5q-16 23 -58 35t-102.5 27t-139 41t-169.5 77q-90 51 -131 84t-48 70.5z" />
<glyph unicode="%" horiz-adv-x="1292" d="M184 899q-2 39 0 47q2 12 6.5 45t16.5 76t35.5 91t64.5 95q41 45 109.5 70t133 16.5t108.5 -53.5t38 -137q-6 -70 -9 -113t-11 -72.5t-21.5 -50t-38 -46t-62.5 -60.5t-93 -92q-63 -66 -109.5 -76t-77 13.5t-50 68.5t-29 92t-11.5 86zM250 104q6 25 52 105t114.5 185.5 t149.5 224t154 223t128 181.5t74 99q63 76 99 100.5t49 13.5t4 -49t-36 -87q-10 -16 -38.5 -71.5t-70.5 -134.5t-94.5 -171t-109.5 -182t-114.5 -170t-110.5 -133q-158 -158 -212 -185t-38 51zM303 1004q-29 -102 17.5 -125t136.5 6q45 14 67.5 45t29.5 70.5t0 82.5t-24 82 q-16 39 -47.5 38t-66.5 -28.5t-67 -73.5t-46 -97zM711 369q2 31 30.5 85t72.5 104t96.5 86t105.5 30q51 -6 90 -18.5t63.5 -40t32.5 -77t0 -126.5q-8 -78 -34.5 -140.5t-66.5 -101.5t-92.5 -52.5t-113.5 9.5q-61 20 -99 50t-57.5 61.5t-25.5 65.5t-2 65zM798 337 q3 -30 20.5 -58.5t46 -44t69.5 3.5q41 18 79 39.5t63.5 45t37.5 47t0 46.5t-30.5 39t-40 27.5t-42 17.5t-36.5 8t-39 -14.5t-45.5 -39t-42 -45t-31.5 -32.5t-9 -40z" />
<glyph unicode="&#x26;" d="M107.5 584q3.5 55 27 96t57 70.5t56 55t23.5 50.5t-40 55q-61 45 -90.5 88t-8 91.5t103 107.5t241.5 139q106 53 195.5 67.5t162 1.5t130 -46t98.5 -71t67.5 -75.5t40.5 -60.5q29 -49 8.5 -98t-69.5 -92t-118.5 -78t-139.5 -57.5t-130 -28.5t-92 8t-26 52t72 106 q12 12 37.5 15t53.5 4t52.5 4t34.5 16q66 78 76 128t-16.5 77.5t-80 33.5t-112.5 -5t-115.5 -39t-90.5 -66.5t-34 -89t54 -105.5q33 -35 34.5 -66.5t-15.5 -62.5t-49 -59.5t-64.5 -56t-62.5 -55.5t-44 -54q-23 -41 5 -95.5t78 -104.5t110.5 -89t107.5 -49q45 -10 80 -1 t59.5 29.5t40.5 50t27 60.5q6 20 -11.5 26.5t-49 6.5t-71.5 -1t-77 6t-67.5 27.5t-43.5 61.5q-27 88 -31 133t11.5 61.5t51.5 7.5t90 -30.5t127 -50.5t163 -53q63 -16 95 -12.5t43 21t9 41t-5 45t-1 36t20.5 10.5t60.5 -29.5t120 -83.5q37 -29 52 -39t14 -12t-16 0t-39.5 0 t-56.5 -14.5t-65 -42.5q-33 -31 -69.5 -69t-53 -78t2 -77.5t96.5 -68.5q106 -41 161.5 -73t72 -54.5t0 -36.5t-51.5 -21.5t-83 -7.5t-96 7.5t-89 20.5t-62 32q-39 35 -56 83t-25.5 91t-11.5 71.5t-16.5 24.5t-42 -50t-83.5 -153q-39 -72 -88 -98.5t-105.5 -18t-115 47.5 t-114.5 97t-106.5 131t-87.5 151t-33.5 133z" />
<glyph unicode="'" horiz-adv-x="368" d="M47 1223q0 14 13.5 17t40 2t66.5 -5t95 -4t69.5 -18.5t6.5 -63.5t-31.5 -122t-44.5 -191q-14 -78 -35.5 -81t-45 35.5t-48 107.5t-43 137.5t-31 122t-12.5 63.5z" />
<glyph unicode="(" horiz-adv-x="784" d="M74 473q2 82 13 191.5t34.5 226.5t60.5 233.5t90.5 213t125 164t163.5 85.5q72 14 102.5 -3t25.5 -55t-42 -92.5t-100 -113.5t-106.5 -130t-72 -159t-47 -194.5t-32.5 -235.5t21.5 -253t97 -225t135 -173t137.5 -98q63 -27 84.5 -45.5t11.5 -38t-45 -46t-86 -67.5 q-35 -29 -90 3t-119.5 101.5t-130 165t-118 195.5t-84 193.5t-29.5 156.5z" />
<glyph unicode=")" horiz-adv-x="821" d="M14.5 1514.5q14.5 19.5 73.5 19.5q156 -2 272.5 -71.5t197.5 -184.5t128 -261.5t62.5 -304t1 -314t-55.5 -287.5q-39 -127 -116.5 -233.5t-160.5 -171t-153.5 -79t-95.5 42.5q-16 39 -25.5 57.5t-9.5 30t10.5 22.5t31 35.5t54 67.5t78.5 117q70 113 125 245t79 266 t4.5 262.5t-99.5 230.5q-55 70 -116.5 136t-118 125.5t-100.5 108.5t-62.5 85t-4 55.5z" />
<glyph unicode="*" horiz-adv-x="1118" d="M192.5 660.5q8.5 33.5 79.5 93.5q57 47 96.5 76.5t57.5 48t17 30t-21 21.5t-66.5 47t-85.5 80t-51 85t35 60q31 12 65.5 -4t68.5 -44t63.5 -59.5t53 -47t37 -8t15.5 56.5q2 74 7 133t15.5 96t28 46t41.5 -17q16 -18 20.5 -55t2.5 -77t-6 -78t-3 -58.5t11 -18.5t37 43 q39 61 82 110.5t79.5 75t62.5 23.5t30 -43q2 -29 -16.5 -60.5t-47.5 -64.5t-61.5 -65.5t-55 -62.5t-32 -55.5t9.5 -41.5q27 -27 72 -43.5t84.5 -34t61 -42t3.5 -65.5t-39.5 -69.5t-47.5 -38.5t-55.5 2t-64.5 53t-46 53.5t-11 3t4 -35t0 -60.5q-4 -23 -15.5 -54.5t-28.5 -59 t-37.5 -47t-40 -18.5t-36 28.5t-26.5 93.5q-14 98 -4 142t14 49t-11.5 -20.5t-80.5 -66.5q-74 -47 -138.5 -65.5t-99.5 -11t-26.5 41z" />
<glyph unicode="+" horiz-adv-x="1415" d="M150.5 720.5q7.5 24.5 37 42t93.5 17.5q104 0 151 -4t66.5 -9t25.5 -9t29 -4q14 0 12 24.5t-10 61.5t-16.5 79t-5 76.5t22.5 57t67 20.5q80 -4 113.5 -5t40.5 -13.5t-3 -44t-20 -99.5t-14.5 -100.5t11 -42.5t54.5 -6t117 10q61 4 112 -11.5t86 -42t51.5 -59t10.5 -60.5 t-38 -45t-91 -15q-84 2 -140.5 14t-91.5 21.5t-50 12.5t-17 -14.5t5 -58.5t17 -119q12 -84 1 -126t-34.5 -60.5t-53.5 -21.5t-54 -11q-51 -16 -74.5 5.5t-31 61.5t-3.5 92t10.5 99t9.5 82t-7 41q-14 8 -44 11t-68 2t-82 -4t-87 -9q-14 -2 -35.5 14.5t-40 41t-29 54t-3 54z " />
<glyph unicode="," horiz-adv-x="565" d="M-69.5 -68.5q8.5 5.5 49.5 2.5q70 -2 93 0.5t24 12.5t-10 30.5t-11 53.5q0 8 4 33.5t9 55.5t12.5 55.5t13.5 31.5q74 82 116.5 86t64 -34t27 -97.5t3.5 -104.5q-4 -45 -13.5 -107.5t-27 -112.5t-43 -72.5t-62.5 12.5q-25 23 -60.5 44t-71.5 38.5t-67.5 33t-45 24.5 t-5 14.5z" />
<glyph unicode="-" horiz-adv-x="999" d="M90 563.5q2 20.5 41 39t131 28.5q45 6 119 14t149.5 11t139 -2t88.5 -27q18 -16 27.5 -23.5t19.5 -18t24.5 -26.5t42.5 -51q8 -10 -24.5 -17.5t-89 -11.5t-126 -5t-133 -3t-111.5 -3t-60 -3q-29 -6 -70 1t-79 22.5t-64.5 35t-24.5 40z" />
<glyph unicode="." horiz-adv-x="442" d="M157.5 95q-2.5 38 26.5 89q6 31 35 53.5t63.5 29.5t65.5 -4t41 -48q8 -31 2 -65.5t-21.5 -65.5t-39 -54.5t-49.5 -29.5q-27 -6 -55.5 2t-47 31.5t-21 61.5z" />
<glyph unicode="/" horiz-adv-x="757" d="M74 43q-4 27 19.5 99.5t63.5 166.5t90 201.5t101 206t98.5 177.5t79.5 118q49 57 90 100t68 62.5t36 10.5t-5 -55q-8 -27 -33 -87t-59.5 -142t-74.5 -178t-81 -193.5t-77 -188.5t-62 -161q-37 -98 -79 -147t-80 -60.5t-64.5 9t-30.5 61.5z" />
<glyph unicode="0" horiz-adv-x="1042" d="M42 691.5q7 99.5 30.5 196.5t62.5 186t92.5 155.5t122 104.5t150.5 34q123 -6 219 -51t159.5 -120t92 -176t16.5 -222t-35.5 -259.5t-72 -256t-126 -193.5t-196.5 -72t-209 32t-153.5 84t-101.5 147.5t-50 222.5q-8 88 -1 187.5zM279 562q2 -75 20 -140.5t57 -114.5 t101 -69q94 -31 149.5 -12.5t85 73.5t38.5 141t11 191q2 104 -10 193t-38.5 157t-67.5 111t-95 57q-53 14 -94 -30t-70.5 -115.5t-48 -152.5t-28.5 -140q-12 -74 -10 -149z" />
<glyph unicode="1" horiz-adv-x="872" d="M48 186.5q1 22.5 20.5 27.5t66.5 -13q43 -16 86 -27.5t77 -14.5t53.5 3t17.5 22q-16 90 -23.5 191.5t-9.5 200t0 188.5t5 159.5t4 112.5t-3 47q-31 31 -60.5 23t-58 -33.5t-55.5 -59.5t-48.5 -55.5t-37.5 -20.5t-25 46q-27 135 27.5 238.5t181.5 162.5q63 31 102.5 34 t67 -12t51 -44t56.5 -64q29 -31 36 -121t0.5 -205.5t-18.5 -243.5t-21.5 -234.5t-10.5 -177t18 -70.5q55 -4 104 -3t84 -6.5t49.5 -27t-0.5 -64.5q-14 -45 -7 -71.5t4 -40t-34.5 -14.5t-123.5 8q-92 8 -179.5 -9.5l-160 -32t-122.5 -11.5t-69 57q-18 51 -31.5 92t-12.5 63.5 z" />
<glyph unicode="2" horiz-adv-x="1085" d="M47 1128.5q-10 47.5 11.5 87t86 64.5t191.5 18q190 -8 299.5 -13t175.5 -28.5t110 -77t103 -157.5q27 -47 -6 -121t-96.5 -159t-142.5 -171t-143.5 -158.5t-101 -121.5t-14.5 -60q49 -23 94 -14.5t85 31t75 52.5t66.5 49.5t58.5 21.5t51 -29q68 -88 71 -149.5t-38 -103.5 t-116.5 -65.5t-166 -33.5t-186.5 -9t-178 7t-140.5 16t-74.5 19q-43 23 -59.5 67.5t-8.5 90.5t41 84t92 50q74 14 151 68.5t147.5 130.5t127 162t88 164t32.5 138t-40 83q-35 20 -83 48t-95 40t-87 -3.5t-60 -80.5q-20 -68 -59.5 -99.5t-78.5 -42t-66.5 -4t-23.5 14.5 q0 2 -19.5 31.5t-41 72.5t-31.5 90.5z" />
<glyph unicode="3" horiz-adv-x="1177" d="M39 1205.5q-2 29.5 15.5 52t62.5 30.5t148.5 26.5t230.5 37t258 34t233.5 15.5t156.5 -19.5t25 -66.5q-29 -49 -72.5 -110.5t-89.5 -127t-89.5 -128t-71 -113t-33.5 -80t23 -29.5q41 0 97 -6t102 -32.5t70.5 -82t6.5 -155.5t-35.5 -171t-50.5 -117t-88 -71.5t-150 -34.5 q-96 -8 -187 -25.5t-162.5 -26.5t-119 0t-53.5 56q-6 45 -36.5 100.5t-51 103.5t-13.5 82t79 38q37 2 53 8t21.5 12.5t5.5 9.5t8 -1t30.5 -16.5t69.5 -37.5q55 -29 109.5 -55t109 -40.5t105.5 -10.5t98 39q20 14 27.5 48t0 74t-24.5 81t-45 69.5t-62.5 38.5t-75.5 -8 q-55 -27 -99.5 -16.5t-77 40t-51 71.5t-19.5 83t16.5 72t56.5 39q55 10 86.5 32.5t50 51t29 60.5t22.5 63q20 55 13 73.5t-36.5 13.5t-77.5 -28t-106.5 -48.5t-124.5 -47t-129 -25.5q-31 -2 -63.5 14.5t-60 42t-45 57.5t-19.5 61.5z" />
<glyph unicode="4" horiz-adv-x="1159" d="M103.5 364.5q-3.5 32.5 2 60.5t18 51t30.5 50q12 16 34.5 81t53 150t70.5 180t89.5 174t105.5 131t122 50q96 -2 166.5 13.5t115.5 15.5t65.5 -33t18.5 -131q-2 -66 -9 -144.5t-15 -157.5t-14.5 -151.5t-5.5 -128t12.5 -85t35.5 -21.5q37 12 52.5 19.5t18.5 5.5t-1 -17.5 t-2 -50.5t13.5 -67.5t18.5 -57.5t4 -40t-32 -15t-55.5 1t-46 -2t-29.5 -11.5t-6 -28.5q6 -27 16.5 -58.5t15.5 -59.5t-4.5 -46t-43.5 -18q-27 0 -59 -16.5t-62.5 -29t-54 -10.5t-31.5 41t7 75t25.5 68.5t3 59.5t-58.5 47q-35 12 -88 12t-113.5 -6t-122 -14t-113.5 -9t-88 9 t-44 39q-12 43 -15.5 75.5zM369 465q-2 -29 43 -41t102 -9t109.5 22.5t64.5 54.5q8 23 18.5 73.5t17.5 112t9 127t-5 119t-24.5 86t-50.5 28.5t-66.5 -42t-64 -96t-58.5 -125.5t-48.5 -130t-32.5 -112t-14 -67.5z" />
<glyph unicode="5" horiz-adv-x="1206" d="M44 246q-9 35 0 52t33.5 20.5t55.5 -3.5q31 -6 71 -21t97 -29.5t136 -19.5t186 9q90 12 118.5 46t18.5 79t-47 96t-80 98q-37 41 -97.5 41t-126 -10t-129 -13t-104.5 32t-61.5 102.5t-24.5 144t2 153.5t19 130q12 53 37.5 77.5t101.5 36t216 13.5t380 12q160 6 231.5 -5 t84 -31.5t-18.5 -47t-76 -52.5t-89 -45.5t-56 -27.5q-20 -12 -84 -8t-144 12.5t-160.5 17.5t-134.5 9q-53 0 -63 -12t0 -40t27.5 -73t19.5 -112q2 -68 16.5 -88.5t45 -17.5t78.5 20.5t118 23.5t116 -14.5t84 -70.5t71.5 -130t78.5 -188q31 -72 30 -121t-22.5 -81 t-60.5 -51.5t-87 -34.5t-100.5 -30.5t-101.5 -40.5q-74 -37 -155.5 -47t-158.5 3.5t-140.5 50t-102.5 94.5q-39 57 -48 92z" />
<glyph unicode="6" horiz-adv-x="995" d="M37 1022q6 74 46 130t142 89t189.5 61.5t157 40t119.5 -3t81 -67.5t51.5 -106.5t22.5 -94.5t-17.5 -62.5t-68.5 -9.5q-33 8 -48.5 20.5t-21.5 28t-7 31t-5 26.5t-14.5 18t-36.5 7q-39 -2 -89.5 -8t-98.5 -28.5t-88 -64.5t-56 -114t-37.5 -130t-27 -89.5t18 -35t97.5 35.5 t155 63.5t153.5 21.5t130 -41t83.5 -126q27 -88 50.5 -168.5t23.5 -150.5t-34 -122t-122 -81q-86 -29 -177 -57.5t-174 -33.5t-152.5 24.5t-110.5 119.5q-31 66 -50.5 110t-31.5 79t-18 64.5t-9.5 64.5t-3.5 82t-2 117q-2 104 -14 195t-6 165zM268 481q0 -61 24 -108.5 t30 -61.5q2 -4 20 -23.5t47 -43t63.5 -45t70.5 -30.5t69 1t57 49q37 59 60.5 132t21.5 134.5t-38 100.5t-118 28q-164 -20 -235.5 -45.5t-71.5 -87.5z" />
<glyph unicode="7" horiz-adv-x="1073" d="M13.5 1331.5q9.5 28.5 43 36.5t99.5 -18q70 -29 160 -41.5t183 -13.5t182 5.5t159.5 15.5t114.5 16t46 9q29 12 35 -24.5t-7 -109t-42 -172t-65.5 -210t-80.5 -223.5t-88 -213t-85 -179t-74 -122q-6 -8 -34 -22.5t-65.5 -28.5t-80.5 -27.5t-80 -19.5t-61.5 -2t-24.5 24 q0 8 29.5 62.5t76.5 134.5t103.5 175t105.5 185q2 4 -26.5 3t-74.5 -5t-100.5 -9t-99.5 -9t-73.5 -4t-24.5 8q6 8 15 40t19.5 67.5t19.5 66.5t15 41q6 8 36 11t72 2t90 -4t89 -5t69 -2t32 6q45 86 78.5 148.5t50 104.5t11.5 61.5t-40 19.5q-47 0 -125 1t-161 1t-157.5 -2 t-117.5 -6q-29 -4 -58.5 20.5t-52 61.5t-34 77t-2 68.5z" />
<glyph unicode="8" horiz-adv-x="972" d="M27 303q23 57 62.5 128t72.5 138.5t44 122.5t-22 80q-6 4 -21.5 30.5t-30.5 65.5t-26.5 87.5t-9.5 97.5t22.5 93t69.5 77q72 47 151 69.5t153.5 20.5t141 -30t116.5 -81q49 -53 62 -97t10 -86t-13 -84t-10 -89q0 -35 -18.5 -56.5t-31 -46t-6 -60.5t55.5 -99 q45 -59 73.5 -96t41 -69t11.5 -68t-14 -93q-12 -57 -61 -110.5t-115.5 -92.5t-141.5 -57t-136 -6t-144.5 40.5t-154 69.5t-112.5 92.5t-19 108.5zM216 446.5q-9 -51.5 2 -105.5t42 -96t86 -44t126 -1t131.5 8t98 25.5t25.5 51.5t-3 69.5t17.5 70.5t8.5 60.5t-31 36.5 q-29 10 -70 37t-88 49.5t-97 28.5t-95 -27q-29 -20 -42.5 -29.5t-22.5 -16.5t-19 -16.5t-35 -29.5t-34 -71.5zM250 965q0 -23 18.5 -48.5t41 -46t43 -35t24.5 -16.5t38 -1t75.5 4t82.5 8.5t62 11.5q20 6 40.5 29.5t32 52t7.5 56.5t-31 46q-29 18 -55.5 34.5t-56 28 t-64.5 14.5t-78 -7q-86 -20 -133 -52t-47 -79z" />
<glyph unicode="9" horiz-adv-x="1038" d="M33 850q-10 78 12.5 151.5t59 132t79.5 97.5t72 49t72 14t95 4t109.5 -2t114.5 -4q63 -2 115.5 -24.5t88.5 -57t55.5 -76.5t19.5 -81q0 -37 4 -99.5t8 -139.5t5 -161t-5 -163.5t-21.5 -149.5t-42.5 -117q-39 -68 -75.5 -110.5t-93 -67.5t-142.5 -31t-221 4 q-86 6 -136 12.5t-75 16.5t-30 26.5t-1 39t12.5 55.5t10.5 78q2 55 20.5 71.5t46 8t61.5 -33t64 -50.5q18 -16 64.5 -15.5t104 16t115.5 43t99 66.5t53.5 89.5t-22.5 107.5q-8 12 -57 5t-121 -15.5t-156 -7.5t-158.5 30t-131 96.5t-72.5 192.5zM243.5 907.5 q20.5 -69.5 78 -120t144.5 -64.5t189 35q61 31 82 81t19 99t-17.5 87t-23.5 44q-82 61 -162 67.5t-144.5 -13t-106.5 -48.5t-46 -37q-33 -61 -12.5 -130.5z" />
<glyph unicode=":" horiz-adv-x="610" d="M144.5 847q-11.5 34 4 58.5t76.5 28.5t105.5 14t71 10t33.5 -16t-5 -65t-6 -87t11 -65t1 -40t-33 -13t-53 -5t-45.5 -5t-41.5 10t-38 39t-43.5 65.5t-37 70.5zM196 68.5q-3 23.5 4 64.5t25 109q2 10 38 18t76 8t70.5 -10t24.5 -39q-10 -45 -1 -77.5t16.5 -58.5t0 -46.5 t-50.5 -40.5q-55 -27 -92 -18.5t-69 30.5q-16 12 -27.5 24.5t-14.5 36z" />
<glyph unicode=";" horiz-adv-x="604" d="M111.5 -23.5q-13.5 21.5 15.5 41.5q27 20 56.5 40t49 42.5t22.5 51t-24 67.5t-4 63.5t63 30.5t82 -8t54 -51q10 -29 22.5 -69t15.5 -81t-10.5 -76.5t-54.5 -54.5q-70 -33 -131 -37t-102 7.5t-54.5 33zM170 856q-2 27 13.5 50.5t60.5 35.5q68 18 107.5 9t60 -36.5 t24.5 -67.5t-4 -83q-4 -29 -32.5 -39t-59.5 -13t-56.5 -2t-23.5 -3q0 -4 -12 9t-29.5 35.5t-32 50t-16.5 54.5z" />
<glyph unicode="&#x3c;" horiz-adv-x="1056" d="M49 584q-20 18 20 61t114.5 100.5t170 120t185.5 119.5t159.5 102.5t92.5 65.5q35 31 60.5 28t44.5 -23.5t35.5 -48.5t33.5 -48q10 -14 -15.5 -40t-74 -59.5t-112 -72.5t-129 -78t-125.5 -77t-101 -68q-41 -31 -33 -66t44 -68.5t89 -65.5t102 -55.5t85 -39t38 -17.5 t34 -9t60.5 -25.5t39 -54.5t-32.5 -95q-29 -41 -92.5 -30.5t-143.5 50t-168 100t-166 120t-136 107.5t-79 67z" />
<glyph unicode="=" horiz-adv-x="1198" d="M141.5 581.5q-14.5 22.5 12.5 45.5q18 16 93 29.5t176 20.5t214 8t204 -5t148.5 -21.5t46.5 -40.5q-18 -45 -45.5 -64t-69.5 -28.5t-97.5 -14.5t-129.5 -19q-57 -12 -126.5 -13.5t-139.5 6t-130 22.5t-101 33.5t-55.5 41zM172 881q0 70 66.5 99.5t164 32.5t208 -15.5 t197.5 -46t134 -57.5t19 -48q-27 -18 -95.5 -27.5t-155.5 -11.5t-182.5 2t-174.5 14.5t-130 25t-51 32.5z" />
<glyph unicode="&#x3e;" horiz-adv-x="1349" d="M227 92.5q-2 20.5 6.5 44t21.5 44t21 26.5q20 16 65.5 53t103 85t121 101.5t119.5 100.5t99 81t62 44q18 10 -10.5 36.5t-84 61.5t-128 74t-140 75.5t-122 65.5t-72.5 45q-57 47 -32.5 81t103.5 46q27 4 89.5 -25.5t142.5 -78.5t166 -110.5t158.5 -122t123 -113 t56.5 -80.5q10 -45 -40 -94.5t-139.5 -106.5t-209 -125t-250.5 -147q-86 -53 -134.5 -70.5t-71 -14.5t-24.5 23.5z" />
<glyph unicode="?" horiz-adv-x="854" d="M70.5 1156q13.5 34 87.5 67t162 65.5t168.5 42.5t147 -10.5t97.5 -93.5q20 -49 16 -111.5t-23 -128t-48 -130t-57.5 -119t-51 -93.5t-30.5 -53q-23 -43 -31 -97.5t0 -86.5q4 -16 -4 -32t-25.5 -25t-44 -7t-57.5 21q-31 18 -60.5 66t-42 101.5t-2 103.5t57.5 75 q31 16 70.5 42.5t76.5 59.5t67.5 70t45 72.5t7.5 68.5t-44 59q-55 39 -115.5 38t-114 -19.5t-94.5 -40t-57 -23.5t-49 14.5t-49.5 43t-3 60.5zM310 157.5q1 16.5 28 35.5q27 18 67.5 33.5t78.5 20.5t62.5 -1t18.5 -31t-16 -57.5t-27.5 -59t-41 -40t-54.5 2.5t-58.5 32 t-43 32t-14.5 32.5z" />
<glyph unicode="@" horiz-adv-x="1349" d="M37 426q8 72 31.5 148.5t53.5 152.5t59.5 150.5t51.5 144.5q33 104 85.5 161.5t125 86t162.5 35t201 6.5q74 0 121 -38t74.5 -103.5t39 -152.5t10.5 -185.5t-8.5 -203t-17.5 -202.5t-50 -153.5t-96.5 -81t-121 -26.5t-121.5 8t-102.5 20.5t-61.5 13.5q-25 2 -53.5 51 t-47 123t-19.5 163t32 171t75 112.5t79 34.5q43 7 88 -16q31 4 59 0q25 -4 51.5 -15.5t46.5 -37.5q18 -27 13.5 -92.5t-16 -139.5t-17.5 -140.5t12 -96.5q18 -31 40 2.5t43.5 94t40 131.5t30.5 114t5 100t-30.5 119.5t-63.5 126t-96 118.5q-55 55 -100 61.5t-91 -23 t-100.5 -89t-123.5 -133.5q-72 -74 -100.5 -184.5t-24.5 -229t36.5 -233.5t88.5 -199q37 -55 93 -82.5t120.5 -36t131 -2t122 16.5t95.5 20.5t50 10.5t42 36.5t72 92t84 119t82 115.5t61.5 85t23.5 25q0 -12 -5.5 -49t-16.5 -90.5t-30.5 -115t-48.5 -122.5t-72.5 -104.5 t-96 -76t-106.5 -59t-106 -53.5q-35 -18 -90 -15t-123.5 22.5t-142.5 53t-144.5 77.5t-131 95.5t-101.5 106.5t-52 119.5t-3 136.5zM473 510q4 -53 15.5 -111.5t46.5 -99.5q23 -29 44 -18.5t38.5 45t31 87t20.5 110t4 111.5t-16 93q-20 57 -51 51t-59 -39q-35 -37 -70 -104 q-8 -63 -4 -125z" />
<glyph unicode="A" horiz-adv-x="1122" d="M39 227q8 47 10 64.5t9.5 30t25.5 34t59 78.5t69 137t42 172.5t17 190.5q1 27 1 53q0 70 -6 139q-2 25 -2 48q0 60 16 104q22 58 68.5 89.5t119.5 38.5q39 4 85 4q39 0 82 -3q61 -4 100 -63.5t65.5 -154.5t44 -217t39 -250t50.5 -253t78 -227q48 -102 68 -154 q19 -48 18 -68q0 -18 -15 -17q-3 0 -9 1q-22 6 -59.5 19.5t-86.5 26.5q-34 9 -70 9q-17 0 -35 -2q-28 -3 -48 -3q-21 0 -33 3q-26 6 -31.5 21.5t0.5 39t12 54.5t6 66.5t-18 76.5q-29 61 -72 69q-17 3 -35 4q-28 0 -58 -8q-50 -13 -104.5 -35.5t-103.5 -25.5q-33 -2 -39 -16 t0 -37.5t19.5 -53.5t19.5 -61.5t-2 -61.5t-43 -54q-44 -30 -85 -30q-10 0 -18 1q-50 8 -86 41t-54 83q-13 35 -13 68q0 15 2 29zM385 664v-9q0 -63 27 -90q18 -18 38.5 -22t48 -4t64.5 -2t86 -15q21 -5 37 -5q28 -1 38 17q8 14 8 38q0 20 -5 44q-12 54 -43 126.5t-60 149.5 q-30 76 -50 150q-14 52 -13 94q0 17 2 33q6 37 -2 37q-2 0 -6 -4q-16 -16 -42 -74.5t-56.5 -142.5t-50 -167.5t-21.5 -153.5z" />
<glyph unicode="B" horiz-adv-x="1175" d="M57 463q-1 28 -1 58q0 84 8 174q12 122 32.5 244t41 219t35.5 156.5t15 57.5t15.5 8.5t49.5 24.5q34 13 89 25q51 11 122 11h13q80 -1 185.5 -18.5t240.5 -62.5q102 -33 134 -79q23 -32 23 -69q0 -16 -4 -32q-14 -54 -60 -114t-99 -121.5t-102.5 -122t-67.5 -115.5 q-14 -43 6.5 -51.5t56.5 -6.5t84 6q9 1 17 1q37 0 67 -15q36 -19 56 -71q11 -29 11 -73q0 -37 -7 -85q-1 -9 -1 -18q-1 -33 17 -60q22 -35 49 -64.5t47 -54.5q12 -15 11 -28q1 -9 -5 -19q-14 -22 -72 -42t-187 -38q-213 -33 -347 -52q-132 -18 -210 -21q-13 -1 -26 -1 q-58 0 -87 12q-35 14 -51.5 46t-26.5 83.5t-39 125.5q-29 72 -33 182zM268 846q0 4 36 -5.5t87 -16.5q40 -5 83 -5h24q56 2 98 27q41 25 68.5 62.5t41.5 80.5q12 37 11 76v11q-2 44 -21 81q-18 37 -54 41q-8 1 -17 1q-29 0 -62 -10q-43 -13 -87 -33.5t-81 -33.5 q-37 -12 -60.5 -58t-38.5 -95t-21.5 -88t-6.5 -35zM306 234q4 -52 18 -64q13 -11 68 -11h10q64 1 144.5 15t162.5 39t133 55q51 32 54 62v7q0 27 -18 53q-20 30 -53.5 57.5t-56.5 56.5q-23 27 -72 31q-19 2 -38 2q-32 -1 -67 -5q-56 -6 -109.5 -18t-86.5 -14 q-33 -4 -53 -50.5t-30 -104.5q-7 -42 -6 -82q-1 -15 0 -29z" />
<glyph unicode="C" horiz-adv-x="1222" d="M64 574q-1 21 0 43q0 117 16 264q16 168 68.5 263t141.5 146t219 72.5t302 40.5q131 14 197 15h9q57 0 79 -11q22 -12 14 -40t-24 -71t-30 -102q-6 -28 -7 -60q0 -36 8 -77q6 -39 6 -65q0 -15 -2 -26q-6 -28 -23.5 -32t-43 10t-54.5 37t-56 46.5t-50 37.5q-31 20 -61 50 t-60.5 51.5t-66.5 26.5q-5 1 -11 1q-32 0 -70 -26q-45 -30 -100 -102.5t-127 -205.5q-16 -31 -20 -89q-1 -17 0 -35q0 -44 6 -93q8 -70 26.5 -144.5t47 -139t64.5 -110.5t79 -61q117 -38 175 -38h4q58 2 81.5 29.5t28 74.5t15.5 98t44 101.5t117 85.5t116 37q33 2 32 -23 q0 -23 -22 -64q-24 -43 -52 -100t-50 -125q-21 -62 -20 -126v-11v-7q0 -66 -36 -98q-38 -34 -100 -44q-28 -4 -60 -4q-38 0 -81 6q-78 12 -156.5 33.5t-152.5 46t-125 44.5q-78 29 -128 89.5t-76.5 154.5t-30.5 226z" />
<glyph unicode="D" horiz-adv-x="1345" d="M80 1171q0 61 38 109t112 72q71 24 172 23h8q108 -1 247 -38q236 -63 392.5 -164.5t218.5 -227.5q38 -77 39 -159q0 -53 -16 -107q-40 -140 -195 -280q-78 -70 -128 -126t-87 -98t-69 -71.5t-70 -45.5q-36 -17 -90 -19h-16q-49 0 -118 10q-121 18 -209 19.5t-137 9.5 q-50 8 -58 32q-2 4 -1 10q0 26 32 77q39 61 59 123t26 122q5 44 4 85v32q-2 57 -7 113q-6 82 -29.5 147.5t-50 123.5t-47 112.5t-20.5 115.5zM448 408q-1 -17 0 -32q0 -60 8 -106q10 -58 36 -80q8 -6 18 -6q23 0 59 31q76 66 146.5 137.5t127 141t95.5 136t51 122.5 q17 86 23 131l2 22q0 31 -12 53q-16 30 -59.5 53t-119.5 64q-27 14 -64.5 28.5t-77.5 17.5q-9 1 -17 1q-31 0 -62 -9q-39 -11 -67.5 -48t-44.5 -103q-13 -54 -14 -135q0 -20 1 -41q0 -18 -7 -78.5t-13.5 -140t-8.5 -159.5z" />
<glyph unicode="E" horiz-adv-x="1263" d="M120 340q-2 51 -2 107q0 67 3 141q6 135 17.5 267t24.5 250t21 198q8 78 49 114.5t105 48.5q37 7 81 6q32 0 68 -4l178.5 -17t192.5 -13q18 -1 36 -1q80 0 159 15q43 8 74 8q38 0 60 -12q40 -22 43 -64v-10q0 -39 -20 -88q-22 -55 -49.5 -104t-52.5 -84t-25 -37 q0 -4 -22.5 19.5t-64.5 51.5t-102 52q-55 22 -124 22h-12q-115 -4 -166 -8t-67.5 -15.5t-11.5 -32t4 -55t-19.5 -89t-81.5 -129.5q-62 -78 -68 -116q-1 -5 -1 -9q0 -30 33 -40q19 -6 46 -6q26 0 62 6q70 12 157.5 34t184 51.5t182.5 56.5t122.5 36t42 2t-11 -28.5t-37 -57.5 t-36.5 -84q-11 -32 -12 -70q0 -18 3 -38q3 -24 3 -44q0 -52 -24 -72q-23 -19 -64 -19q-16 1 -36 3q-68 10 -164 45.5t-210 72.5q-77 25 -126 25q-25 -1 -43 -7q-53 -18 -67 -67q-7 -24 -7 -54q1 -30 7 -65q14 -70 33 -139t37 -99q16 -27 61 -27h9q52 3 157 32.5t297 81.5 q128 33 196 44q35 6 58 6q23 1 36 -5q19 -8 19 -24q-1 -6 -3 -12q-10 -26 -37 -67t-64 -92t-68 -108q-14 -27 -76.5 -39.5t-151.5 -13.5h-21q-80 0 -170 6q-102 8 -193.5 20t-162 26.5t-97.5 26.5q-43 20 -64.5 99t-26.5 192z" />
<glyph unicode="F" horiz-adv-x="1095" d="M20 -3q-2 1 -2 5q0 8 10 30q14 32 44 118q20 58 21 158v25q0 91 -6 197q-7 122 -17.5 250.5t-13.5 242.5q-1 25 -1 49q1 84 9 153q10 88 42 125q33 37 95.5 53t141.5 19q30 1 60 1q51 0 106 -3q87 -5 168 -12t147 -12q37 -3 66 -3q23 0 40 2q26 3 46 3q38 0 58 -10 q28 -16 31 -57v-12q-1 -37 -11 -95q-12 -66 -18 -159q-4 -55 -19.5 -76.5t-37 -19.5t-47 20.5t-50 43t-46 49t-33.5 36.5t-52 20q-39 7 -93 8h-22q-44 0 -92 -3q-60 -4 -114.5 -13.5t-96.5 -24.5t-57 -36q-38 -51 -39 -112q1 -14 3 -28q10 -77 67 -130q12 -10 55.5 -18.5 t108 -8.5t146 9.5t169.5 33.5q68 17 101 17h3q32 -1 31 -30.5t-33 -89t-89 -155.5q-12 -19 -51 -25q-20 -3 -42 -3q-24 1 -50 3q-52 6 -110.5 16.5t-108.5 22t-88 19.5t-46 6q-45 -10 -55 -55q-6 -26 -6 -60q0 -23 3 -49q7 -64 26.5 -142.5t35.5 -154.5q13 -64 13 -94v-9 q-3 -28 -24.5 -31t-60 7t-94.5 10q-55 0 -85 -12q-24 -10 -32 -10q-3 0 -4 1z" />
<glyph unicode="G" horiz-adv-x="1249" d="M6 528v9q0 74 31 154q33 85 79 179.5t94 196.5t79 217q31 113 84 159t125.5 46t161 -32t188.5 -73t209.5 -78.5t222.5 -48.5q6 -1 6 -7q0 -5 -4 -13q-8 -18 -28.5 -45t-46 -58.5t-50 -59t-42 -46t-19.5 -20.5q-36 -31 -67 -31q-5 0 -9 1q-35 5 -88 30.5t-135 63.5 t-217 69q-34 7 -62 7q-47 0 -78 -20q-49 -34 -71.5 -100.5t-23.5 -153.5v-20q0 -78 7 -154q8 -86 18.5 -160.5t10.5 -113.5q0 -59 55.5 -102t133.5 -60q47 -11 96 -11q31 0 63 4q82 11 135 62t54.5 78t-31.5 37q-30 9 -80 9h-11q-57 -1 -120 -5q-15 -1 -27 -1q-39 0 -47 9 q-10 13 17.5 49.5t85 101.5t129.5 161q47 66 73.5 90t41 15t23.5 -51t19 -110.5t28.5 -163t53.5 -208.5q23 -77 23 -133q0 -28 -6 -51q-17 -70 -73 -102q-53 -30 -135 -30h-10q-90 2 -196.5 31t-224 80t-232.5 117t-163 137.5t-50 148.5z" />
<glyph unicode="H" horiz-adv-x="1140" d="M42 424q8 150 20 336q6 91 6 186q0 99 -7 203q-6 108 -6 167v26q1 58 15 71q5 4 12 4q10 -1 26 -13q24 -20 61.5 -41.5t86.5 -29.5q9 -1 19 -1q42 0 94 28q39 20 51 5t6 -55t-24.5 -98.5t-41 -122t-44 -128t-31.5 -115.5q-4 -21 -4 -38q0 -24 8 -36q14 -22 48 -24 q6 0 13 -1q30 -1 68 9q47 12 103.5 26.5t117.5 25.5t121 11h25q68 -1 98 9q35 12 28.5 41.5t-43.5 82t-88 131.5q-54 82 -54 129q0 44 30 71q32 28 89.5 46.5t123.5 46.5q27 12 47 12q30 0 46 -26q28 -43 31 -132q0 -14 1 -30q0 -79 -14 -181q-16 -122 -36 -255t-36.5 -263 t-16.5 -233q0 -102 3 -160q2 -44 2 -71v-15q-1 -28 -9 -30t-29.5 8t-60.5 24.5t-100 22.5q-63 6 -93 30.5t-38 60.5q-3 15 -3 32q1 23 7 50q10 46 27.5 96.5t37 104.5t29.5 105q3 15 3 28q1 33 -17 56q-24 32 -69 48q-41 15 -95 15h-6q-58 -1 -113 -16.5t-103.5 -46 t-72.5 -71.5q-33 -57 -33 -99v-10q4 -46 27.5 -87.5t52.5 -84.5t39 -100q6 -37 6 -64q0 -25 -5 -43q-11 -37 -36 -50q-20 -11 -46 -11q-6 0 -12 1q-34 3 -68 15t-64 25.5t-46 21.5q-53 25 -62 123q-5 55 -5 127q0 56 3 121z" />
<glyph unicode="I" horiz-adv-x="899" d="M28 112q-1 8 -1 16q0 24 7 45q9 28 32 38t49 -1t53 -21.5t54.5 -8.5t53.5 39q16 25 29.5 110t22 197.5t11.5 239.5q2 76 2 145q0 47 -1 89q-2 106 -10 177.5t-23 75.5q-23 6 -47 -6t-53 -23.5t-60.5 -9.5t-66.5 39t-41 73q-2 11 -2 22q0 24 9 42q13 28 43 42q19 9 42 9 q13 0 27 -3q25 -6 77 -6t115.5 1t133 1t132 -2t110.5 -9.5t69 -23.5q59 -45 81 -74q19 -25 18 -40q0 -17 -28 -25q-24 -6 -57 -9q-22 -1 -46 -1h-25h-24q-23 0 -42 -1q-45 -4 -69.5 -12t-37 -28.5t-14.5 -53.5q-1 -11 -1 -24q0 -26 3 -58q1 -11 1 -27q0 -32 -3 -82 q-4 -76 -10 -170t-13.5 -195t-11.5 -186t-5 -143v-12q0 -46 7 -51q23 -16 48.5 -9t53 15t55 7t54.5 -36t44.5 -68.5t23.5 -60t0 -41t-29 -10.5q-9 1 -35 1h-31q-52 -1 -121 -4t-148 -6t-149 -4h-35q-49 0 -88 2q-52 3 -69 11q-29 14 -45 45t-19 63z" />
<glyph unicode="J" horiz-adv-x="1050" d="M27 387q0 33 27 41q5 2 11 2q27 0 78 -27q63 -33 96 -53t47.5 -35.5t16.5 -28t6 -24.5t14.5 -28.5t43.5 -40.5q33 -26 64 -26q14 0 27 5q44 16 75.5 70.5t50.5 139.5q16 77 16 167v20v25q0 57 7 118q9 76 20.5 152t19.5 146q7 61 7 114v12q-1 58 -18.5 96t-55.5 48 q-156 41 -212 74q-46 27 -46 50q0 4 2 8q10 26 73.5 43.5t146.5 27.5t171 14q59 3 106 3q24 0 45 -1q43 -2 70 -16.5t31 -73.5q1 -10 1 -22q0 -58 -16 -158q-20 -121 -71 -334q-45 -190 -55 -315q-4 -62 -4 -113t4 -91q10 -79 28 -119t26.5 -59.5t-3 -28.5t-58.5 -24 q-100 -33 -174 -62.5t-129 -51t-96 -32.5q-35 -9 -67 -9h-11q-37 2 -73 21.5t-81 58.5q-18 14 -45.5 54t-53.5 88t-44 95t-18 80z" />
<glyph unicode="K" horiz-adv-x="1398" d="M48 64q7 40 28.5 113t51 173t52.5 219q10 61 12 141v22q0 70 -8 140q-10 80 -28.5 152t-44.5 117q-29 45 -32 77v8q-1 27 15 55q18 32 54 67.5t90 89.5q49 49 88 60q19 5 35 5q19 0 33 -6q28 -12 46 -43q17 -30 21 -68q1 -11 1 -23q0 -26 -6 -53q-10 -38 -34 -65 q-20 -23 -28.5 -90.5t-8.5 -147t6 -158.5t17 -122q8 -33 46 -5t91 91.5t115.5 150.5t116.5 172t92 155.5t46 103.5q12 47 27 81q14 36 50 52q32 15 88 14h14q66 -2 182 -29q76 -19 104 -39q24 -17 25 -36q0 -2 -1 -6q-5 -22 -36 -46t-74 -48.5t-91 -48t-85 -44.5 q-23 -12 -63.5 -54t-86.5 -98.5t-92.5 -121t-79 -120.5t-47 -99t4.5 -56q86 -66 152.5 -146.5t119.5 -151t98 -120t90 -55.5q55 -6 73 -46q10 -21 10 -44q1 -19 -7 -38q-16 -43 -64 -69q-29 -16 -66 -15q-26 0 -56 7q-74 18 -124 18q-17 0 -31 1q-29 0 -50 -1q-31 -1 -44 3 t-13 31t-4 76t-20.5 113.5t-49.5 139t-92 150.5q-39 51 -68.5 69.5t-52.5 15.5t-41 -24.5t-35.5 -53.5t-36 -67.5t-43.5 -66.5q-37 -46 -45 -98q-3 -22 -3 -44q-1 -28 5 -56q10 -48 33 -92t49 -79q16 -23 1 -34t-52 -15q-21 -2 -46 -2q-19 0 -39 1q-48 3 -95 7t-86 8.5 t-55 4.5q-20 0 -20 25q0 7 2 16z" />
<glyph unicode="L" horiz-adv-x="1306" d="M53 1253q-7 10 -7 21q0 19 20 41q32 35 90 63t126 46q51 13 96 14q16 0 30 -2q58 -6 93 -42q25 -26 25 -74q0 -18 -4 -40q-14 -78 -34.5 -195.5t-39 -246.5t-27.5 -255q-4 -54 -4 -102q0 -65 7 -119q12 -96 50 -146q26 -35 71 -35q20 0 43 7q76 23 135 29t104 7t75 1 t48.5 13.5t23.5 41.5q2 13 2 33q0 23 -3 56q-1 10 -1 19q0 44 24 70q28 32 72 42q31 8 63 9q14 0 28 -2q47 -5 81 -19t42 -34q1 -3 1 -7q0 -16 -30 -31q-41 -20 -60 -49t-27.5 -63t-10.5 -69.5t-7 -68.5t-19.5 -62.5t-45.5 -50.5q-29 -18 -89 -33.5t-137 -25.5t-162 -14 q-70 -4 -135 -4h-28q-78 1 -143 9.5t-100 22.5q-72 31 -121 90q-48 58 -74 128q-25 68 -25 140v6q1 74 31 140q63 135 89 235.5t27 172.5v8q0 68 -18 116q-18 52 -44.5 88.5t-55.5 65t-45 55.5z" />
<glyph unicode="M" horiz-adv-x="1398" d="M77 52q-1 5 -1 11q0 20 12 48q16 37 31 90q10 28 10 86q0 15 -1 31q-3 82 -11 191t-17.5 231t-11.5 234v39q0 89 7 163q9 90 40 135q42 63 101 63h10q66 -6 138.5 -58t142 -140.5t122.5 -184.5q35 -66 70 -77q12 -4 24 -4q23 0 43 14q32 20 60 64t52 91t41 89t26 59 q12 25 31.5 37t47 19t64.5 13.5t88 18.5q63 16 89 16q27 0 27 -28q0 -25 -14 -73q-14 -52 -26 -139t-16 -213v-34q0 -115 20 -264q23 -172 41 -272q17 -100 25 -154q4 -27 4 -44.5t-4 -26.5q-8 -17 -37 -23.5t-84.5 -12.5t-141.5 -35q-46 -16 -77 -16q-18 0 -32 6 q-36 14 -48 55q-6 22 -6 52q0 25 4 53q10 64 29.5 137.5t44 151t45 150.5t31.5 133q6 34 6 61q0 19 -3 34q-15 61 -31 61h-2q-16 -2 -47.5 -45.5t-88 -111t-150.5 -129.5q-66 -43 -97.5 -59.5t-47 -10t-20.5 35t-14.5 78.5t-32 120t-69.5 158q-47 86 -75.5 103.5t-43 -17.5 t-14.5 -112t10 -175t28.5 -210t43.5 -216q25 -109 34 -170q6 -39 6 -65q0 -14 -2 -25q-5 -29 -23.5 -33t-48.5 1t-72 13q-27 5 -59 4q-17 0 -34 -1q-42 -4 -70 -4q-25 0 -39 3q-32 8 -37 30z" />
<glyph unicode="N" horiz-adv-x="1095" d="M45 240q-1 3 -1 7q0 11 5 21q6 14 26.5 28.5t65.5 37.5q29 14 41 59q12 42 12 100v9q-1 64 -12.5 143.5t-26 165.5t-28.5 172t-25 166q-10 78 -10 123t10.5 66.5t33 26.5t57 7t82 6t110.5 25q20 6 37 6q37 1 64 -25q40 -38 68 -114t47.5 -177.5t40 -210t49 -213 t73.5 -182.5q33 -59 52.5 -63t26.5 30q5 26 5 70v26q-2 64 -10.5 143t-20.5 164t-24.5 161t-24.5 133t-18 82q-12 42 -12 75v11q2 37 27.5 58.5t73.5 23.5h8q46 0 118 -21q51 -14 71.5 -82.5t20.5 -170t-12.5 -225.5t-28 -250t-26.5 -244q-8 -87 -8 -158q0 -26 1 -49 q3 -59 3 -100q0 -21 -1 -37q-2 -48 -13 -66q-9 -15 -24 -15h-6q-18 3 -47 14t-65.5 23.5t-84.5 14.5q-47 0 -78.5 33.5t-56 92t-45 135.5t-44 165t-54.5 182t-76 186q-35 70 -54.5 86.5t-27.5 -3.5q-7 -18 -7 -61v-11q1 -52 8 -118.5t19.5 -141t27 -144t29.5 -125t28 -84.5 q25 -55 30 -81.5t-5.5 -43t-35 -34t-61.5 -56.5q-25 -26 -56 -26q-15 0 -30 6q-49 18 -95 59t-78 88.5t-34 67.5q-2 19 -4 33z" />
<glyph unicode="O" horiz-adv-x="1034" d="M30 348q-5 29 -5 61q-1 33 5 69q10 68 26 135t31 127.5t17 105.5q2 104 14.5 169.5t28 107.5t33 66.5t31.5 47.5q77 127 145 165q42 23 86 24q28 0 56 -10q74 -24 159.5 -95.5t200.5 -163.5q68 -55 95.5 -120.5t28.5 -142.5v-8q0 -74 -18 -154q-20 -85 -47.5 -176 t-56.5 -188.5t-45 -197.5q-12 -78 -46 -117t-83 -49q-22 -5 -47 -5q-29 0 -61 7q-60 12 -126.5 38t-136 56.5t-135.5 57.5q-74 29 -107 78.5t-43 111.5zM254 649q-1 1 -1 -3q0 -8 3 -32q4 -36 13.5 -89.5t27.5 -114t48 -107.5t71 -73q24 -15 53 -15q20 0 43 8q51 16 81 41 t51.5 81t38.5 154.5t44 262.5q19 111 27 171q6 41 5 68q0 13 -1 23q-4 31 -19.5 41t-46 20.5t-77 30t-107.5 68.5q-43 34 -77 34h-6q-36 -4 -61.5 -34.5t-44 -82.5t-31 -111.5t-18.5 -120t-10 -109.5t-4 -64z" />
<glyph unicode="P" horiz-adv-x="1161" d="M127 976.5q0 110.5 1 202t1 149.5t2 56q-12 14 29 28.5t111.5 27t156.5 21.5t163 13q53 3 96 3h36q55 -2 65 -13q41 -23 98.5 -76t112 -127.5t97.5 -161.5t53 -174q2 -21 2 -42q1 -65 -23 -127q-32 -82 -124 -146q-52 -35 -134 -42q-44 -4 -90 -4q-39 0 -80 3 q-88 6 -171 20.5t-137 21.5q-32 4 -49 4q-13 0 -19 -2q-14 -5 41 -33q31 -49 42 -108.5t11 -119t-5 -115t-9 -98.5q-3 -30 -4 -51q0 -10 1 -18q2 -26 21 -25q-16 -37 -60 -42q-10 -1 -21 -1q-34 0 -67 12q-44 16 -72 48q-21 23 -21 46q0 8 3 17q2 6 -2 51t-12 105.5 t-17.5 123t-17.5 105.5q-4 16 -5 89t-2 171t-1 208.5zM344 1046q-2 -22 -2 -44q0 -26 3 -49q5 -42 19 -70.5t39 -28.5q-10 0 13.5 -7t67.5 -15.5t104 -15.5q58 -7 118 -8h14q52 0 100 7q54 8 91 31q15 10 15 36v10q-4 34 -23.5 79t-48.5 94t-60.5 91t-61.5 70.5t-48 30.5 q-12 23 -59 32q-38 7 -79 7h-18q-50 -2 -84 -14t-22 -35q-20 -4 -36.5 -34.5t-27 -73.5t-14.5 -93z" />
<glyph unicode="Q" horiz-adv-x="1267" d="M54 742q-3 22 -3 43q0 33 7 68q10 58 44 155q39 111 77 175t83 103t104.5 63.5t143.5 53.5q46 16 96 16q30 0 61 -5q85 -15 168 -57t156.5 -105.5t123.5 -137.5t71 -150q9 -37 9 -72q0 -38 -11 -73q-14 -39 -30.5 -102.5t-36 -136t-39 -147.5t-37 -137.5t-32 -103 t-22.5 -47.5q-8 -6 -35.5 -22.5t-57.5 -39t-54.5 -49t-28.5 -53t19.5 -51t91.5 -41.5q100 -27 166.5 -33t100.5 -13t34 -25.5t-31 -67.5t-79 -91t-101 -61q-31 -10 -61 -10q-22 0 -43 6q-50 13 -85 76t-59.5 101.5t-50 66t-57 49t-83.5 52.5q-96 57 -161.5 99t-108.5 78 t-68.5 69.5t-43 72.5t-31 88t-29.5 115q-29 104 -49.5 166.5t-27.5 114.5zM287 721v-17q0 -80 17 -159q18 -88 47 -160.5t52 -99.5q8 -10 32 -32t55.5 -44.5t70.5 -38.5t80 -16t80 22.5t72 77.5q27 47 48 113.5t34.5 142.5t20.5 153.5t7 147.5t-6 124t-20 83 q-59 121 -128 150q-33 15 -66 15q-37 0 -75 -17q-73 -33 -146 -115t-136 -183q-37 -59 -39 -147z" />
<glyph unicode="R" horiz-adv-x="1206" d="M70 1070q-4 38 -3 73q-1 49 7 92q14 72 55 116t125 52q90 8 156 12q38 2 75 2q29 0 55 -1q62 -3 132.5 -15t169.5 -37q63 -16 100 -33.5t53.5 -43t18.5 -58.5q1 -11 1 -23q0 -25 -3 -56q-4 -46 -8 -108q-2 -30 -3 -64q0 -37 3 -79q1 -11 1 -21q0 -67 -23 -104 q-26 -43 -66 -62q-40 -20 -86 -23q-23 -2 -43.5 -1.5t-38.5 1.5q-36 3 -53 2t1 -15q100 -88 158.5 -170t94.5 -149.5t60.5 -117t59.5 -73.5q89 -63 109 -98q9 -17 10 -30q0 -14 -12 -24q-22 -18 -67.5 -24t-88.5 -10q-7 -1 -14 -1q-58 0 -107 44q-55 49 -103 124.5t-88 167 t-74 169.5q-34 76 -64 128q-29 50 -56 50h-2q-61 -4 -88 -27t-30 -72q0 -8 -1 -17q-1 -46 13 -115q16 -83 40 -208q16 -84 24 -130q6 -34 7 -54q0 -7 -1 -13q-3 -20 -17.5 -21t-42 4t-69.5 11q-18 2 -40 2q-28 0 -61 -4q-25 -3 -44 -3q-50 1 -66 19q-16 19 -15 52q0 12 2 26 q9 54 27 133q14 60 13 130q0 23 -1 47q-8 113 -27.5 227.5t-37 221t-27.5 199.5zM267 1047q0 -46 36 -101q51 -80 85 -98q20 -11 42 -11q16 -1 33 5q41 14 100.5 41.5t159.5 38.5q41 4 59 36q14 26 14 58q0 8 -1 16q-4 43 -27 90t-62 81q-38 35 -92 49q-22 6 -46 5 q-34 0 -72 -12q-66 -23 -117 -49q-51 -28 -81 -64q-31 -38 -31 -85z" />
<glyph unicode="S" horiz-adv-x="1359" d="M112 196q6 46 17.5 106t11.5 136t1 108t8.5 30.5t23.5 -29t45 -70.5t72 -96t104 -105q93 -78 149 -94q19 -5 35 -6q33 0 57 22q36 32 59.5 112.5t49.5 197.5q7 31 7 57q0 39 -16 66q-27 45 -79.5 75.5t-121 56t-135 63.5t-123 97.5t-80.5 159.5q-13 51 -13 93q0 41 12 74 q24 67 86 107t153 57.5t197 19.5h38q89 0 183 -8q114 -10 220 -23q80 -10 113 -42q32 -31 32 -72q0 -43 -29 -91q-28 -47 -69 -90t-88 -76t-85 -45q-37 -13 -61 1q-19 11 -19 43q0 8 1 18q6 50 6 83q0 30 -5 44q-11 32 -53 32t-120 -16t-196 -16q-80 0 -101.5 -20.5 t-1 -54.5t74.5 -78t126 -90t150.5 -90t150.5 -81q106 -55 158.5 -112.5t70.5 -113.5q14 -42 14 -80q0 -12 -1 -24q-6 -49 -15 -86q-23 -86 -72.5 -138t-124.5 -83t-173.5 -45t-216.5 -23q-115 -8 -194 -8q-24 0 -44 1q-88 3 -132 20q-43 16 -53 48q-6 19 -6 43q-1 16 2 35z " />
<glyph unicode="T" horiz-adv-x="1402" d="M6 1113q0 28 27.5 62.5t60.5 65.5t46 41l40 33q2 0 80 10t194.5 23.5t256 23.5t266.5 11h17q118 0 210 -13q100 -14 133 -51q34 -36 34 -75q0 -8 -1 -16q-8 -48 -39 -83t-69 -47q-11 -4 -20 -4q-22 0 -36 20q-14 22 -40 22q-8 0 -17 -2q-39 -8 -89 -24t-108 -26 q-16 -3 -33 -3q-41 0 -81 19q-11 5 -20 5q-22 0 -34 -29q-18 -40 -22 -114q-2 -33 -2 -70q0 -46 3 -100q5 -98 12 -193t13 -178q5 -63 5 -105v-23q-2 -45 -19.5 -103.5t-43.5 -105.5q-25 -48 -53 -74q-17 -16 -33 -16q-10 0 -20 7q-24 17 -39.5 88t-15.5 218q0 233 -1 384 t-10 238t-32 123q-22 36 -64 42q-14 2 -32 2q-34 0 -78 -8q-68 -12 -168 -23q-40 -4 -70 -4q-45 0 -69 9q-39 15 -39 43z" />
<glyph unicode="U" horiz-adv-x="1134" d="M43 1378q-2 7 -2 13q-1 23 27 37q36 18 134 19h8q97 0 275 -22q37 -4 39 -57v-11q0 -49 -16 -113q-18 -70 -47 -141t-53 -112q-16 -27 -34 -93.5t-29 -149t-14 -169.5q-1 -19 -1 -37q0 -65 9 -120q11 -70 40 -110q22 -30 57 -31q12 0 25 4q38 9 68 9q10 0 19 -1 q36 -4 61.5 -11.5t44 -13.5t36 2.5t39 35t51.5 85.5q34 66 44 161q6 56 6 116q0 42 -2 84q-6 104 -20.5 208.5t-25.5 190.5q-12 85 -15 145v18q0 44 13 54q63 46 135 54q21 2 40 3q47 1 83 -13q52 -18 68 -59q4 -10 4 -22q0 -31 -33 -67q-16 -16 -16 -99.5t5 -200t9 -250.5 q2 -54 2 -105q0 -77 -4 -149q-6 -120 -28.5 -210t-71.5 -119q-74 -43 -139 -75q-66 -32 -134 -46q-40 -8 -84 -9q-29 0 -60 4q-77 9 -175 52q-115 51 -175 113q-58 61 -80 135q-17 57 -17 123q-1 20 1 41q6 90 20 199q14 108 28 237q9 89 10 191q0 45 -2 92q-2 25 -31 57.5 t-55.5 67.5t-36.5 65z" />
<glyph unicode="V" horiz-adv-x="1257" d="M64 954q-2 8 -3 16q1 20 11 42q14 32 39 57q45 45 73.5 94t49 93t37 80t35 55.5t43 17.5t63.5 -33q57 -47 84.5 -107.5t40 -131t14.5 -151.5t10 -170t27.5 -184t64.5 -194q47 -102 78 -140t49.5 -26.5t26.5 63.5t10 129q1 38 1 81t-1 89q-2 93 -5 186t-4 177v33 q0 63 3 111q8 113 14 177t15.5 95t23.5 35q6 2 14 2q10 0 26 -4q26 -6 65 -16q33 -9 78 -9h18h14q79 -1 133 -21q60 -22 80 -56q9 -15 10 -33q0 -21 -14 -45q-26 -43 -108 -82q-55 -27 -94 -114t-66 -206t-45.5 -252t-29.5 -249.5t-18 -201.5t-16 -108q-12 -33 -59 -49 q-48 -16 -106 -17h-8q-54 0 -105 12q-55 13 -80 40q-12 14 -23.5 62.5t-22.5 118t-23.5 152.5t-29 167t-39 159.5t-51.5 131.5q-30 58 -68 86q-25 19 -57 19q-15 0 -32 -5q-48 -12 -78 -12q-15 0 -27 3q-32 9 -38 33z" />
<glyph unicode="W" horiz-adv-x="1460" d="M61 1220.5q0 57.5 40 94.5t126 43h4q40 0 72 -38q33 -40 59.5 -107.5t47 -151.5t38 -167t32 -156.5t28.5 -120t30.5 -56.5t34.5 35q25 59 33 108.5t8 88t-2 68.5t6.5 49.5t32 30.5t72.5 13q74 2 98.5 13.5t30.5 1t12 -55.5t45 -151t69 -133t52.5 -8.5t41 64.5t34.5 83 q6 16 6 40q0 15 -2 33q-6 48 -19.5 107.5t-25.5 123t-14 118.5v12q0 47 14 83q16 40 63 52q59 15 114 15h22q66 -4 108 -31q44 -27 54 -72q2 -9 2 -19q0 -39 -33 -89q-29 -43 -33 -105q-2 -25 -2 -51q0 -40 4 -84q6 -74 17.5 -154.5t17.5 -163.5q3 -45 3 -90q0 -37 -2 -73 q-5 -80 -32 -148q-16 -39 -35.5 -86t-44.5 -87q-24 -39 -53 -65q-26 -23 -55 -23h-6q-32 3 -69.5 42t-78.5 127q-57 123 -113.5 183.5t-104.5 74.5q-19 6 -37 6q-26 0 -48 -12q-37 -22 -57 -63q-14 -27 -20.5 -69t-12.5 -87t-14.5 -88t-24.5 -74t-44 -44q-13 -6 -31 -6 q-19 0 -42 7q-45 14 -70.5 23.5t-42 18.5t-26.5 22.5t-24.5 36t-37 58.5t-61.5 91q-23 32 -23 72v14q4 49 21.5 105.5t38.5 118.5q22 64 30 126q3 24 4 48q0 38 -8 76q-14 62 -67 120q-74 80 -112 152.5t-38 130z" />
<glyph unicode="X" horiz-adv-x="1251" d="M20 1208q2 49 60 80q57 31 123.5 64.5t124.5 51.5q39 12 67 13q14 0 26 -3q32 -8 32 -53v-11q-1 -14 -1 -29q0 -55 12 -121q15 -84 41.5 -164t61.5 -146t69 -96q21 -19 41 -19q11 1 23 7q30 18 52 103q4 20 7 72.5t23.5 121t69.5 145t145 148.5q47 35 95 39q9 1 18 1 q37 0 68 -14q40 -16 66 -48q31 -38 30 -73q0 -25 -32 -67q-34 -45 -84 -102t-108.5 -122.5t-102.5 -131.5q-43 -66 -65 -129q-10 -30 -11 -58q0 -30 12 -57q33 -78 74.5 -125t84.5 -85t84 -82t72 -115q31 -72 39 -113t-8.5 -59.5t-57.5 -19.5h-9q-39 0 -99 7q-27 3 -48 3 q-17 0 -30 -2q-29 -5 -46 -6t-26.5 9.5t-17.5 47.5q-18 78 -23.5 139t-16.5 110.5t-37.5 90.5t-84.5 77q-57 36 -89 36h-5q-33 -3 -50.5 -32.5t-23.5 -77.5t-13 -101.5t-20.5 -103.5t-44.5 -81q-86 -87 -147 -115q-48 -22 -84 -22q-10 0 -19 2q-42 8 -64.5 44t-28.5 79 q-2 15 -1 29q1 27 7 53q10 39 32 53q31 20 68 69.5t69.5 108.5t57 119.5t33.5 103.5q2 7 2 18q0 19 -4 49q-6 48 -19.5 107.5t-32 121t-41 105.5t-47 63.5t-47.5 -5.5q-37 -39 -77 -39q-8 0 -17 2q-49 10 -79 48q-28 35 -28 80v7z" />
<glyph unicode="Y" horiz-adv-x="1187" d="M28 1334q13 57 91 81q34 11 63 11q36 0 64 -18q49 -32 82.5 -89t57.5 -128t52 -122q18 -35 46 -73t58.5 -69.5t63.5 -54t60.5 -25.5t48 18.5t26.5 76.5q8 72 10.5 150.5t14.5 146.5t43 116t98 56q21 2 40 2q46 0 87 -13q58 -18 92.5 -55.5t38.5 -92.5v-10q0 -52 -39 -112 q-47 -74 -97 -141t-101 -144t-99.5 -170t-93.5 -218q-43 -119 -43 -178.5t22.5 -84t60.5 -26.5t70 -5t49 -21q9 -9 9 -27t-8 -45q-8 -31 -32.5 -45.5t-63.5 -19.5q-28 -4 -62 -4q-13 0 -27 1q-51 2 -110 6q-59 3 -115 3h-27h-13q-60 0 -101 9q-45 9 -58 38q-4 7 -4 18 q0 28 25 74q20 37 51 52t63 25.5t62.5 22.5t51 42t26.5 85q2 17 2 37q0 46 -10 112t-18.5 108t-19.5 69.5t-29.5 50t-52.5 50t-87 67.5t-131 106q-47 39 -97 103.5t-76 129.5q-18 45 -18 85q0 20 4 39z" />
<glyph unicode="Z" horiz-adv-x="1153" d="M26 1240q-3 6 -2 12q0 13 10 30q16 25 66 68q45 39 127 60q81 20 181 27q54 4 109 4q47 0 97 -3q106 -6 196.5 -17.5t157 -28t89.5 -32.5q41 -31 65 -113q13 -43 13 -94q-1 -47 -11 -101q-22 -114 -107 -249t-259 -268q-27 -20 -64 -53t-75.5 -72t-74.5 -77t-57.5 -67.5 t-22.5 -45t28 -9.5q45 10 112.5 36.5t142 53.5t147.5 48.5t128 23.5h8q49 1 76 -23q20 -18 20 -55q0 -17 -4 -37q-15 -73 -15 -121q0 -17 2 -31q7 -54 8 -76t-20.5 -19t-101.5 18q-38 7 -88 7q-20 0 -43 -1q-78 -4 -165 -13.5t-177 -17.5q-72 -6 -135 -6h-31 q-76 2 -130 18.5t-72 55.5q-34 78 -46 118q-4 14 -5 27q-1 24 13 45q20 33 75 75t151 124q90 76 178 168t163 183t130 173q55 83 79 139q16 37 15 59q0 11 -4 19q-5 10 -20 10q-19 0 -54 -16q-92 -43 -192 -62q-99 -20 -193 -21h-12q-87 0 -163 14q-81 15 -134 44 q-43 20 -72 36t-37 33z" />
<glyph unicode="[" horiz-adv-x="849" d="M94 460q2 136 7 271t11.5 254t9.5 212t-1 144q-14 205 98.5 315.5t333.5 115.5q111 2 171 -25t81.5 -62.5t10.5 -69.5t-44 -46q-20 -8 -62 -8t-92.5 2t-104.5 3t-98 -5.5t-72 -23.5t-28 -50q0 -8 -2 -66.5t-4 -151.5t-5 -212t-5 -246t-4 -252t-3 -231.5t0 -186.5t5 -114 q6 -70 33.5 -82.5t70.5 0t99.5 33t122.5 18.5t113.5 -11.5t68 -33t9.5 -65.5t-60 -109q-49 -68 -107.5 -100.5t-125 -38t-141.5 14t-159 56.5q-41 18 -67.5 87t-40 171.5t-17.5 229.5t-2 263z" />
<glyph unicode="\" d="M217 1256.5q-12 56.5 5.5 92t80.5 31.5q94 -4 150.5 -43t104.5 -120.5t104.5 -210.5t152.5 -314q96 -184 177 -331.5t118 -242.5t15.5 -130t-126.5 8q-70 29 -132 90t-115.5 141t-98.5 167t-80.5 166t-63.5 140t-44 88q-18 27 -54 82.5t-75 122t-73 137t-46 127z" />
<glyph unicode="]" horiz-adv-x="792" d="M91 1644.5q7 36.5 67 65.5q119 59 224 43t191 -88q20 -18 41 -109.5t37.5 -228.5t28.5 -308t17 -346t3 -343t-12 -300t-32.5 -215t-55.5 -91q-68 -14 -135.5 -26.5t-123.5 -16t-94 8t-46 42.5t-13.5 65.5t-1.5 63t22.5 47t57.5 18.5t63.5 -15t43 -24.5t38 -3.5t50.5 47 q14 20 23.5 99.5t13.5 194t4 253.5t-3 282.5t-8.5 277.5t-11.5 239.5t-14 170t-14 66.5q-14 4 -51.5 -1t-80.5 -11t-80 -10t-51 0t-42.5 27.5t-45 56.5t-9.5 69.5z" />
<glyph unicode="^" d="M141 737q-2 18 27 86t76 156t110.5 180t131 159.5t135 96.5t124.5 -12t117 -102.5t113 -132t96 -142.5t69.5 -133.5t33 -106.5t-16.5 -59q-66 -47 -107.5 -56t-58.5 44q-6 16 -30.5 64t-58.5 108.5t-74 125t-77.5 118t-67.5 86t-42 28.5q-14 -4 -36.5 -41t-51.5 -90 t-62.5 -114.5t-66.5 -116t-64.5 -94t-56.5 -48.5q-39 -12 -67.5 -25.5t-49 -17.5t-32 3t-13.5 36z" />
<glyph unicode="_" horiz-adv-x="1406" d="M46 -355.5q3 19.5 69 44.5q43 16 137 26.5t213 13.5t248 0t242.5 -12.5t197.5 -24t115 -34.5q45 -31 72.5 -49.5t25.5 -27.5t-38 -12t-118 1q-55 2 -154.5 4t-217 3t-240.5 2t-222.5 2t-162.5 1t-63 2t-30 9.5t-53.5 19.5t-20.5 31.5z" />
<glyph unicode="`" horiz-adv-x="542" d="M47 1311q2 51 22.5 69.5t60.5 14.5t99.5 -25.5t141.5 -50.5t107.5 -47.5t20.5 -38t-26.5 -48t-34.5 -75.5q-8 -31 -40.5 -38t-77 4t-93.5 36t-90 58.5t-66.5 69.5t-23.5 71z" />
<glyph unicode="a" horiz-adv-x="1003" d="M66 814q12 26 57 56.5t137 67.5q215 84 340 108q58 11 102 10q52 0 84 -14q62 -28 72 -100q4 -28 4 -60q0 -52 -10 -116q-5 -30 -5 -62q0 -45 10 -94q17 -84 37 -169t34 -163q6 -34 6 -65q0 -39 -10 -73q-18 -60 -78 -92q-47 -25 -133 -25q-24 0 -51 2q-190 12 -315.5 12 t-193 17.5t-81.5 68.5q-4 14 -3 34q0 50 25 134q18 61 70.5 99t121 63.5t143.5 44t137 38.5q60 22 98 50q34 26 34 67v9q-4 55 -5 93t-13 61.5t-43 31.5q-21 5 -55 5q-17 0 -37 -1q-100 -8 -148.5 -41t-64.5 -67q-14 -28 -14 -53v-10q4 -28 6 -24q-145 29 -213 70 q-29 17 -43 39q-8 12 -8 25q0 11 6 23zM301 204q-1 -4 0 -6q0 -4 2 -3q4 2 28.5 -17.5t60.5 -33.5q21 -8 44 -7q16 -1 32 3q40 10 73 69q23 41 55.5 69.5t63 47t53 30t22.5 16.5t-27.5 5t-97.5 -2q-104 -4 -159.5 -5t-82 -5.5t-32.5 -14.5t-8 -31q-4 -23 -10.5 -45 t-10.5 -40.5t-6 -29.5z" />
<glyph unicode="b" horiz-adv-x="968" d="M66 924q2 131 14 228t39 124q41 41 77.5 74.5t65.5 39.5q5 1 9 2q23 0 37 -29q18 -34 22 -130v-23q0 -83 -12 -154q-14 -80 -24 -132q-6 -33 -6 -51q0 -10 2 -15q5 -14 48 27q43 39 66.5 68.5t51.5 36.5q7 2 14 1q24 1 57 -15q44 -22 130 -81t134.5 -74.5t72 -22.5 t29.5 -24.5t6 -81.5q0 -63 13.5 -120.5t17.5 -115.5q1 -13 1 -26q1 -48 -11 -96q-14 -62 -70 -137q-37 -51 -51.5 -90t-19.5 -67t-7 -44t-16.5 -20.5t-47 3t-98.5 25.5q-98 29 -150 56.5t-78 43t-37 11.5t-26 -41q-14 -37 -41 -73q-28 -37 -58 -55q-21 -13 -40 -13 q-8 1 -16 3q-26 8 -37 56q-8 33 -19.5 133t-20.5 233.5t-17 283.5q-6 113 -5 215q0 34 1 67zM226 459q-2 -10 -2 -19q0 -33 20 -63q24 -39 98 -78q74 -41 138 -67q57 -23 100 -22h10q47 3 73.5 41t28.5 126t30 139t45 83q10 19 10 35q0 10 -4 18q-11 20 -89 44 q-78 25 -132 48.5t-94 29.5q-9 1 -17 1q-29 0 -53 -16q-30 -21 -64 -87q-33 -66 -62 -118t-36 -95z" />
<glyph unicode="c" horiz-adv-x="890" d="M37 340q-2 37 -2 75q0 58 4 120q6 104 21.5 189t56.5 144.5t117 85.5q52 18 129 18q35 0 75 -3q135 -14 213 -14.5t115 -9.5t41 -40q1 -8 1 -18q0 -32 -9 -88q-12 -86 -22.5 -129t-22 -55.5t-23.5 -1t-27.5 33t-37 48t-52.5 42.5q-35 18 -82 41t-92 29q-11 1 -21 1 q-33 0 -59 -14q-36 -20 -49 -83q-12 -63 -18 -97t-7 -67q0 -5 -1 -10q0 -30 6 -68q6 -45 20 -131q8 -45 31 -90t61.5 -74t94.5 -31h6q55 0 127 41q51 29 70.5 45.5t30.5 14.5t26.5 -22.5t60.5 -63.5q42 -42 42 -74q-1 -13 -7 -23q-24 -39 -108 -57q-76 -17 -194 -16h-26 q-136 2 -299 24q-66 8 -105.5 52.5t-60 114t-24.5 161.5z" />
<glyph unicode="d" horiz-adv-x="995" d="M42 512q17 37 42 82t55.5 104.5t59.5 143.5t77 118.5t102 36.5h9q51 1 101 -19q56 -22 100.5 -47.5t57.5 -36.5l42 -34q-2 0 4 54.5t12.5 127t9.5 145.5q1 24 1 45q0 41 -4 66q-6 39 10 40h2q16 0 42 -14q28 -15 59.5 -36.5t52.5 -30.5q14 -6 21 -81.5t8 -190.5v-79 q0 -82 -1 -173q-2 -137 -7 -264t-12 -228.5t-14 -144.5q-6 -43 -54 -66.5t-120 -27.5q-16 -1 -33 -1q-58 1 -124 11q-86 14 -170 44t-156 78t-115 112q-43 63 -60 108q-16 42 -16 79q0 40 18 79zM286 432q10 -66 37 -109.5t66 -69.5t75 -38t62.5 -16t30.5 -6q31 -13 57 -21 q18 -6 33 -5q7 0 13 1q20 4 33.5 25.5t17.5 68.5q4 44 8 108q2 37 2 74q0 28 -1 56q-3 66 -18.5 125t-48.5 94q-47 49 -103 58q-17 3 -34 3q-38 0 -72 -14q-50 -20 -90.5 -66.5t-54.5 -107.5q-16 -67 -16 -119q0 -22 3 -41z" />
<glyph unicode="e" horiz-adv-x="1114" d="M43 459q6 35 23.5 69.5t25.5 89.5q5 31 5 54q0 17 -3 29q-6 28 -6 55.5t17.5 70.5t72.5 129t95 123q41 37 91 43q13 2 27 1q43 0 97 -12q74 -17 196 -38q82 -14 126 -20t64.5 -12.5t24.5 -16.5t9 -32.5t17.5 -62.5t47.5 -106q27 -49 34 -87q4 -24 4 -45q0 -11 -1 -21 q-4 -28 -19.5 -49t-36.5 -35q-47 -33 -123 -43l-233 -49q-43 -10 -86 -18.5t-77 -15.5t-54.5 -10.5t-22.5 -3.5q-4 2 9.5 -6t44 -31.5t80 -67.5t120.5 -114q35 -35 60.5 -54t44 -27.5t31 -5.5t20.5 12q16 18 16 67q-14 31 -20 53q-4 18 2 31.5t35 7.5t53.5 -38.5t33.5 -75.5 q4 -22 4 -44q0 -21 -4 -45q-9 -46 -46 -81q-25 -23 -76 -29q-22 -3 -46 -3q-32 0 -70 5q-66 8 -140 30.5t-144.5 56.5t-132 77t-102.5 94q-61 76 -77 121q-12 33 -13 61q0 10 2 19zM276 822q4 -30 27 -63.5t47.5 -63t44 -49t17.5 -19.5q-2 -1 2 -1q6 0 24 2q30 3 75.5 21.5 t98 55t93.5 102.5q32 52 32 78q-1 7 -3 13q-12 26 -59 28h-15q-45 0 -111 -10q-78 -12 -172 -17q-61 -3 -83 -25q-18 -18 -18 -42q-1 -5 0 -10z" />
<glyph unicode="f" horiz-adv-x="823" d="M26 -350q-2 15 -2 30q0 50 21 105q27 72 53.5 93.5t52 19.5t46 -13.5t34 -2.5t19.5 52q3 22 3 59t-3 91q-4 90 -6 157.5t-11.5 123t-29 103.5t-58.5 99q-77 100 -77 216q0 120 112 253q37 43 81 98.5t92 105.5t96.5 86t91.5 41q5 1 11 1q36 0 66 -30q35 -35 58 -128 q33 -139 49 -232q9 -51 9 -88q0 -29 -6 -49q-11 -38 -48 -38q-6 0 -12 1q-47 7 -142 73q-94 63 -146 66h-9q-45 0 -63 -29q-16 -26 -16 -64q0 -11 1 -24q6 -54 29 -101t49 -89t63 -64q30 -17 70 -17q9 0 19 1q52 5 126 50q54 33 86 33q12 0 21 -5q30 -15 30 -58v-5 q-2 -47 -35.5 -112.5t-93.5 -120.5q-39 -37 -63.5 -46t-41.5 -3t-30.5 22.5t-29 29.5t-37 19.5t-56.5 -8.5q-35 -14 -36 -36.5t15.5 -56.5t40 -81t39.5 -112q12 -54 12 -122v-27q-3 -85 -40 -191q-37 -109 -88 -166.5t-102 -74.5q-26 -9 -51 -9t-48 9q-47 17 -76.5 59 t-38.5 106z" />
<glyph unicode="g" horiz-adv-x="1019" d="M20 110q5 33 23 105q10 43 31.5 71.5t43 52t38.5 46.5q19 24 19 58q0 30 -19 72q-19 44 -70 112q-16 21 -16 66v10q2 53 34.5 107t102 96t186.5 46q117 2 225 12q99 8 174 8h16q81 -1 123 -20q29 -14 29 -44q0 -14 -6 -31q-18 -55 -54 -74t-71.5 -25t-62.5 -12t-27 -35 q0 -20 20.5 -28.5t46 -14.5t48.5 -13t28 -22.5t-15.5 -45t-82.5 -81.5q-92 -76 -161.5 -100.5t-118.5 -30.5t-78 -13t-41 -48q-8 -29 4 -33t38 3t64.5 19.5t84.5 17.5q18 2 38 2q27 0 56 -4q49 -7 96 -40t96 -77t88 -94t60 -104q17 -40 17 -79q0 -12 -2 -25q-7 -51 -48 -97 t-127 -81t-178 -76t-179 -75.5t-164 -54.5q-64 -18 -115 -18q-10 0 -20 1q-57 4 -90 39q-30 34 -30 109v9q6 244 59 371t156 133q51 2 67.5 5t14.5 -11t-17.5 -54t-29.5 -120t-39 -142.5t-38.5 -99.5t-6 -45t56.5 19q33 18 89 33.5t116.5 33t115 37t84.5 46.5q25 22 25 51 q0 5 -1 9q-5 35 -64 81q-90 70 -144.5 117.5t-97.5 72.5t-83 26h-3q-39 0 -98 -24q-41 -16 -76 -43t-62.5 -50.5t-46 -38.5t-27.5 -10q-5 3 -5 18q0 8 1 19zM249 600q7 -22 44 -57t97 -51q38 -9 73 -9q21 0 42 3q54 10 88 46q22 22 22 58q0 21 -7 45q-18 68 -36.5 128 t-43.5 93q-20 28 -48 28q-5 0 -10 -1q-34 -6 -81 -72t-82 -103.5t-50 -61.5q-10 -17 -10 -33q0 -7 2 -13z" />
<glyph unicode="h" horiz-adv-x="1030" d="M52 -68q0 8 3 26q6 32 25 110q16 74 25.5 179t12.5 222q2 70 2 141q0 48 -1 94q-2 118 -6 214t-9.5 159.5t-7.5 75.5q-8 31 -18 72t-14 73t8 44q4 4 11 4q13 0 36 -17q47 -35 82 -53.5t57.5 -30.5t34.5 -23.5t18 -31t5 -52t-5 -89.5q-6 -85 -10 -133q-1 -9 -1 -16 q0 -35 14 -48q9 -8 26 -8q16 0 38 7q46 15 140 56q61 27 119.5 57.5t108.5 49.5q50 20 88 23h7q33 -1 57 -23q26 -26 37 -88q6 -36 6 -88q0 -38 -3 -84q-5 -71 -5 -135q0 -85 9 -158q16 -127 26 -212q4 -36 5 -64q-1 -39 -9 -65q-14 -44 -83 -44q-47 0 -80 -20.5t-55.5 -45 t-35 -45t-17.5 -20.5t-5 28.5t4 102.5t25.5 143.5t45 133t44 117.5t20.5 96t-26.5 70t-93.5 36q-102 12 -173 26.5t-118 14.5t-75 -21.5t-42 -81.5q-5 -19 -5 -41q0 -25 6 -54q11 -56 28.5 -118.5t35 -123t19.5 -109.5v-9q-1 -43 -17 -70q-17 -28 -65 -28h-6 q-53 0 -95 -20.5t-73 -44.5t-49 -46q-18 -21 -24 -21q-2 0 -2 7z" />
<glyph unicode="i" horiz-adv-x="604" d="M52 856q-11 14 -10 29q0 15 11 30q14 20 48 35t77 24t89 11q18 1 36 1q26 0 50 -2q40 -3 66.5 -13t29.5 -29q2 -18 17 -97t32.5 -185.5t31 -225.5t14.5 -216v-10q0 -90 -16 -146q-14 -47 -47 -47q-8 0 -16 3q-68 20 -120 23.5t-83 27t-37 89.5q-1 14 -1 30q0 65 18 181 q23 145 48 229t39.5 124t10.5 44t-37 -8q-36 -14 -60 -14q-9 0 -17 2q-26 8 -27 8q2 0 -28 14t-63.5 36.5t-55.5 51.5zM140 1158q-6 17 -6 32q0 16 6 30q12 28 28 37q16 8 52 17.5t78 12.5q14 1 28 1l56 -4q42 -6 71 -27q29 -23 44 -59q9 -22 9 -43q0 -13 -4 -27 q-10 -34 -52 -56q-31 -17 -86 -17q-20 0 -42 2q-86 8 -128 37.5t-54 63.5z" />
<glyph unicode="j" horiz-adv-x="679" d="M31 -276q-4 -26 -4 -46.5t4 -35.5q8 -31 41 -42q21 -6 56 -6q24 0 54 3q19 2 40 2q32 0 66 -5q56 -6 108 -13q46 -6 87 -6h12q46 1 76.5 20.5t44.5 63.5q6 22 6 55q0 31 -6 71q-12 82 -18 194.5t-9 235.5t-4 246t-4 224t-8.5 170t-17.5 85q-18 23 -62 42t-97 28 q-43 8 -87 8h-23q-57 -3 -98 -21q-27 -12 -50 -29.5t-37.5 -38t-15.5 -42t19 -39.5q25 -23 62 -33t76 -23.5t73.5 -38t54 -77.5t19.5 -143.5t-31 -233.5q-19 -79 -19 -146q0 -17 1 -32q6 -80 21.5 -142.5t34 -106.5t25.5 -69.5t-5.5 -32t-57.5 6.5q-47 12 -86 37.5t-71.5 51 t-58 46t-45 25t-32 -13t-18.5 -68.5q-8 -78 -16 -131zM269 1252q-2 9 -2 17q0 24 15 43q19 25 70 25h93t71 -8t41 -27q7 -11 7 -27q0 -13 -5 -30q-10 -37 -19.5 -73.5t-26.5 -59t-47 -26.5q-4 -1 -8 -1q-29 0 -71 25q-49 27 -80 67t-38 75z" />
<glyph unicode="k" horiz-adv-x="806" d="M13 1333q5 80 36 88q34 8 61 8q32 0 54 -11q41 -21 60 -63q20 -43 22 -97q1 -27 1 -51.5t-1 -46.5q-2 -44 -4 -71.5t8 -15.5q32 37 98 63q48 19 103 18q19 0 39 -2q76 -9 152.5 -67.5t129.5 -193.5q44 -113 44 -181v-14q-5 -70 -41 -102.5t-92 -37.5q-25 -2 -50 -2 q-29 0 -59 3q-54 6 -93 13.5t-39 -1.5q-1 -9 -1 -19q0 -42 29 -84q36 -52 89 -104.5t110.5 -103.5t96.5 -96t45 -83q1 -4 1 -8q0 -33 -44 -59q-66 -37 -112 -40h-11q-39 0 -65 18q-30 22 -53 62t-42.5 87t-42 96.5t-55.5 88.5q-61 76 -92 98t-40 14t-5 -35.5t10 -54.5 q34 -137 34 -212q0 -78 -24 -112q-22 -32 -58 -32t-71 10q-37 10 -58.5 46t-31.5 89t-10 117.5t2 129t5 125t3 105.5q-2 125 -14 264q-13 140 -21 258q-5 75 -5 134q0 35 2 65zM205 832q8 -46 45 -83.5t80 -37.5q20 0 58 -2q25 -1 52 -1h28q42 1 83 7t69 21q26 16 36 42 q3 8 3 17q0 21 -14 51q-29 57 -49 80q-22 24 -50 30q-15 4 -36 4q-18 0 -39 -2q-47 -6 -129 -6q-86 0 -116 -38q-23 -30 -23 -63q0 -9 2 -19z" />
<glyph unicode="l" horiz-adv-x="880" d="M27 1188q2 63 49 95q46 32 114 38q17 1 34 1q53 0 111 -14q77 -18 138 -51q25 -15 27 -87v-26q0 -64 -8 -148q-10 -102 -22 -218t-18 -218q-2 -33 -3 -62q1 -62 9 -112q12 -73 50 -87q43 -16 55 -28.5t25.5 -8.5t40 32t98.5 91q47 43 67.5 46t22.5 -19v-7q0 -22 -10 -58 q-12 -42 -28.5 -93t-34 -103.5t-25.5 -93.5q-13 -61 -63 -73q-17 -4 -35 -3q-37 1 -79 15q-64 22 -130 68.5t-109 97.5q-29 33 -42 107.5t-16 166.5q-2 46 -1 94q0 46 1 96q3 98 4 182v52q0 49 -1 85q-2 54 -17 59q-20 6 -55 26.5t-68.5 48t-57 57t-23.5 52.5z" />
<glyph unicode="m" horiz-adv-x="1161" d="M33 914q10 42 35.5 73t61.5 47q31 13 59 13q5 -1 9 -1q32 -2 52 -21q17 -16 17 -47q0 -6 -1 -13q-4 -41 15.5 -51.5t47 -5.5t56.5 14.5t45 5.5q51 -12 87 -23.5t65.5 -15.5t59.5 3t69 30t82 46t80.5 37.5t69.5 14.5t48 -25q53 -76 78 -116.5t31 -76.5q3 -18 3 -38.5 t-3 -43.5q-6 -46 -17 -132q-2 -20 -2 -42q-1 -41 7 -85q12 -68 29.5 -135.5t32.5 -129t15 -106.5q1 -46 -21 -72q-19 -23 -65 -23q-7 0 -14 1q-90 6 -131 8t-52.5 16.5t-1 50t22.5 109.5q10 63 10 136v24q-2 86 -18 163t-47 135t-76 77q-45 18 -69.5 19t-38 -21.5 t-21.5 -75.5t-20 -145q-4 -34 -5 -67q0 -54 13 -102q20 -77 40.5 -137.5t24.5 -100.5v-7q0 -35 -39 -51q-43 -19 -87 -23q-12 -1 -24 -1q-30 1 -56 9q-36 12 -56 40q-18 25 -19 64q0 7 1 15q2 49 9 134t11 171q2 49 2 94q0 34 -1 65q-3 73 -21 97q-35 50 -80 66q-15 6 -27 5 q-24 0 -37 -22q-15 -27 -15 -77v-6q1 -54 10 -120.5t22.5 -137t23 -134t9.5 -113t-19 -69.5q-31 -37 -70.5 -61.5t-75.5 -27.5h-7q-30 1 -52 25q-24 28 -24 95q0 68 2 169q1 67 1 135v69q-1 102 -8.5 193t-25.5 138q-13 35 -13 66q0 15 3 29z" />
<glyph unicode="n" horiz-adv-x="1069" d="M48 616q-1 26 -1 52q0 48 4 90q6 62 23.5 102.5t48.5 42.5q61 3 100 11q34 7 53 7h4q18 -1 20.5 -13.5t-7.5 -47.5t-7 -41t33.5 1t96 23.5t180.5 28.5q29 2 65.5 13.5t74.5 19.5q34 7 66 7h8q36 -1 63.5 -21.5t45 -64.5t19.5 -124t14.5 -159.5t24.5 -152.5 q13 -73 23 -135q7 -43 7 -78q1 -15 -1 -29q-4 -44 -28 -66q-16 -15 -44 -15q-12 0 -27 3q-30 5 -57 5q-17 0 -33 -2q-41 -5 -71.5 -8.5t-52 1t-32 28t-10.5 74.5t11 143q10 90 28.5 148.5t34.5 92.5t25.5 49t2 22.5t-35 10.5t-86.5 11q-88 12 -152.5 33.5t-106.5 25.5 q-6 1 -12 1q-34 0 -52 -21q-22 -25 -23 -104v-14q0 -44 11 -84q13 -46 31.5 -87t36 -78.5t22.5 -73.5q2 -12 2 -24q0 -24 -7 -48q-10 -36 -49 -75q-57 -56 -96 -74q-37 -17 -61 -17h-3q-25 1 -36 11.5t-13 6.5q-2 -2 -9.5 34.5t-17.5 97t-20 139.5t-17.5 160.5t-10.5 161.5z " />
<glyph unicode="o" horiz-adv-x="1099" d="M59 662.5q0 50.5 25 97.5t79 85t152 54q90 14 150.5 33.5t102.5 33t72 17.5q6 1 12 1q24 0 48 -12q30 -16 65.5 -53.5t88.5 -107.5q82 -106 134 -201.5t60 -177.5l2 -26q0 -66 -38 -122q-45 -66 -158 -114q-113 -47 -206 -93q-92 -45 -166 -67q-42 -12 -79 -13 q-27 0 -51 7q-56 16 -94 92q-37 76 -65.5 146.5t-47 125t-29 85t-12.5 28.5t-13 23.5t-21.5 66.5t-10.5 91.5zM323 560v-5q0 -31 11 -59q0 -4 5 -36t15.5 -76t24.5 -93t36.5 -86t52.5 -54q14 -8 29 -8q18 0 38 11q84 45 144 87t91 86q29 41 29 85v6q-2 47 -41 100 q-27 35 -38 76t-16.5 79t-10.5 69.5t-20.5 48t-45 16.5t-84.5 -27q-82 -39 -129 -76.5t-68.5 -73.5t-22.5 -70z" />
<glyph unicode="p" horiz-adv-x="1003" d="M39 -385q4 27 7 94.5t7 160.5t7 204.5t7.5 224.5t9.5 221.5t11 195.5t12.5 145.5t14.5 72.5q43 39 71.5 39t46 -19.5t29.5 -50.5t23.5 -53.5t26 -26.5t38.5 27q35 47 64.5 80t65.5 46q21 8 47 8q18 0 38 -4q49 -9 123 -46t110 -53.5t47 -28.5t8 -28.5t-8 -54.5 q-4 -27 -4 -68q0 -17 1 -35q2 -66 26 -179q12 -59 35 -103t40.5 -77t23.5 -57q2 -6 2 -12q0 -16 -13 -32q-16 -20 -64 -38t-138 -41q-137 -33 -219 -57.5t-131 -33.5q-24 -4 -42.5 -4t-31.5 4q-25 9 -45 44q-14 23 -16.5 8.5t1.5 -50.5t12.5 -86t16.5 -99.5t12 -91.5t0 -60 q-14 -63 -61 -105t-96 -56q-22 -5 -41 -5q-24 0 -45 9q-30 15 -30 56q0 7 1 15zM243 389q1 -53 16 -93t48 -60q19 -11 47 -11q20 0 45 6q88 20 162 40t119 48.5t54 73.5q2 8 2 16q0 42 -36 103q-43 74 -68.5 119t-49 67.5t-52.5 25.5q-7 1 -16 1q-24 0 -57 -6q-31 -5 -54 -5 q-11 0 -20 1q-27 4 -43 6t-27.5 -8t-23.5 -47q-8 -25 -20.5 -71t-19.5 -99q-6 -47 -6 -94v-13z" />
<glyph unicode="q" horiz-adv-x="1030" d="M22 452q-1 5 -1 10q0 55 15 112q17 61 39.5 121.5t43 119.5t31.5 115q8 55 44 74q32 17 74 17h14q50 -3 104 -22.5t100 -41t76 -39t30 -15.5q-4 4 7 -2t58 -16q23 -6 29 10t21.5 39.5t51.5 47.5t118 36q44 6 67 6h10q21 -2 24 -28q1 -7 1 -16q0 -26 -7 -72 q-9 -60 -16 -170q-7 -98 -7 -240v-39q1 -168 24 -410q16 -182 24.5 -299t8.5 -184.5t-8.5 -94t-23.5 -27.5h-2q-15 0 -38 14q-23 16 -51.5 34.5t-64.5 29.5q-19 6 -39 6q-18 0 -38 -5q-41 -10 -67 -10t-36 10q-15 14 -15 41q0 13 3 28q9 48 33.5 116.5t36.5 146.5 q12 73 12 141v6q-1 70 -13.5 113t-36.5 47h-4q-24 0 -58 -51q-61 -90 -145 -90q-19 0 -41 5q-109 27 -283 193q-57 55 -80.5 113.5t-24.5 119.5zM225 594q-1 -15 -1 -31q0 -46 8 -96q12 -68 34 -137q23 -70 54 -84q18 -7 38 -7q17 0 37 5q43 12 97.5 35.5t125.5 27.5 q47 2 65.5 22.5t20.5 51.5v7q0 29 -10 64q-12 40 -24.5 80.5t-22.5 80.5q-6 25 -6 48q0 14 2 27q1 9 1 17q0 39 -31 63q-38 29 -93 39q-29 5 -59 5q-28 0 -57 -4q-60 -9 -97 -36t-57.5 -73t-24.5 -105z" />
<glyph unicode="r" horiz-adv-x="872" d="M61 258q0 102 13.5 223t29 226.5t27.5 175t10 69.5q-6 0 8.5 2t61.5 15q23 6 29 4t11 -17.5t17.5 -49.5t46.5 -91q23 -39 34 -53t22.5 -9t31 24.5t59.5 50t106.5 68.5t172.5 77q105 39 155 52q29 8 45 8q11 0 15 -4q3 -3 3 -8q-1 -11 -15 -29q-20 -28 -52 -71.5 t-66.5 -99t-53.5 -119.5q-18 -63 -51 -89.5t-73 -30.5q-11 -1 -23 -1q-29 0 -61 7q-44 10 -87 21.5t-82 16.5q-9 1 -17 1q-28 0 -48 -13q-41 -25 -46 -33t5 -33q11 -24 25 -82q13 -51 12 -152v-29q-2 -123 -2 -175.5t-14.5 -65.5t-50.5 -8q-12 2 -28 2q-32 0 -81 -7 q-4 -1 -8 -1q-43 0 -61 60q-20 66 -20 168z" />
<glyph unicode="s" horiz-adv-x="1017" d="M29 190q-1 4 -1 10q0 24 18 50q22 31 73 69q20 16 31.5 27.5t24.5 13.5t31.5 -8t55.5 -37q27 -20 39 -32.5t19.5 -19.5t15.5 -11t28.5 -8t58.5 -12.5t105 -20.5q41 -8 69 -8q20 0 35 4q34 10 42 34.5t-3.5 56.5t-30.5 60.5t-43 50t-38 23.5q-109 14 -179.5 22.5 t-118.5 20.5t-81 38t-65 75q-31 45 -31 93q0 7 1 13q5 56 38 109t91 99t132 81q80 37 177.5 37t184.5 -27.5t151.5 -78t78.5 -111.5q3 -16 3 -31q-1 -29 -13 -53q-20 -37 -52 -63.5t-69 -39t-61 -7.5q-26 5 -25 32q0 25 37 70q20 27 0.5 54.5t-62.5 50t-99 36.5 q-55 14 -105 15h-6q-46 0 -78 -15q-34 -16 -35 -53q0 -35 20.5 -78t63.5 -84t108.5 -76t155.5 -55q109 -27 168 -63.5t79 -80.5q11 -25 11 -50q-1 -19 -7 -38q-14 -45 -54.5 -87t-102 -76.5t-133.5 -57.5q-143 -44 -270 -44h-26q-138 5 -236 65q-55 33 -86 60.5t-35 55.5z " />
<glyph unicode="t" horiz-adv-x="780" d="M43 938q2 45 3 62.5t5 18.5t15.5 -11.5t29.5 -25.5q18 -14 48 -24q21 -8 51 -7q11 0 24 1q43 4 56.5 24.5t5 51.5t-28 64.5t-41 62.5t-38.5 49.5t-15 22.5t6 2t29.5 1t82 4t162.5 15q26 3 45 3q33 0 43 -9q16 -14 1 -40.5t-48 -62.5t-59.5 -74t-33.5 -73q-1 -6 -1 -11 q0 -28 31 -48q35 -23 41 -22t13 8q8 8 28 15q8 3 21 2q24 0 65 -7q38 -7 64 -7q18 0 30 3q31 8 41 10t10 -13.5t6 -70.5q1 -12 1 -22q0 -40 -18 -65q-22 -32 -58 -43q-24 -7 -52 -7q-16 0 -32 2q-46 6 -89 24q-18 7 -31 7q-19 0 -29 -15q-17 -26 -23.5 -79.5t-7.5 -123 t-11 -139.5q-5 -37 -5 -68q0 -28 4 -51q9 -49 28.5 -79.5t43 -45t44.5 -12.5q41 4 61.5 55.5t48.5 128.5q10 27 28.5 24t37 -23.5t34.5 -53.5q15 -34 19 -70q1 -10 1 -19q0 -26 -8 -51q-11 -34 -46 -56q-54 -34 -106 -52q-47 -17 -100 -16h-12q-60 2 -131 26.5t-161 75.5 q-29 16 -33 77q-1 19 -1 39q0 46 6 100q9 78 24 162q16 82 26 146q9 53 9 84v11q-2 31 -27 4q-34 -38 -59 -38h-3q-26 3 -40.5 36t-20.5 89q-5 42 -5 91q0 16 1 33z" />
<glyph unicode="u" horiz-adv-x="942" d="M28 326q-5 38 -5 87q1 53 7 119q12 126 46 318q4 20 37.5 59t75.5 68t82 37q7 1 14 1q30 0 45 -30q9 -19 9 -43q1 -21 -7 -46q-16 -52 -38 -117.5t-34 -143.5q-4 -26 -4 -53q0 -54 16 -113q25 -90 37.5 -136t30.5 -64.5t52 -17.5t100 7q41 4 70.5 7t52 22.5t39 63.5 t30.5 130q5 30 5 61q0 28 -4 56q-9 60 -23.5 115t-30 104t-18.5 85t11.5 54.5t59.5 16.5q33 -2 65.5 -46t60.5 -113t50.5 -157t36.5 -179q15 -91 21 -177q3 -43 2 -81q0 -38 -2 -72q-6 -68 -26 -107q-19 -37 -51 -37h-3q-70 6 -101.5 15.5t-43 24.5t-8.5 38.5t3 58.5 q0 23 -3 17t-12 -26.5t-26.5 -49.5t-46.5 -49.5t-72 -25.5q-7 -1 -15 -1q-38 0 -87 21q-86 35 -154.5 56t-119 49t-82.5 71t-42 123z" />
<glyph unicode="v" horiz-adv-x="1257" d="M42 920q-3 13 -3 23q0 17 7 23q11 12 30.5 9.5t23.5 -2.5q39 -4 57.5 -7t37 -3t46 6t83.5 22q9 2 17 2q25 -1 45 -25q26 -32 43 -90.5t31.5 -134t31 -150.5t37 -140.5t53.5 -102.5q47 -55 66.5 -58t36.5 46t43 150.5t87 252.5q41 100 63.5 155.5t39.5 79.5q16 24 32 26 q2 0 4 1q14 1 36 -7q26 -8 68 -17q24 -5 57 -5q25 0 54 3h10q43 0 55 -33q6 -17 6 -39q0 -27 -10 -61q-16 -64 -55.5 -148t-93 -172t-114 -175t-118.5 -158.5t-108.5 -119.5t-83.5 -59q-6 -2 -12 -2q-27 0 -63 34q-44 42 -95 113.5t-105 165t-105.5 185.5t-97.5 173t-79 130 q-51 75 -58 109z" />
<glyph unicode="w" horiz-adv-x="1110" d="M65 849q0 64 23 97q66 99 124 99q8 -1 16 -3q64 -16 106 -151q12 -45 16 -109.5t4 -132t-2 -129.5q-1 -20 -1 -38q0 -36 3 -61q4 -38 14.5 -44t34.5 39q37 66 65 134t56 116q26 47 56 59q6 3 13 3q25 0 56 -36q25 -31 46.5 -81t38 -104t30.5 -106.5t27.5 -85t26.5 -41 t28 24.5q11 26 11 70q0 13 -1 27q-4 64 -15.5 139t-22.5 153q-9 66 -9 120v20q3 62 23 97q16 29 52 29q9 0 19 -2q38 -7 64 -7q13 0 22 2q29 5 40 8t8 -5t-8 -43t-7 -107v-25q0 -67 8 -171q14 -178 30 -290q11 -81 11 -138q0 -22 -2 -40q-6 -64 -46 -88.5t-136 -24.5 q-78 0 -127 1t-80 16t-46.5 47t-23.5 93q-6 41 -14 51.5t-18.5 2t-23.5 -31t-28.5 -48t-34 -49t-38.5 -35.5q-31 -18 -57.5 -40t-51.5 -28q-6 -1 -12 -1q-18 1 -38 15q-26 20 -52 84q-14 31 -36 97.5t-46.5 149.5t-47 175t-34.5 175q-13 86 -13 152z" />
<glyph unicode="x" horiz-adv-x="991" d="M15 132q-1 1 -1 3q0 5 16 7q20 3 74 24q47 18 87 59t72 87t57.5 91.5t44.5 73.5q22 30 22 61q1 7 -1 15q-6 39 -36.5 80t-81.5 84t-114 90q-2 2 -26 12t-46.5 30.5t-32.5 52.5q-3 9 -3 18q0 26 20 57q26 43 58 54q18 6 37 6q13 0 27 -3q32 -8 63.5 -29.5t53.5 -43.5 q45 -47 83 -115t69.5 -118t58.5 -64q5 -2 9 -2q22 0 40 53q25 68 29 122t14 91t39 55q26 16 89 16h14q70 -4 124 -28.5t80 -56.5q19 -24 19 -47q0 -7 -2 -15q-8 -31 -64 -45q-49 -12 -91 -52t-68.5 -101.5t-33.5 -139.5q-2 -20 -2 -41q0 -60 15 -125q12 -55 33.5 -82.5 t45 -39t47.5 -12.5t42 -6t29.5 -18.5t9.5 -48.5q-4 -49 -27.5 -82.5t-58.5 -53t-73 -25.5q-16 -3 -32 -3q-19 1 -37 5q-32 8 -50.5 30.5t-12.5 57.5q3 18 3 37q0 34 -10 68q-15 52 -45 86t-66 42q-7 1 -13 1q-29 0 -55 -28q-41 -43 -79 -110.5t-77 -119.5t-82 -68 q-9 -3 -18 -3q-35 0 -74 48q-49 57 -78 79.5t-34 29.5z" />
<glyph unicode="y" horiz-adv-x="1245" d="M-16 -100q-8 8 -8 14q0 7 8 12q16 11 77 21q90 14 157 27q58 12 96 12h11q40 -2 53 -22q6 -9 6 -25q0 -18 -7 -43q-15 -47 -15 -75q0 -18 6 -29q17 -25 51 -13t76 55t68.5 102.5t26.5 126t-47 125.5q-72 88 -117 148.5t-84 117t-79 121t-97 162.5q-16 27 -40 46.5 t-43.5 33.5t-28.5 25.5t5.5 24t58.5 25.5t128 32q41 9 68 9q9 0 16 -1q30 -4 51.5 -32t45.5 -83t69 -145q25 -51 45 -106.5t38.5 -101.5t36 -80t37 -43t42 11.5t50.5 81.5q45 94 60.5 167t17.5 128q1 16 1 30q0 36 -4 64q-2 19 -2 35.5t2 29.5q5 25 26.5 38.5t75.5 19.5 q28 3 55 3q64 0 115 -17q71 -25 104 -63q23 -27 23 -55q0 -11 -3 -22q-14 -40 -86 -61q-55 -16 -101 -101t-94 -206t-101.5 -260t-122.5 -264q-41 -74 -74 -143.5t-63.5 -125t-60.5 -92.5t-63 -41h-7q-29 0 -64 29q-39 33 -86 113q-35 57 -82 100t-93 73.5t-83 51t-51 35.5z " />
<glyph unicode="z" horiz-adv-x="1026" d="M28 928q10 30 51 34h6q42 0 126 -47q32 -17 89 -18q10 0 18 1q70 3 152.5 15.5t169.5 28.5q86 16 158 24q49 6 86 6q16 0 32 -1q46 -4 49 -33q1 -13 1 -26q0 -80 -32 -155q-37 -87 -96.5 -164t-129 -143.5t-129 -120t-99.5 -91.5q-38 -37 -38 -60q0 -45 39 -45h3 q38 2 92.5 27.5t118 61.5t119.5 58q48 19 84 20q7 0 13 -1q41 -4 50 -57q12 -80 39 -130q26 -52 36 -78q3 -8 4 -14q0 -14 -16 -20q-15 -5 -59 -5q-22 0 -50 1q-16 1 -34 1q-45 0 -102 -4q-79 -5 -166 -11.5t-175 -10.5q-34 -2 -65 -2q-51 1 -97 5q-74 6 -127 24t-69 55 q-27 59 -39 88t-9 43.5t23.5 20.5t58.5 18.5t96 39t136 79.5q156 106 238 161.5t108 90.5q15 20 16 38q0 14 -8 24q-20 26 -65 75q-37 39 -94.5 39t-119 -18.5t-117.5 -45t-93 -40.5q-7 -3 -15 -3q-22 1 -48 21q-36 28 -66 72q-28 43 -46 92q-11 32 -12 56q1 13 4 24z" />
<glyph unicode="{" />
<glyph unicode="|" />
<glyph unicode="}" />
<glyph unicode="~" />
<glyph unicode="&#xa1;" d="M437 1241q-3 76 19.5 140.5t79 111.5t156.5 72q74 16 119 -37t65.5 -149.5t20.5 -221.5t-14.5 -252t-43 -240.5t-63.5 -187.5q-31 -61 -67.5 -69.5t-68.5 13t-49 61.5t-7 75q10 37 -1.5 94.5t-33 128t-48 149.5t-44 157.5t-20.5 154.5zM573.5 179.5q-2.5 23.5 4 42 t27 28.5t61.5 8t79.5 -30.5t61 -64.5t20.5 -69t-43 -41q-82 -16 -139 6.5t-65 71.5q-4 25 -6.5 48.5z" />
<glyph unicode="&#xa2;" horiz-adv-x="890" d="M37 339.5q-4 91.5 2 195.5t21.5 189t56.5 144.5t116.5 86t204.5 14.5q135 -14 213 -14.5t115 -9.5t41 -40t-8 -106q-12 -86 -22.5 -129t-22 -55.5t-23.5 -1t-27.5 33t-37 48t-52.5 42.5q-35 18 -82 41t-92 29t-80.5 -13.5t-48.5 -82.5q-12 -63 -18 -97t-7 -67t5 -78 t20 -131q8 -45 31 -90t61.5 -74t95 -31t132.5 41q51 29 70.5 45.5t30.5 14.5t26.5 -22.5t60.5 -63.5q59 -59 35.5 -97t-108 -56.5t-221 -16.5t-298.5 24q-66 8 -105.5 52.5t-60 114t-24.5 161z" />
<glyph unicode="&#xa3;" horiz-adv-x="1306" d="M53 1253q-18 27 13.5 62t89 63.5t126 46t127 11.5t92.5 -42t21 -114q-14 -78 -34.5 -195.5t-39 -246.5t-27.5 -255t3 -221.5t50 -145.5t114 -28q76 23 135 29t104 7t75 1t48.5 13.5t23.5 42t-1 88.5q-6 57 22.5 88.5t72.5 43t91 6.5t81 -19.5t42 -34t-29 -37.5 q-41 -20 -60 -49t-27.5 -63t-10.5 -69.5t-7 -68.5t-19.5 -62.5t-45.5 -50.5q-29 -18 -89 -33.5t-137 -25.5t-162 -14.5t-163.5 -3.5t-143 9.5t-99.5 22.5q-72 31 -121 89.5t-74.5 129t-24.5 145t31 140.5q63 135 89 235.5t27 173t-17.5 124t-45 88t-55.5 65t-45 55.5z M342 972.5q2 20.5 41 39t131 28.5q45 6 119 14.5t149.5 11.5t139 -2t88.5 -28q18 -16 27.5 -23t19.5 -17.5t24.5 -27t42.5 -50.5q8 -10 -24.5 -17.5t-89 -11.5t-126 -5t-133 -3t-111.5 -3.5t-60 -3.5q-29 -6 -70 1.5t-79 22.5t-64.5 34.5t-24.5 40z" />
<glyph unicode="&#xa4;" />
<glyph unicode="&#xa5;" horiz-adv-x="1187" d="M28.5 1333.5q12.5 57.5 90.5 81.5q78 25 127 -7t82.5 -89t57.5 -128t52 -122q18 -35 46 -73t58.5 -69.5t63.5 -54t60.5 -25.5t48 18.5t26.5 76.5q8 72 10.5 150.5t14.5 146.5t43 116t98 56q68 8 126.5 -10.5t93 -56t38.5 -93t-39 -121.5q-47 -74 -97 -141t-101 -144 t-99.5 -170t-93.5 -218q-43 -119 -43 -178.5t22.5 -84t60.5 -26.5t70 -5t49 -20.5t1 -72.5q-8 -31 -32.5 -45.5t-63.5 -19.5t-89.5 -3t-109.5 6q-74 4 -142.5 3t-113.5 8.5t-58.5 38t21.5 92.5q20 37 51 52t63 25.5t62.5 22.5t51 42t26.5 85t-8 149q-10 66 -18.5 108 t-19.5 69.5t-29.5 50t-52.5 50t-87 67.5t-131 106q-47 39 -97 103.5t-76 130t-13.5 123z" />
<glyph unicode="&#xa6;" />
<glyph unicode="&#xa7;" />
<glyph unicode="&#xa8;" />
<glyph unicode="&#xa9;" horiz-adv-x="1925" d="M15.5 963.5q7.5 48.5 90.5 78.5q41 14 82 28.5t74 26t54 17.5l22 6l18 -4q17 -4 44.5 -11t62.5 -16.5t72 -19.5q84 -23 190 -51q-53 2 -107 6q-47 4 -102 8t-108 10q-55 4 -112.5 -7t-94.5 -34.5t-41 -53t47 -62.5q55 -31 88 -46.5t56.5 -19.5t47 0t60.5 8q37 6 83 18.5 t88 26t71.5 24.5t33.5 13q2 0 -23.5 -13t-66.5 -33.5t-92 -44t-99 -43t-89 -30t-62 -6.5q-63 16 -124.5 48t-117.5 79q-53 49 -45.5 97.5zM367 309q-10 43 2 84t30.5 74t35 54.5t18.5 21.5q25 14 49 32q23 16 49.5 35t54.5 39q68 47 154 105l-66 -66q-29 -29 -65.5 -67.5 t-71.5 -77.5q-37 -39 -63.5 -91.5t-31.5 -95.5t15.5 -65.5t79.5 0.5q57 25 89 41t50.5 32.5t29.5 37t30 53.5q20 31 37.5 70.5t30 75.5t20.5 62.5t8 30.5q0 2 -4 -24.5t-13.5 -68.5t-20.5 -92t-24.5 -97t-30 -84t-32.5 -49q-53 -41 -114.5 -71t-133.5 -44q-35 -6 -52 1 t-27.5 25.5t-16.5 48t-16 70.5zM442.5 1566.5q1.5 69.5 22.5 139.5q10 35 24.5 48t36 13t51 -8t70.5 -18t72 -39t52.5 -59.5t32.5 -55t11 -26.5l3 -17q3 -18 7 -46t11.5 -62.5t13.5 -71.5q14 -86 35 -195q-18 47 -39 99q-16 43 -37 96t-39 104t-53 98.5t-71 71t-64.5 13 t-34.5 -71.5t-5 -97t7 -59.5t18.5 -43t32.5 -50.5t51 -67.5t60.5 -69.5t51 -54.5t25.5 -23.5q2 -2 -20.5 16.5t-58 46t-77.5 63.5t-80 72t-65.5 68.5t-31.5 53.5q-14 63 -12.5 132.5zM834 874q-10 0 24.5 -6t86.5 -11t106.5 -4t83.5 17l-41 -82l-17 35l-24 -41l-33 54 l-31 -31l-39 35l-26 -31l-35 35l-35 -25q-6 14 -12 27q-4 10 -7 19t-1 9zM858 958v76q0 -4 11.5 -19.5t27.5 -31.5l41 -45zM897 776l43 -24l27 28l28 -30l39 16l-4 -35q-20 -10 -40.5 -11t-38 3t-31 9t-19.5 9zM940 258q0 27 2 29l3 17q3 18 9.5 45.5t14.5 62t16 71.5 q20 84 43 193q0 -53 -2 -107q-2 -47 -4 -103t-4 -110q-2 -55 12 -111.5t38 -92t54.5 -38.5t59.5 52t42 88t15 57.5t-3 48t-11 58.5q-4 37 -18.5 83t-29 87t-26.5 69.5t-14 32.5q-2 2 12 -23.5t35.5 -65.5t47 -89t47 -97t34 -88t8.5 -61q-25 -133 -113 -248q-25 -27 -43 -34 t-37.5 1.5t-44 28t-57.5 43.5q-35 25 -52.5 63t-25.5 74.5t-8 63.5zM981 1574q2 42 14 60q35 55 84 104.5t111 86.5q31 18 51.5 17t35.5 -15.5t30.5 -41t38.5 -61.5t25.5 -77.5t-2.5 -79.5t-14 -62.5t-12 -25.5l-10 -15q-10 -16 -25.5 -39.5t-35 -53.5t-39.5 -60 q-49 -72 -109 -164q16 47 39 98q16 43 39 95.5t45 101.5q20 49 27.5 107.5t-1.5 100.5t-37 55t-75 -28t-70.5 -67.5t-35 -48t-15.5 -44t-10 -59.5q-8 -37 -11 -84t-3 -91t1 -76t1 -36q0 -2 -4 27t-10.5 74t-12.5 100t-9 107.5t-1 94.5zM1026 934q23 23 41 43 q16 16 28.5 30.5t12.5 18.5v-76zM1169 1038q0 -2 15.5 22.5t40 63.5t55.5 85t62.5 87t61.5 72t50 37q129 41 272 16q35 -6 50.5 -19t17.5 -33.5t-3 -51.5t-11 -72q-6 -43 -31 -76.5t-53.5 -58.5t-52 -38t-25.5 -13l-18 -5q-17 -5 -43.5 -13.5t-61.5 -17.5t-70 -19 q-84 -23 -190 -54q45 25 94 49q41 23 92.5 47.5t98.5 47.5q49 25 92 63.5t63.5 77.5t8 66.5t-73.5 27.5q-63 0 -98 -4t-58.5 -13t-41 -24.5t-46.5 -38.5t-62.5 -57.5t-62.5 -67t-49.5 -57.5t-22.5 -29zM1214 748q45 -23 97 -46q41 -20 93 -43.5t99 -46.5q49 -25 107.5 -34 t100.5 -0.5t56.5 35t-22.5 75.5q-41 49 -65.5 74.5t-46 38t-44 16.5t-59.5 12t-84 13.5t-91 7.5t-76 3t-36 1q-2 0 26.5 3t75 7t101.5 8.5t107.5 5.5t94.5 -3.5t60 -16.5q111 -76 180 -205q16 -31 16.5 -50t-15 -34.5t-42 -30t-63.5 -34.5q-37 -23 -79 -24t-79 6.5t-62 17.5 l-26 10l-16 10q-15 11 -37.5 27t-51 36.5t-59.5 43.5q-70 51 -160 117z" />
<glyph unicode="&#xaa;" horiz-adv-x="1003" d="M65.5 814q12.5 26 57.5 56.5t137 67.5q215 84 340 107.5t186.5 -4t71.5 -99.5t-6 -176q-12 -72 5 -156t37.5 -169t34 -163.5t-4 -138t-78 -91.5t-184.5 -23q-190 12 -315.5 12t-193 17.5t-81 68.5t21.5 168q18 61 70.5 99t121 63.5t143.5 44t136.5 39t99 49t33.5 76.5 q-4 55 -5 93t-13 61.5t-43 31.5t-92 4q-100 -8 -148.5 -41t-65 -67.5t-13 -62.5t5.5 -24q-145 29 -213 70q-29 18 -43.5 39.5t-2 47.5zM301 204q-2 -11 2 -9t28.5 -17.5t60.5 -33t76 -4t73 68.5q23 41 55.5 69.5t63 47t53 30t22.5 16.5t-27.5 5t-97.5 -2q-104 -4 -159.5 -5 t-82 -5.5t-32.5 -14.5t-8 -31q-4 -23 -10.5 -45t-10.5 -40.5t-6 -29.5z" />
<glyph unicode="&#xab;" />
<glyph unicode="&#xac;" />
<glyph unicode="&#xad;" horiz-adv-x="999" d="M90 563.5q2 20.5 41 39t131 28.5q45 6 119 14t149.5 11t139 -2t88.5 -27q18 -16 27.5 -23.5t19.5 -18t24.5 -26.5t42.5 -51q8 -10 -24.5 -17.5t-89 -11.5t-126 -5t-133 -3t-111.5 -3t-60 -3q-29 -6 -70 1t-79 22.5t-64.5 35t-24.5 40z" />
<glyph unicode="&#xae;" />
<glyph unicode="&#xaf;" />
<glyph unicode="&#xb0;" />
<glyph unicode="&#xb1;" />
<glyph unicode="&#xb2;" horiz-adv-x="1085" d="M47 1128.5q-10 47.5 11.5 87t86 64.5t191.5 18q190 -8 299.5 -13t175.5 -28.5t110 -77t103 -157.5q27 -47 -6 -121t-96.5 -159t-142.5 -171t-143.5 -158.5t-101 -121.5t-14.5 -60q49 -23 94 -14.5t85 31t75 52.5t66.5 49.5t58.5 21.5t51 -29q68 -88 71 -149.5t-38 -103.5 t-116.5 -65.5t-166 -33.5t-186.5 -9t-178 7t-140.5 16t-74.5 19q-43 23 -59.5 67.5t-8.5 90.5t41 84t92 50q74 14 151 68.5t147.5 130.5t127 162t88 164t32.5 138t-40 83q-35 20 -83 48t-95 40t-87 -3.5t-60 -80.5q-20 -68 -59.5 -99.5t-78.5 -42t-66.5 -4t-23.5 14.5 q0 2 -19.5 31.5t-41 72.5t-31.5 90.5z" />
<glyph unicode="&#xb3;" horiz-adv-x="1177" d="M39 1205.5q-2 29.5 15.5 52t62.5 30.5t148.5 26.5t230.5 37t258 34t233.5 15.5t156.5 -19.5t25 -66.5q-29 -49 -72.5 -110.5t-89.5 -127t-89.5 -128t-71 -113t-33.5 -80t23 -29.5q41 0 97 -6t102 -32.5t70.5 -82t6.5 -155.5t-35.5 -171t-50.5 -117t-88 -71.5t-150 -34.5 q-96 -8 -187 -25.5t-162.5 -26.5t-119 0t-53.5 56q-6 45 -36.5 100.5t-51 103.5t-13.5 82t79 38q37 2 53 8t21.5 12.5t5.5 9.5t8 -1t30.5 -16.5t69.5 -37.5q55 -29 109.5 -55t109 -40.5t105.5 -10.5t98 39q20 14 27.5 48t0 74t-24.5 81t-45 69.5t-62.5 38.5t-75.5 -8 q-55 -27 -99.5 -16.5t-77 40t-51 71.5t-19.5 83t16.5 72t56.5 39q55 10 86.5 32.5t50 51t29 60.5t22.5 63q20 55 13 73.5t-36.5 13.5t-77.5 -28t-106.5 -48.5t-124.5 -47t-129 -25.5q-31 -2 -63.5 14.5t-60 42t-45 57.5t-19.5 61.5z" />
<glyph unicode="&#xb4;" />
<glyph unicode="&#xb6;" />
<glyph unicode="&#xb7;" />
<glyph unicode="&#xb8;" />
<glyph unicode="&#xb9;" horiz-adv-x="872" d="M48 186.5q1 22.5 20.5 27.5t66.5 -13q43 -16 86 -27.5t77 -14.5t53.5 3t17.5 22q-16 90 -23.5 191.5t-9.5 200t0 188.5t5 159.5t4 112.5t-3 47q-31 31 -60.5 23t-58 -33.5t-55.5 -59.5t-48.5 -55.5t-37.5 -20.5t-25 46q-27 135 27.5 238.5t181.5 162.5q63 31 102.5 34 t67 -12t51 -44t56.5 -64q29 -31 36 -121t0.5 -205.5t-18.5 -243.5t-21.5 -234.5t-10.5 -177t18 -70.5q55 -4 104 -3t84 -6.5t49.5 -27t-0.5 -64.5q-14 -45 -7 -71.5t4 -40t-34.5 -14.5t-123.5 8q-92 8 -179.5 -9.5l-160 -32t-122.5 -11.5t-69 57q-18 51 -31.5 92t-12.5 63.5 z" />
<glyph unicode="&#xba;" horiz-adv-x="1099" d="M59 662.5q0 50.5 25 97.5t79 85t152 54q90 14 150.5 33.5t102.5 33t72 17.5t59.5 -11.5t65.5 -53t89 -107.5q82 -106 134 -201.5t60.5 -177.5t-36.5 -148.5t-158 -113.5t-206 -93t-166.5 -67.5t-130 -5.5t-93.5 92t-65.5 146.5t-47 125t-29 85t-12.5 28.5t-13 23.5 t-21.5 66.5t-10.5 91.5zM323 560q-1 -34 11 -64q0 -4 5 -36t15.5 -76t24.5 -93t36.5 -86t52.5 -54t67 3q84 45 144 87t91 86t29 91t-41 100q-27 35 -38 76t-16.5 79t-10.5 69.5t-20.5 48t-45 16.5t-84.5 -27q-82 -39 -129 -76.5t-68.5 -73.5t-22.5 -70z" />
<glyph unicode="&#xbb;" />
<glyph unicode="&#xbc;" horiz-adv-x="3737" d="M48 186.5q1 22.5 20.5 27.5t66.5 -13q43 -16 86 -27.5t77 -14.5t53.5 3t17.5 22q-16 90 -23.5 191.5t-9.5 200t0 188.5t5 159.5t4 112.5t-3 47q-31 31 -60.5 23t-58 -33.5t-55.5 -59.5t-48.5 -55.5t-37.5 -20.5t-25 46q-27 135 27.5 238.5t181.5 162.5q63 31 102.5 34 t67 -12t51 -44t56.5 -64q29 -31 36 -121t0.5 -205.5t-18.5 -243.5t-21.5 -234.5t-10.5 -177t18 -70.5q55 -4 104 -3t84 -6.5t49.5 -27t-0.5 -64.5q-14 -45 -7 -71.5t4 -40t-34.5 -14.5t-123.5 8q-92 8 -179.5 -9.5l-160 -32t-122.5 -11.5t-69 57q-18 51 -31.5 92t-12.5 63.5 zM1161 43q-4 27 19.5 99.5t63.5 166.5t90 201.5t101 206t98.5 177.5t79.5 118q49 57 90 100t68 62.5t36 10.5t-5 -55q-8 -27 -33 -87t-59.5 -142t-74.5 -178t-81 -193.5t-77 -188.5t-62 -161q-37 -98 -79 -147t-80 -60.5t-64.5 9t-30.5 61.5zM2681.5 364.5q-3.5 32.5 2 60.5 t18 51t30.5 50q12 16 34.5 81t53 150t70.5 180t89.5 174t105.5 131t122 50q96 -2 166.5 13.5t115.5 15.5t65.5 -33t18.5 -131q-2 -66 -9 -144.5t-15 -157.5t-14.5 -151.5t-5.5 -128t12.5 -85t35.5 -21.5q37 12 52.5 19.5t18.5 5.5t-1 -17.5t-2 -50.5t13.5 -67.5t18.5 -57.5 t4 -40t-32 -15t-55.5 1t-46 -2t-29.5 -11.5t-6 -28.5q6 -27 16.5 -58.5t15.5 -59.5t-4.5 -46t-43.5 -18q-27 0 -59 -16.5t-62.5 -29t-54 -10.5t-31.5 41t7 75t25.5 68.5t3 59.5t-58.5 47q-35 12 -88 12t-113.5 -6t-122 -14t-113.5 -9t-88 9t-44 39q-12 43 -15.5 75.5z M2947 465q-2 -29 43 -41t102 -9t109.5 22.5t64.5 54.5q8 23 18.5 73.5t17.5 112t9 127t-5 119t-24.5 86t-50.5 28.5t-66.5 -42t-64 -96t-58.5 -125.5t-48.5 -130t-32.5 -112t-14 -67.5z" />
<glyph unicode="&#xbd;" horiz-adv-x="3663" d="M48 186.5q1 22.5 20.5 27.5t66.5 -13q43 -16 86 -27.5t77 -14.5t53.5 3t17.5 22q-16 90 -23.5 191.5t-9.5 200t0 188.5t5 159.5t4 112.5t-3 47q-31 31 -60.5 23t-58 -33.5t-55.5 -59.5t-48.5 -55.5t-37.5 -20.5t-25 46q-27 135 27.5 238.5t181.5 162.5q63 31 102.5 34 t67 -12t51 -44t56.5 -64q29 -31 36 -121t0.5 -205.5t-18.5 -243.5t-21.5 -234.5t-10.5 -177t18 -70.5q55 -4 104 -3t84 -6.5t49.5 -27t-0.5 -64.5q-14 -45 -7 -71.5t4 -40t-34.5 -14.5t-123.5 8q-92 8 -179.5 -9.5l-160 -32t-122.5 -11.5t-69 57q-18 51 -31.5 92t-12.5 63.5 zM1161 43q-4 27 19.5 99.5t63.5 166.5t90 201.5t101 206t98.5 177.5t79.5 118q49 57 90 100t68 62.5t36 10.5t-5 -55q-8 -27 -33 -87t-59.5 -142t-74.5 -178t-81 -193.5t-77 -188.5t-62 -161q-37 -98 -79 -147t-80 -60.5t-64.5 9t-30.5 61.5zM2625 1128.5q-10 47.5 11.5 87 t86 64.5t191.5 18q190 -8 299.5 -13t175.5 -28.5t110 -77t103 -157.5q27 -47 -6 -121t-96.5 -159t-142.5 -171t-143.5 -158.5t-101 -121.5t-14.5 -60q49 -23 94 -14.5t85 31t75 52.5t66.5 49.5t58.5 21.5t51 -29q68 -88 71 -149.5t-38 -103.5t-116.5 -65.5t-166 -33.5 t-186.5 -9t-178 7t-140.5 16t-74.5 19q-43 23 -59.5 67.5t-8.5 90.5t41 84t92 50q74 14 151 68.5t147.5 130.5t127 162t88 164t32.5 138t-40 83q-35 20 -83 48t-95 40t-87 -3.5t-60 -80.5q-20 -68 -59.5 -99.5t-78.5 -42t-66.5 -4t-23.5 14.5q0 2 -19.5 31.5t-41 72.5 t-31.5 90.5z" />
<glyph unicode="&#xbe;" horiz-adv-x="4042" d="M39 1205.5q-2 29.5 15.5 52t62.5 30.5t148.5 26.5t230.5 37t258 34t233.5 15.5t156.5 -19.5t25 -66.5q-29 -49 -72.5 -110.5t-89.5 -127t-89.5 -128t-71 -113t-33.5 -80t23 -29.5q41 0 97 -6t102 -32.5t70.5 -82t6.5 -155.5t-35.5 -171t-50.5 -117t-88 -71.5t-150 -34.5 q-96 -8 -187 -25.5t-162.5 -26.5t-119 0t-53.5 56q-6 45 -36.5 100.5t-51 103.5t-13.5 82t79 38q37 2 53 8t21.5 12.5t5.5 9.5t8 -1t30.5 -16.5t69.5 -37.5q55 -29 109.5 -55t109 -40.5t105.5 -10.5t98 39q20 14 27.5 48t0 74t-24.5 81t-45 69.5t-62.5 38.5t-75.5 -8 q-55 -27 -99.5 -16.5t-77 40t-51 71.5t-19.5 83t16.5 72t56.5 39q55 10 86.5 32.5t50 51t29 60.5t22.5 63q20 55 13 73.5t-36.5 13.5t-77.5 -28t-106.5 -48.5t-124.5 -47t-129 -25.5q-31 -2 -63.5 14.5t-60 42t-45 57.5t-19.5 61.5zM1467 43q-4 27 19.5 99.5t63.5 166.5 t90 201.5t101 206t98.5 177.5t79.5 118q49 57 90 100t68 62.5t36 10.5t-5 -55q-8 -27 -33 -87t-59.5 -142t-74.5 -178t-81 -193.5t-77 -188.5t-62 -161q-37 -98 -79 -147t-80 -60.5t-64.5 9t-30.5 61.5zM2987.5 364.5q-3.5 32.5 2 60.5t18 51t30.5 50q12 16 34.5 81t53 150 t70.5 180t89.5 174t105.5 131t122 50q96 -2 166.5 13.5t115.5 15.5t65.5 -33t18.5 -131q-2 -66 -9 -144.5t-15 -157.5t-14.5 -151.5t-5.5 -128t12.5 -85t35.5 -21.5q37 12 52.5 19.5t18.5 5.5t-1 -17.5t-2 -50.5t13.5 -67.5t18.5 -57.5t4 -40t-32 -15t-55.5 1t-46 -2 t-29.5 -11.5t-6 -28.5q6 -27 16.5 -58.5t15.5 -59.5t-4.5 -46t-43.5 -18q-27 0 -59 -16.5t-62.5 -29t-54 -10.5t-31.5 41t7 75t25.5 68.5t3 59.5t-58.5 47q-35 12 -88 12t-113.5 -6t-122 -14t-113.5 -9t-88 9t-44 39q-12 43 -15.5 75.5zM3253 465q-2 -29 43 -41t102 -9 t109.5 22.5t64.5 54.5q8 23 18.5 73.5t17.5 112t9 127t-5 119t-24.5 86t-50.5 28.5t-66.5 -42t-64 -96t-58.5 -125.5t-48.5 -130t-32.5 -112t-14 -67.5z" />
<glyph unicode="&#xbf;" d="M258.5 1156q13.5 34 87.5 67t162 65.5t168.5 42.5t147 -10.5t97.5 -93.5q20 -49 16 -111.5t-23 -128t-48 -130t-57.5 -119t-51 -93.5t-30.5 -53q-23 -43 -31 -97.5t0 -86.5q4 -16 -4 -32t-25.5 -25t-44 -7t-57.5 21q-31 18 -60.5 66t-42 101.5t-2 103.5t57.5 75 q31 16 70.5 42.5t76.5 59.5t67.5 70t45 72.5t7.5 68.5t-44 59q-55 39 -115.5 38t-114 -19.5t-94.5 -40t-57 -23.5t-49 14.5t-49.5 43t-3 60.5zM498 157.5q1 16.5 28 35.5q27 18 67.5 33.5t78.5 20.5t62.5 -1t18.5 -31t-16 -57.5t-27.5 -59t-41 -40t-54.5 2.5t-58.5 32 t-43 32t-14.5 32.5z" />
<glyph unicode="&#xc0;" horiz-adv-x="1122" d="M39 227q8 47 10 64.5t9.5 30t25.5 34t59 78.5t69 137t42 172.5t17 190.5t-5 192t13.5 152.5t68.5 89.5t120 38t167 1q61 -4 100 -63.5t65.5 -154.5t44 -217t39 -250t50.5 -253t78 -227q47 -102 67.5 -154.5t18.5 -71t-24.5 -12.5t-59.5 19.5t-86 26.5t-105 7 q-55 -6 -80.5 0t-31.5 21.5t0 39t12 54.5t6 66.5t-18 76.5q-29 61 -72 69.5t-93 -4.5t-104.5 -35.5t-103.5 -25.5q-33 -2 -39 -16t0 -37.5t19.5 -53.5t19.5 -61.5t-2 -61.5t-43 -54q-53 -37 -102.5 -29t-86 41t-55 83t-10.5 97zM293 1721q2 51 22.5 69.5t60.5 14.5 t99.5 -25.5t141.5 -50.5t107.5 -47.5t20.5 -38t-26.5 -48t-34.5 -75.5q-8 -31 -40.5 -38t-77 4t-93.5 36t-90 58.5t-66.5 69.5t-23.5 71zM385 663.5q-2 -69.5 27 -98.5q18 -18 38.5 -22t48 -4t64.5 -2t86 -15q61 -14 75.5 12.5t2.5 81t-43 127t-60.5 149.5t-49 150.5 t-11.5 126.5q8 49 -8 33t-42 -74.5t-56.5 -142.5t-50 -168t-21.5 -153.5z" />
<glyph unicode="&#xc1;" horiz-adv-x="1122" d="M39 227q8 47 10 64.5t9.5 30t25.5 34t59 78.5t69 137t42 172.5t17 190.5t-5 192t13.5 152.5t68.5 89.5t120 38t167 1q61 -4 100 -63.5t65.5 -154.5t44 -217t39 -250t50.5 -253t78 -227q47 -102 67.5 -154.5t18.5 -71t-24.5 -12.5t-59.5 19.5t-86 26.5t-105 7 q-55 -6 -80.5 0t-31.5 21.5t0 39t12 54.5t6 66.5t-18 76.5q-29 61 -72 69.5t-93 -4.5t-104.5 -35.5t-103.5 -25.5q-33 -2 -39 -16t0 -37.5t19.5 -53.5t19.5 -61.5t-2 -61.5t-43 -54q-53 -37 -102.5 -29t-86 41t-55 83t-10.5 97zM385 663.5q-2 -69.5 27 -98.5 q18 -18 38.5 -22t48 -4t64.5 -2t86 -15q61 -14 75.5 12.5t2.5 81t-43 127t-60.5 149.5t-49 150.5t-11.5 126.5q8 49 -8 33t-42 -74.5t-56.5 -142.5t-50 -168t-21.5 -153.5z" />
<glyph unicode="&#xc2;" horiz-adv-x="1122" d="M39 227q8 47 10 64.5t9.5 30t25.5 34t59 78.5t69 137t42 172.5t17 190.5t-5 192t13.5 152.5t68.5 89.5t120 38t167 1q61 -4 100 -63.5t65.5 -154.5t44 -217t39 -250t50.5 -253t78 -227q47 -102 67.5 -154.5t18.5 -71t-24.5 -12.5t-59.5 19.5t-86 26.5t-105 7 q-55 -6 -80.5 0t-31.5 21.5t0 39t12 54.5t6 66.5t-18 76.5q-29 61 -72 69.5t-93 -4.5t-104.5 -35.5t-103.5 -25.5q-33 -2 -39 -16t0 -37.5t19.5 -53.5t19.5 -61.5t-2 -61.5t-43 -54q-53 -37 -102.5 -29t-86 41t-55 83t-10.5 97zM385 663.5q-2 -69.5 27 -98.5 q18 -18 38.5 -22t48 -4t64.5 -2t86 -15q61 -14 75.5 12.5t2.5 81t-43 127t-60.5 149.5t-49 150.5t-11.5 126.5q8 49 -8 33t-42 -74.5t-56.5 -142.5t-50 -168t-21.5 -153.5z" />
<glyph unicode="&#xc3;" horiz-adv-x="1122" d="M39 227q8 47 10 64.5t9.5 30t25.5 34t59 78.5t69 137t42 172.5t17 190.5t-5 192t13.5 152.5t68.5 89.5t120 38t167 1q61 -4 100 -63.5t65.5 -154.5t44 -217t39 -250t50.5 -253t78 -227q47 -102 67.5 -154.5t18.5 -71t-24.5 -12.5t-59.5 19.5t-86 26.5t-105 7 q-55 -6 -80.5 0t-31.5 21.5t0 39t12 54.5t6 66.5t-18 76.5q-29 61 -72 69.5t-93 -4.5t-104.5 -35.5t-103.5 -25.5q-33 -2 -39 -16t0 -37.5t19.5 -53.5t19.5 -61.5t-2 -61.5t-43 -54q-53 -37 -102.5 -29t-86 41t-55 83t-10.5 97zM385 663.5q-2 -69.5 27 -98.5 q18 -18 38.5 -22t48 -4t64.5 -2t86 -15q61 -14 75.5 12.5t2.5 81t-43 127t-60.5 149.5t-49 150.5t-11.5 126.5q8 49 -8 33t-42 -74.5t-56.5 -142.5t-50 -168t-21.5 -153.5z" />
<glyph unicode="&#xc4;" horiz-adv-x="1122" d="M39 227q8 47 10 64.5t9.5 30t25.5 34t59 78.5t69 137t42 172.5t17 190.5t-5 192t13.5 152.5t68.5 89.5t120 38t167 1q61 -4 100 -63.5t65.5 -154.5t44 -217t39 -250t50.5 -253t78 -227q47 -102 67.5 -154.5t18.5 -71t-24.5 -12.5t-59.5 19.5t-86 26.5t-105 7 q-55 -6 -80.5 0t-31.5 21.5t0 39t12 54.5t6 66.5t-18 76.5q-29 61 -72 69.5t-93 -4.5t-104.5 -35.5t-103.5 -25.5q-33 -2 -39 -16t0 -37.5t19.5 -53.5t19.5 -61.5t-2 -61.5t-43 -54q-53 -37 -102.5 -29t-86 41t-55 83t-10.5 97zM385 663.5q-2 -69.5 27 -98.5 q18 -18 38.5 -22t48 -4t64.5 -2t86 -15q61 -14 75.5 12.5t2.5 81t-43 127t-60.5 149.5t-49 150.5t-11.5 126.5q8 49 -8 33t-42 -74.5t-56.5 -142.5t-50 -168t-21.5 -153.5z" />
<glyph unicode="&#xc5;" horiz-adv-x="1122" d="M39 227q8 47 10 64.5t9.5 30t25.5 34t59 78.5t69 137t42 172.5t17 190.5t-5 192t13.5 152.5t68.5 89.5t120 38t167 1q61 -4 100 -63.5t65.5 -154.5t44 -217t39 -250t50.5 -253t78 -227q47 -102 67.5 -154.5t18.5 -71t-24.5 -12.5t-59.5 19.5t-86 26.5t-105 7 q-55 -6 -80.5 0t-31.5 21.5t0 39t12 54.5t6 66.5t-18 76.5q-29 61 -72 69.5t-93 -4.5t-104.5 -35.5t-103.5 -25.5q-33 -2 -39 -16t0 -37.5t19.5 -53.5t19.5 -61.5t-2 -61.5t-43 -54q-53 -37 -102.5 -29t-86 41t-55 83t-10.5 97zM385 663.5q-2 -69.5 27 -98.5 q18 -18 38.5 -22t48 -4t64.5 -2t86 -15q61 -14 75.5 12.5t2.5 81t-43 127t-60.5 149.5t-49 150.5t-11.5 126.5q8 49 -8 33t-42 -74.5t-56.5 -142.5t-50 -168t-21.5 -153.5z" />
<glyph unicode="&#xc6;" horiz-adv-x="2385" d="M39 227q8 47 10 64.5t9.5 30t25.5 34t59 78.5t69 137t42 172.5t17 190.5t-5 192t13.5 152.5t68.5 89.5t120 38t167 1q61 -4 100 -63.5t65.5 -154.5t44 -217t39 -250t50.5 -253t78 -227q47 -102 67.5 -154.5t18.5 -71t-24.5 -12.5t-59.5 19.5t-86 26.5t-105 7 q-55 -6 -80.5 0t-31.5 21.5t0 39t12 54.5t6 66.5t-18 76.5q-29 61 -72 69.5t-93 -4.5t-104.5 -35.5t-103.5 -25.5q-33 -2 -39 -16t0 -37.5t19.5 -53.5t19.5 -61.5t-2 -61.5t-43 -54q-53 -37 -102.5 -29t-86 41t-55 83t-10.5 97zM385 663.5q-2 -69.5 27 -98.5 q18 -18 38.5 -22t48 -4t64.5 -2t86 -15q61 -14 75.5 12.5t2.5 81t-43 127t-60.5 149.5t-49 150.5t-11.5 126.5q8 49 -8 33t-42 -74.5t-56.5 -142.5t-50 -168t-21.5 -153.5zM1242 340q-5 113 1 248t17.5 267t24.5 250t21 198q8 78 49 114.5t105.5 48t148.5 3t178.5 -17.5 t192.5 -13t195 14q94 18 134 -3.5t43 -64.5t-19.5 -98t-50 -104t-52.5 -84t-25 -37q0 -4 -22.5 19.5t-64.5 52t-102 52t-136 21.5q-115 -4 -166 -8t-67.5 -15.5t-11.5 -32t4 -55t-19.5 -89t-81.5 -129.5q-63 -78 -68.5 -116t32.5 -49.5t108.5 0t157.5 34t183.5 52 t182.5 56.5t122.5 36t42 2t-11 -28.5t-37 -57.5t-37 -84t-8.5 -108q12 -90 -20.5 -116.5t-100 -16t-164 46t-210.5 72.5q-115 37 -169 18.5t-67.5 -67.5t0 -119t33.5 -139q20 -70 37.5 -99.5t70 -26.5t157 32.5t296.5 81.5q127 33 195.5 44t94.5 0.5t16.5 -36t-37 -66.5 t-64.5 -92t-68 -108q-14 -27 -76.5 -39.5t-151.5 -13.5t-190.5 6.5t-193.5 19.5t-162.5 26.5t-97.5 26.5q-43 20 -64.5 99t-26.5 192z" />
<glyph unicode="&#xc7;" horiz-adv-x="1222" d="M64.5 574.5q-3.5 132.5 15.5 306.5q16 168 68.5 263t141.5 146t219 72.5t302 40.5q131 14 196.5 15t88 -11t14.5 -40t-24.5 -71t-30 -102t1.5 -137q10 -63 4 -91t-23.5 -32t-43 10t-54.5 37t-56 46.5t-50 37.5q-31 20 -61 50t-60.5 51.5t-66.5 26.5t-81 -24.5 t-100 -102.5t-127 -206q-16 -31 -19.5 -89t5 -128t27 -144.5t47 -139t64.5 -110.5t79 -61q121 -39 179 -37.5t81.5 29t28 74.5t15.5 98t44 101.5t117 85.5t115.5 37t32.5 -21t-22.5 -66t-51 -100t-50 -124.5t-20.5 -137.5t-36 -104.5t-100.5 -44t-140.5 2t-156.5 33 t-152.5 46t-125 44.5q-78 29 -128 89.5t-76.5 154.5t-30 226.5z" />
<glyph unicode="&#xc8;" horiz-adv-x="1263" d="M120 340q-5 113 1 248t17.5 267t24.5 250t21 198q8 78 49 114.5t105.5 48t148.5 3t178.5 -17.5t192.5 -13t195 14q94 18 134 -3.5t43 -64.5t-19.5 -98t-50 -104t-52.5 -84t-25 -37q0 -4 -22.5 19.5t-64.5 52t-102 52t-136 21.5q-115 -4 -166 -8t-67.5 -15.5t-11.5 -32 t4 -55t-19.5 -89t-81.5 -129.5q-63 -78 -68.5 -116t32.5 -49.5t108.5 0t157.5 34t183.5 52t182.5 56.5t122.5 36t42 2t-11 -28.5t-37 -57.5t-37 -84t-8.5 -108q12 -90 -20.5 -116.5t-100 -16t-164 46t-210.5 72.5q-115 37 -169 18.5t-67.5 -67.5t0 -119t33.5 -139 q20 -70 37.5 -99.5t70 -26.5t157 32.5t296.5 81.5q127 33 195.5 44t94.5 0.5t16.5 -36t-37 -66.5t-64.5 -92t-68 -108q-14 -27 -76.5 -39.5t-151.5 -13.5t-190.5 6.5t-193.5 19.5t-162.5 26.5t-97.5 26.5q-43 20 -64.5 99t-26.5 192zM364 1721q2 51 22.5 69.5t60.5 14.5 t99.5 -25.5t141.5 -50.5t107.5 -47.5t20.5 -38t-26.5 -48t-34.5 -75.5q-8 -31 -40.5 -38t-77 4t-93.5 36t-90 58.5t-66.5 69.5t-23.5 71z" />
<glyph unicode="&#xc9;" horiz-adv-x="1263" d="M120 340q-5 113 1 248t17.5 267t24.5 250t21 198q8 78 49 114.5t105.5 48t148.5 3t178.5 -17.5t192.5 -13t195 14q94 18 134 -3.5t43 -64.5t-19.5 -98t-50 -104t-52.5 -84t-25 -37q0 -4 -22.5 19.5t-64.5 52t-102 52t-136 21.5q-115 -4 -166 -8t-67.5 -15.5t-11.5 -32 t4 -55t-19.5 -89t-81.5 -129.5q-63 -78 -68.5 -116t32.5 -49.5t108.5 0t157.5 34t183.5 52t182.5 56.5t122.5 36t42 2t-11 -28.5t-37 -57.5t-37 -84t-8.5 -108q12 -90 -20.5 -116.5t-100 -16t-164 46t-210.5 72.5q-115 37 -169 18.5t-67.5 -67.5t0 -119t33.5 -139 q20 -70 37.5 -99.5t70 -26.5t157 32.5t296.5 81.5q127 33 195.5 44t94.5 0.5t16.5 -36t-37 -66.5t-64.5 -92t-68 -108q-14 -27 -76.5 -39.5t-151.5 -13.5t-190.5 6.5t-193.5 19.5t-162.5 26.5t-97.5 26.5q-43 20 -64.5 99t-26.5 192z" />
<glyph unicode="&#xca;" horiz-adv-x="1263" d="M120 340q-5 113 1 248t17.5 267t24.5 250t21 198q8 78 49 114.5t105.5 48t148.5 3t178.5 -17.5t192.5 -13t195 14q94 18 134 -3.5t43 -64.5t-19.5 -98t-50 -104t-52.5 -84t-25 -37q0 -4 -22.5 19.5t-64.5 52t-102 52t-136 21.5q-115 -4 -166 -8t-67.5 -15.5t-11.5 -32 t4 -55t-19.5 -89t-81.5 -129.5q-63 -78 -68.5 -116t32.5 -49.5t108.5 0t157.5 34t183.5 52t182.5 56.5t122.5 36t42 2t-11 -28.5t-37 -57.5t-37 -84t-8.5 -108q12 -90 -20.5 -116.5t-100 -16t-164 46t-210.5 72.5q-115 37 -169 18.5t-67.5 -67.5t0 -119t33.5 -139 q20 -70 37.5 -99.5t70 -26.5t157 32.5t296.5 81.5q127 33 195.5 44t94.5 0.5t16.5 -36t-37 -66.5t-64.5 -92t-68 -108q-14 -27 -76.5 -39.5t-151.5 -13.5t-190.5 6.5t-193.5 19.5t-162.5 26.5t-97.5 26.5q-43 20 -64.5 99t-26.5 192z" />
<glyph unicode="&#xcb;" horiz-adv-x="1263" d="M120 340q-5 113 1 248t17.5 267t24.5 250t21 198q8 78 49 114.5t105.5 48t148.5 3t178.5 -17.5t192.5 -13t195 14q94 18 134 -3.5t43 -64.5t-19.5 -98t-50 -104t-52.5 -84t-25 -37q0 -4 -22.5 19.5t-64.5 52t-102 52t-136 21.5q-115 -4 -166 -8t-67.5 -15.5t-11.5 -32 t4 -55t-19.5 -89t-81.5 -129.5q-63 -78 -68.5 -116t32.5 -49.5t108.5 0t157.5 34t183.5 52t182.5 56.5t122.5 36t42 2t-11 -28.5t-37 -57.5t-37 -84t-8.5 -108q12 -90 -20.5 -116.5t-100 -16t-164 46t-210.5 72.5q-115 37 -169 18.5t-67.5 -67.5t0 -119t33.5 -139 q20 -70 37.5 -99.5t70 -26.5t157 32.5t296.5 81.5q127 33 195.5 44t94.5 0.5t16.5 -36t-37 -66.5t-64.5 -92t-68 -108q-14 -27 -76.5 -39.5t-151.5 -13.5t-190.5 6.5t-193.5 19.5t-162.5 26.5t-97.5 26.5q-43 20 -64.5 99t-26.5 192z" />
<glyph unicode="&#xcc;" horiz-adv-x="899" d="M28 112.5q-3 32.5 6 60.5t32 38t49 -1t53 -21.5t54.5 -8.5t53.5 39q16 25 29.5 110t22 197.5t11.5 239.5t1 233.5t-10 178t-23 75.5q-23 6 -47 -6t-53 -23.5t-60.5 -9.5t-66.5 39t-41 73t7 63.5t43 42t69 6.5q25 -6 77 -6t115.5 1t133 1t132 -2t110.5 -9.5t69 -23.5 q59 -45 80.5 -74t18.5 -44t-27.5 -21.5t-57.5 -8.5t-71 -1t-66 -1q-45 -4 -69.5 -12t-37 -28.5t-14.5 -53.5t2 -82q2 -33 -2 -108.5t-10 -170t-13.5 -195.5t-11.5 -186t-5 -142.5t7 -63.5q23 -16 48.5 -9t53 15t55 7t54.5 -36t44.5 -68.5t23.5 -60t0 -41t-29 -10.5 q-14 2 -65.5 1t-121 -4t-148.5 -6t-149.5 -4t-122.5 2t-69 11q-29 14 -45 45t-19 63.5zM182 1721q2 51 22.5 69.5t60.5 14.5t99.5 -25.5t141.5 -50.5t107.5 -47.5t20.5 -38t-26.5 -48t-34.5 -75.5q-8 -31 -40.5 -38t-77 4t-93.5 36t-90 58.5t-66.5 69.5t-23.5 71z" />
<glyph unicode="&#xcd;" horiz-adv-x="899" d="M28 112.5q-3 32.5 6 60.5t32 38t49 -1t53 -21.5t54.5 -8.5t53.5 39q16 25 29.5 110t22 197.5t11.5 239.5t1 233.5t-10 178t-23 75.5q-23 6 -47 -6t-53 -23.5t-60.5 -9.5t-66.5 39t-41 73t7 63.5t43 42t69 6.5q25 -6 77 -6t115.5 1t133 1t132 -2t110.5 -9.5t69 -23.5 q59 -45 80.5 -74t18.5 -44t-27.5 -21.5t-57.5 -8.5t-71 -1t-66 -1q-45 -4 -69.5 -12t-37 -28.5t-14.5 -53.5t2 -82q2 -33 -2 -108.5t-10 -170t-13.5 -195.5t-11.5 -186t-5 -142.5t7 -63.5q23 -16 48.5 -9t53 15t55 7t54.5 -36t44.5 -68.5t23.5 -60t0 -41t-29 -10.5 q-14 2 -65.5 1t-121 -4t-148.5 -6t-149.5 -4t-122.5 2t-69 11q-29 14 -45 45t-19 63.5z" />
<glyph unicode="&#xce;" horiz-adv-x="899" d="M28 112.5q-3 32.5 6 60.5t32 38t49 -1t53 -21.5t54.5 -8.5t53.5 39q16 25 29.5 110t22 197.5t11.5 239.5t1 233.5t-10 178t-23 75.5q-23 6 -47 -6t-53 -23.5t-60.5 -9.5t-66.5 39t-41 73t7 63.5t43 42t69 6.5q25 -6 77 -6t115.5 1t133 1t132 -2t110.5 -9.5t69 -23.5 q59 -45 80.5 -74t18.5 -44t-27.5 -21.5t-57.5 -8.5t-71 -1t-66 -1q-45 -4 -69.5 -12t-37 -28.5t-14.5 -53.5t2 -82q2 -33 -2 -108.5t-10 -170t-13.5 -195.5t-11.5 -186t-5 -142.5t7 -63.5q23 -16 48.5 -9t53 15t55 7t54.5 -36t44.5 -68.5t23.5 -60t0 -41t-29 -10.5 q-14 2 -65.5 1t-121 -4t-148.5 -6t-149.5 -4t-122.5 2t-69 11q-29 14 -45 45t-19 63.5z" />
<glyph unicode="&#xcf;" horiz-adv-x="899" d="M28 112.5q-3 32.5 6 60.5t32 38t49 -1t53 -21.5t54.5 -8.5t53.5 39q16 25 29.5 110t22 197.5t11.5 239.5t1 233.5t-10 178t-23 75.5q-23 6 -47 -6t-53 -23.5t-60.5 -9.5t-66.5 39t-41 73t7 63.5t43 42t69 6.5q25 -6 77 -6t115.5 1t133 1t132 -2t110.5 -9.5t69 -23.5 q59 -45 80.5 -74t18.5 -44t-27.5 -21.5t-57.5 -8.5t-71 -1t-66 -1q-45 -4 -69.5 -12t-37 -28.5t-14.5 -53.5t2 -82q2 -33 -2 -108.5t-10 -170t-13.5 -195.5t-11.5 -186t-5 -142.5t7 -63.5q23 -16 48.5 -9t53 15t55 7t54.5 -36t44.5 -68.5t23.5 -60t0 -41t-29 -10.5 q-14 2 -65.5 1t-121 -4t-148.5 -6t-149.5 -4t-122.5 2t-69 11q-29 14 -45 45t-19 63.5z" />
<glyph unicode="&#xd0;" horiz-adv-x="1345" d="M80 1171q0 61 38 108.5t111.5 72t181 23.5t246.5 -38q236 -63 392.5 -164.5t219 -227.5t22.5 -266t-195 -280q-78 -70 -128 -126t-87 -98t-69 -71.5t-69.5 -46t-91 -18.5t-133.5 10q-121 18 -209 19.5t-137 9.5t-57.5 32.5t30.5 86.5q39 61 58.5 122.5t26 122t4 117.5 t-6.5 113q-6 82 -29.5 147.5t-50 123.5t-47 112.5t-20.5 115.5zM362.5 563.5q2.5 20.5 41 39t131.5 28.5q45 6 118.5 14t149.5 11t139.5 -2t87.5 -27q18 -16 27.5 -23.5t19.5 -18t24.5 -26.5t43.5 -51q8 -10 -25 -17.5t-89 -11.5t-125.5 -5t-133 -3t-112 -3t-60.5 -3 q-29 -6 -70 1t-78.5 22.5t-64.5 35t-24.5 40zM448.5 408.5q-2.5 -80.5 7 -139t36 -79t77.5 24.5q76 66 146.5 137.5t127 141t95.5 136t51 122.5q18 86 23.5 131t-11 74.5t-59.5 53t-119 64.5q-27 14 -64.5 28.5t-77.5 17.5t-79 -8t-67.5 -48t-45 -103.5t-12.5 -175.5 q0 -18 -7 -78.5t-13 -139.5t-8.5 -159.5z" />
<glyph unicode="&#xd1;" horiz-adv-x="1095" d="M45 240.5q-2 13.5 4 27t26.5 28.5t65.5 38q29 14 41.5 59t11.5 109.5t-12.5 143.5t-26 165t-28.5 172t-25 166q-10 78 -10 123t10.5 66.5t33 26.5t57 7t82 6t110.5 25q61 18 101 -19.5t68 -113.5t47.5 -177.5t40 -210t49 -213t73.5 -182.5q33 -59 52.5 -63t26.5 29.5 t5 97t-10.5 142.5t-20.5 164t-24.5 161t-24.5 133t-18 82q-14 49 -11.5 86t27.5 58.5t73 23.5t126 -21q51 -14 71.5 -82.5t20.5 -170t-12.5 -225.5t-28 -250t-26.5 -244.5t-7 -206.5t2 -136.5t-13 -66.5t-29.5 -15t-47.5 14t-65.5 23.5t-84.5 14.5q-47 0 -78.5 33.5t-56 92 t-45 135.5t-44 165t-54.5 182t-76 186q-35 70 -54.5 86.5t-27.5 -4t-7 -72t8 -118t19.5 -141t27 -144t29.5 -125t28 -84.5q25 -55 30 -81.5t-5.5 -43t-35 -34t-61.5 -56.5t-86 -20.5t-95 59.5t-78 88.5t-34 67.5t-4 33.5z" />
<glyph unicode="&#xd2;" horiz-adv-x="1034" d="M29.5 348.5q-9.5 61.5 1 130t26 135t30.5 127t17 105.5q2 104 14.5 169.5t28 107.5t33 66.5t31.5 47.5q78 127 145.5 165t141 14.5t159.5 -95.5t201 -164q68 -55 95.5 -120.5t28.5 -142.5t-18.5 -162t-47 -176t-56.5 -188.5t-45 -197.5q-12 -78 -46 -117t-83 -49 t-108.5 2t-126 38t-136 56.5t-135.5 57.5q-74 29 -107.5 79t-43 111.5zM250 1721q2 51 22.5 69.5t60.5 14.5t99.5 -25.5t141.5 -50.5t107.5 -47.5t20.5 -38t-26.5 -48t-34.5 -75.5q-8 -31 -40.5 -38t-77 4t-93.5 36t-90 58.5t-66.5 69.5t-23.5 71zM254 649q-2 2 2 -34.5 t13.5 -90t27.5 -114t48 -107.5t71 -72.5t96 -7.5q51 16 81 41t51.5 81t38.5 154.5t44 262.5q18 111 26.5 171t4.5 91t-19.5 41t-46 20.5t-77 30t-107.5 68.5q-47 37 -83 33.5t-61.5 -34t-44 -82.5t-31 -111.5t-18.5 -120t-10 -109.5t-4 -64z" />
<glyph unicode="&#xd3;" horiz-adv-x="1034" d="M29.5 348.5q-9.5 61.5 1 130t26 135t30.5 127t17 105.5q2 104 14.5 169.5t28 107.5t33 66.5t31.5 47.5q78 127 145.5 165t141 14.5t159.5 -95.5t201 -164q68 -55 95.5 -120.5t28.5 -142.5t-18.5 -162t-47 -176t-56.5 -188.5t-45 -197.5q-12 -78 -46 -117t-83 -49 t-108.5 2t-126 38t-136 56.5t-135.5 57.5q-74 29 -107.5 79t-43 111.5zM254 649q-2 2 2 -34.5t13.5 -90t27.5 -114t48 -107.5t71 -72.5t96 -7.5q51 16 81 41t51.5 81t38.5 154.5t44 262.5q18 111 26.5 171t4.5 91t-19.5 41t-46 20.5t-77 30t-107.5 68.5q-47 37 -83 33.5 t-61.5 -34t-44 -82.5t-31 -111.5t-18.5 -120t-10 -109.5t-4 -64z" />
<glyph unicode="&#xd4;" horiz-adv-x="1034" d="M29.5 348.5q-9.5 61.5 1 130t26 135t30.5 127t17 105.5q2 104 14.5 169.5t28 107.5t33 66.5t31.5 47.5q78 127 145.5 165t141 14.5t159.5 -95.5t201 -164q68 -55 95.5 -120.5t28.5 -142.5t-18.5 -162t-47 -176t-56.5 -188.5t-45 -197.5q-12 -78 -46 -117t-83 -49 t-108.5 2t-126 38t-136 56.5t-135.5 57.5q-74 29 -107.5 79t-43 111.5zM254 649q-2 2 2 -34.5t13.5 -90t27.5 -114t48 -107.5t71 -72.5t96 -7.5q51 16 81 41t51.5 81t38.5 154.5t44 262.5q18 111 26.5 171t4.5 91t-19.5 41t-46 20.5t-77 30t-107.5 68.5q-47 37 -83 33.5 t-61.5 -34t-44 -82.5t-31 -111.5t-18.5 -120t-10 -109.5t-4 -64z" />
<glyph unicode="&#xd5;" horiz-adv-x="1034" d="M29.5 348.5q-9.5 61.5 1 130t26 135t30.5 127t17 105.5q2 104 14.5 169.5t28 107.5t33 66.5t31.5 47.5q78 127 145.5 165t141 14.5t159.5 -95.5t201 -164q68 -55 95.5 -120.5t28.5 -142.5t-18.5 -162t-47 -176t-56.5 -188.5t-45 -197.5q-12 -78 -46 -117t-83 -49 t-108.5 2t-126 38t-136 56.5t-135.5 57.5q-74 29 -107.5 79t-43 111.5zM254 649q-2 2 2 -34.5t13.5 -90t27.5 -114t48 -107.5t71 -72.5t96 -7.5q51 16 81 41t51.5 81t38.5 154.5t44 262.5q18 111 26.5 171t4.5 91t-19.5 41t-46 20.5t-77 30t-107.5 68.5q-47 37 -83 33.5 t-61.5 -34t-44 -82.5t-31 -111.5t-18.5 -120t-10 -109.5t-4 -64z" />
<glyph unicode="&#xd6;" horiz-adv-x="1034" d="M29.5 348.5q-9.5 61.5 1 130t26 135t30.5 127t17 105.5q2 104 14.5 169.5t28 107.5t33 66.5t31.5 47.5q78 127 145.5 165t141 14.5t159.5 -95.5t201 -164q68 -55 95.5 -120.5t28.5 -142.5t-18.5 -162t-47 -176t-56.5 -188.5t-45 -197.5q-12 -78 -46 -117t-83 -49 t-108.5 2t-126 38t-136 56.5t-135.5 57.5q-74 29 -107.5 79t-43 111.5zM254 649q-2 2 2 -34.5t13.5 -90t27.5 -114t48 -107.5t71 -72.5t96 -7.5q51 16 81 41t51.5 81t38.5 154.5t44 262.5q18 111 26.5 171t4.5 91t-19.5 41t-46 20.5t-77 30t-107.5 68.5q-47 37 -83 33.5 t-61.5 -34t-44 -82.5t-31 -111.5t-18.5 -120t-10 -109.5t-4 -64z" />
<glyph unicode="&#xd7;" />
<glyph unicode="&#xd8;" horiz-adv-x="1034" d="M29.5 348.5q-9.5 61.5 1 130t26 135t30.5 127t17 105.5q2 104 14.5 169.5t28 107.5t33 66.5t31.5 47.5q78 127 145.5 165t141 14.5t159.5 -95.5t201 -164q68 -55 95.5 -120.5t28.5 -142.5t-18.5 -162t-47 -176t-56.5 -188.5t-45 -197.5q-12 -78 -46 -117t-83 -49 t-108.5 2t-126 38t-136 56.5t-135.5 57.5q-74 29 -107.5 79t-43 111.5zM254 649q-2 2 2 -34.5t13.5 -90t27.5 -114t48 -107.5t71 -72.5t96 -7.5q51 16 81 41t51.5 81t38.5 154.5t44 262.5q18 111 26.5 171t4.5 91t-19.5 41t-46 20.5t-77 30t-107.5 68.5q-47 37 -83 33.5 t-61.5 -34t-44 -82.5t-31 -111.5t-18.5 -120t-10 -109.5t-4 -64zM289 43q-4 27 19.5 99.5t63.5 166.5t90 201.5t101 206t98.5 177.5t79.5 118q49 57 90 100t68 62.5t36 10.5t-5 -55q-8 -27 -33 -87t-59.5 -142t-74.5 -178t-81 -193.5t-77 -188.5t-62 -161q-37 -98 -79 -147 t-80 -60.5t-64.5 9t-30.5 61.5z" />
<glyph unicode="&#xd9;" horiz-adv-x="1134" d="M43 1378.5q-10 30.5 25.5 49t133 19.5t283.5 -22q37 -4 39 -57t-16.5 -123.5t-47 -141.5t-52.5 -112q-16 -27 -34 -93.5t-29 -149t-14 -169.5t8 -157t40 -110t82 -27q51 12 87 8t61.5 -11.5t44 -13.5t36 2.5t39 35t51.5 85.5q35 66 44.5 161t3 199.5t-20.5 209 t-25.5 190.5t-14.5 145.5t13 71.5q63 47 135 54.5t123.5 -11t67.5 -58.5t-29 -89q-16 -16 -16 -99.5t5 -200t9 -250.5t-2 -254t-28.5 -210t-71.5 -119q-74 -43 -139.5 -75.5t-133 -46t-144.5 -4.5t-175 52q-115 51 -174.5 112.5t-81 135.5t-15 164t20.5 198.5t27.5 237.5 t7.5 283q-2 25 -31 57.5t-55.5 67.5t-36.5 65.5zM299 1721q2 51 22.5 69.5t60.5 14.5t99.5 -25.5t141.5 -50.5t107.5 -47.5t20.5 -38t-26.5 -48t-34.5 -75.5q-8 -31 -40.5 -38t-77 4t-93.5 36t-90 58.5t-66.5 69.5t-23.5 71z" />
<glyph unicode="&#xda;" horiz-adv-x="1134" d="M43 1378.5q-10 30.5 25.5 49t133 19.5t283.5 -22q37 -4 39 -57t-16.5 -123.5t-47 -141.5t-52.5 -112q-16 -27 -34 -93.5t-29 -149t-14 -169.5t8 -157t40 -110t82 -27q51 12 87 8t61.5 -11.5t44 -13.5t36 2.5t39 35t51.5 85.5q35 66 44.5 161t3 199.5t-20.5 209 t-25.5 190.5t-14.5 145.5t13 71.5q63 47 135 54.5t123.5 -11t67.5 -58.5t-29 -89q-16 -16 -16 -99.5t5 -200t9 -250.5t-2 -254t-28.5 -210t-71.5 -119q-74 -43 -139.5 -75.5t-133 -46t-144.5 -4.5t-175 52q-115 51 -174.5 112.5t-81 135.5t-15 164t20.5 198.5t27.5 237.5 t7.5 283q-2 25 -31 57.5t-55.5 67.5t-36.5 65.5z" />
<glyph unicode="&#xdb;" horiz-adv-x="1134" d="M43 1378.5q-10 30.5 25.5 49t133 19.5t283.5 -22q37 -4 39 -57t-16.5 -123.5t-47 -141.5t-52.5 -112q-16 -27 -34 -93.5t-29 -149t-14 -169.5t8 -157t40 -110t82 -27q51 12 87 8t61.5 -11.5t44 -13.5t36 2.5t39 35t51.5 85.5q35 66 44.5 161t3 199.5t-20.5 209 t-25.5 190.5t-14.5 145.5t13 71.5q63 47 135 54.5t123.5 -11t67.5 -58.5t-29 -89q-16 -16 -16 -99.5t5 -200t9 -250.5t-2 -254t-28.5 -210t-71.5 -119q-74 -43 -139.5 -75.5t-133 -46t-144.5 -4.5t-175 52q-115 51 -174.5 112.5t-81 135.5t-15 164t20.5 198.5t27.5 237.5 t7.5 283q-2 25 -31 57.5t-55.5 67.5t-36.5 65.5z" />
<glyph unicode="&#xdc;" horiz-adv-x="1134" d="M43 1378.5q-10 30.5 25.5 49t133 19.5t283.5 -22q37 -4 39 -57t-16.5 -123.5t-47 -141.5t-52.5 -112q-16 -27 -34 -93.5t-29 -149t-14 -169.5t8 -157t40 -110t82 -27q51 12 87 8t61.5 -11.5t44 -13.5t36 2.5t39 35t51.5 85.5q35 66 44.5 161t3 199.5t-20.5 209 t-25.5 190.5t-14.5 145.5t13 71.5q63 47 135 54.5t123.5 -11t67.5 -58.5t-29 -89q-16 -16 -16 -99.5t5 -200t9 -250.5t-2 -254t-28.5 -210t-71.5 -119q-74 -43 -139.5 -75.5t-133 -46t-144.5 -4.5t-175 52q-115 51 -174.5 112.5t-81 135.5t-15 164t20.5 198.5t27.5 237.5 t7.5 283q-2 25 -31 57.5t-55.5 67.5t-36.5 65.5z" />
<glyph unicode="&#xdd;" horiz-adv-x="1187" d="M28.5 1333.5q12.5 57.5 90.5 81.5q78 25 127 -7t82.5 -89t57.5 -128t52 -122q18 -35 46 -73t58.5 -69.5t63.5 -54t60.5 -25.5t48 18.5t26.5 76.5q8 72 10.5 150.5t14.5 146.5t43 116t98 56q68 8 126.5 -10.5t93 -56t38.5 -93t-39 -121.5q-47 -74 -97 -141t-101 -144 t-99.5 -170t-93.5 -218q-43 -119 -43 -178.5t22.5 -84t60.5 -26.5t70 -5t49 -20.5t1 -72.5q-8 -31 -32.5 -45.5t-63.5 -19.5t-89.5 -3t-109.5 6q-74 4 -142.5 3t-113.5 8.5t-58.5 38t21.5 92.5q20 37 51 52t63 25.5t62.5 22.5t51 42t26.5 85t-8 149q-10 66 -18.5 108 t-19.5 69.5t-29.5 50t-52.5 50t-87 67.5t-131 106q-47 39 -97 103.5t-76 130t-13.5 123z" />
<glyph unicode="&#xde;" />
<glyph unicode="&#xdf;" />
<glyph unicode="&#xe0;" horiz-adv-x="1003" d="M65.5 814q12.5 26 57.5 56.5t137 67.5q215 84 340 107.5t186.5 -4t71.5 -99.5t-6 -176q-12 -72 5 -156t37.5 -169t34 -163.5t-4 -138t-78 -91.5t-184.5 -23q-190 12 -315.5 12t-193 17.5t-81 68.5t21.5 168q18 61 70.5 99t121 63.5t143.5 44t136.5 39t99 49t33.5 76.5 q-4 55 -5 93t-13 61.5t-43 31.5t-92 4q-100 -8 -148.5 -41t-65 -67.5t-13 -62.5t5.5 -24q-145 29 -213 70q-29 18 -43.5 39.5t-2 47.5zM233 1311q2 51 22.5 69.5t60.5 14.5t99.5 -25.5t141.5 -50.5t107.5 -47.5t20.5 -38t-26.5 -48t-34.5 -75.5q-8 -31 -40.5 -38t-77 4 t-93.5 36t-90 58.5t-66.5 69.5t-23.5 71zM301 204q-2 -11 2 -9t28.5 -17.5t60.5 -33t76 -4t73 68.5q23 41 55.5 69.5t63 47t53 30t22.5 16.5t-27.5 5t-97.5 -2q-104 -4 -159.5 -5t-82 -5.5t-32.5 -14.5t-8 -31q-4 -23 -10.5 -45t-10.5 -40.5t-6 -29.5z" />
<glyph unicode="&#xe1;" horiz-adv-x="1003" d="M65.5 814q12.5 26 57.5 56.5t137 67.5q215 84 340 107.5t186.5 -4t71.5 -99.5t-6 -176q-12 -72 5 -156t37.5 -169t34 -163.5t-4 -138t-78 -91.5t-184.5 -23q-190 12 -315.5 12t-193 17.5t-81 68.5t21.5 168q18 61 70.5 99t121 63.5t143.5 44t136.5 39t99 49t33.5 76.5 q-4 55 -5 93t-13 61.5t-43 31.5t-92 4q-100 -8 -148.5 -41t-65 -67.5t-13 -62.5t5.5 -24q-145 29 -213 70q-29 18 -43.5 39.5t-2 47.5zM301 204q-2 -11 2 -9t28.5 -17.5t60.5 -33t76 -4t73 68.5q23 41 55.5 69.5t63 47t53 30t22.5 16.5t-27.5 5t-97.5 -2q-104 -4 -159.5 -5 t-82 -5.5t-32.5 -14.5t-8 -31q-4 -23 -10.5 -45t-10.5 -40.5t-6 -29.5z" />
<glyph unicode="&#xe2;" horiz-adv-x="1003" d="M65.5 814q12.5 26 57.5 56.5t137 67.5q215 84 340 107.5t186.5 -4t71.5 -99.5t-6 -176q-12 -72 5 -156t37.5 -169t34 -163.5t-4 -138t-78 -91.5t-184.5 -23q-190 12 -315.5 12t-193 17.5t-81 68.5t21.5 168q18 61 70.5 99t121 63.5t143.5 44t136.5 39t99 49t33.5 76.5 q-4 55 -5 93t-13 61.5t-43 31.5t-92 4q-100 -8 -148.5 -41t-65 -67.5t-13 -62.5t5.5 -24q-145 29 -213 70q-29 18 -43.5 39.5t-2 47.5zM301 204q-2 -11 2 -9t28.5 -17.5t60.5 -33t76 -4t73 68.5q23 41 55.5 69.5t63 47t53 30t22.5 16.5t-27.5 5t-97.5 -2q-104 -4 -159.5 -5 t-82 -5.5t-32.5 -14.5t-8 -31q-4 -23 -10.5 -45t-10.5 -40.5t-6 -29.5z" />
<glyph unicode="&#xe3;" horiz-adv-x="1003" d="M65.5 814q12.5 26 57.5 56.5t137 67.5q215 84 340 107.5t186.5 -4t71.5 -99.5t-6 -176q-12 -72 5 -156t37.5 -169t34 -163.5t-4 -138t-78 -91.5t-184.5 -23q-190 12 -315.5 12t-193 17.5t-81 68.5t21.5 168q18 61 70.5 99t121 63.5t143.5 44t136.5 39t99 49t33.5 76.5 q-4 55 -5 93t-13 61.5t-43 31.5t-92 4q-100 -8 -148.5 -41t-65 -67.5t-13 -62.5t5.5 -24q-145 29 -213 70q-29 18 -43.5 39.5t-2 47.5zM301 204q-2 -11 2 -9t28.5 -17.5t60.5 -33t76 -4t73 68.5q23 41 55.5 69.5t63 47t53 30t22.5 16.5t-27.5 5t-97.5 -2q-104 -4 -159.5 -5 t-82 -5.5t-32.5 -14.5t-8 -31q-4 -23 -10.5 -45t-10.5 -40.5t-6 -29.5z" />
<glyph unicode="&#xe4;" horiz-adv-x="1003" d="M65.5 814q12.5 26 57.5 56.5t137 67.5q215 84 340 107.5t186.5 -4t71.5 -99.5t-6 -176q-12 -72 5 -156t37.5 -169t34 -163.5t-4 -138t-78 -91.5t-184.5 -23q-190 12 -315.5 12t-193 17.5t-81 68.5t21.5 168q18 61 70.5 99t121 63.5t143.5 44t136.5 39t99 49t33.5 76.5 q-4 55 -5 93t-13 61.5t-43 31.5t-92 4q-100 -8 -148.5 -41t-65 -67.5t-13 -62.5t5.5 -24q-145 29 -213 70q-29 18 -43.5 39.5t-2 47.5zM301 204q-2 -11 2 -9t28.5 -17.5t60.5 -33t76 -4t73 68.5q23 41 55.5 69.5t63 47t53 30t22.5 16.5t-27.5 5t-97.5 -2q-104 -4 -159.5 -5 t-82 -5.5t-32.5 -14.5t-8 -31q-4 -23 -10.5 -45t-10.5 -40.5t-6 -29.5z" />
<glyph unicode="&#xe5;" horiz-adv-x="1003" d="M65.5 814q12.5 26 57.5 56.5t137 67.5q215 84 340 107.5t186.5 -4t71.5 -99.5t-6 -176q-12 -72 5 -156t37.5 -169t34 -163.5t-4 -138t-78 -91.5t-184.5 -23q-190 12 -315.5 12t-193 17.5t-81 68.5t21.5 168q18 61 70.5 99t121 63.5t143.5 44t136.5 39t99 49t33.5 76.5 q-4 55 -5 93t-13 61.5t-43 31.5t-92 4q-100 -8 -148.5 -41t-65 -67.5t-13 -62.5t5.5 -24q-145 29 -213 70q-29 18 -43.5 39.5t-2 47.5zM301 204q-2 -11 2 -9t28.5 -17.5t60.5 -33t76 -4t73 68.5q23 41 55.5 69.5t63 47t53 30t22.5 16.5t-27.5 5t-97.5 -2q-104 -4 -159.5 -5 t-82 -5.5t-32.5 -14.5t-8 -31q-4 -23 -10.5 -45t-10.5 -40.5t-6 -29.5z" />
<glyph unicode="&#xe6;" horiz-adv-x="2117" d="M65.5 814q12.5 26 57.5 56.5t137 67.5q215 84 340 107.5t186.5 -4t71.5 -99.5t-6 -176q-12 -72 5 -156t37.5 -169t34 -163.5t-4 -138t-78 -91.5t-184.5 -23q-190 12 -315.5 12t-193 17.5t-81 68.5t21.5 168q18 61 70.5 99t121 63.5t143.5 44t136.5 39t99 49t33.5 76.5 q-4 55 -5 93t-13 61.5t-43 31.5t-92 4q-100 -8 -148.5 -41t-65 -67.5t-13 -62.5t5.5 -24q-145 29 -213 70q-29 18 -43.5 39.5t-2 47.5zM301 204q-2 -11 2 -9t28.5 -17.5t60.5 -33t76 -4t73 68.5q23 41 55.5 69.5t63 47t53 30t22.5 16.5t-27.5 5t-97.5 -2q-104 -4 -159.5 -5 t-82 -5.5t-32.5 -14.5t-8 -31q-4 -23 -10.5 -45t-10.5 -40.5t-6 -29.5zM1047 459q6 35 23.5 69.5t25.5 89.5t2 83t-6 55.5t17.5 70.5t72.5 129t95 123t90.5 43t124 -11t196.5 -38q82 -14 126 -20t64.5 -12.5t24.5 -16.5t9 -32.5t17.5 -62.5t47.5 -106q27 -49 34 -87t3 -66.5 t-19.5 -49t-36.5 -34.5q-47 -33 -123 -43l-233 -49q-43 -10 -86 -18.5t-77 -15.5t-54.5 -10.5t-22.5 -3.5q-4 2 9.5 -6t44 -31.5t80 -67.5t120.5 -114q35 -35 60.5 -54t44 -27.5t31 -5.5t20.5 12q16 18 16 67q-14 31 -20 53q-4 18 2 31.5t35 7.5t53.5 -38.5t33.5 -75.5 t0 -89.5t-46 -80.5q-25 -23 -76 -29t-116.5 2t-139.5 30.5t-144.5 56.5t-132 77t-102.5 94q-61 76 -77.5 121t-10.5 80zM1280.5 822.5q4.5 -29.5 27 -63.5t47 -63.5t44 -49t17.5 -19.5q-4 -2 26.5 1t75.5 21.5t97.5 55t93.5 102.5t29.5 91.5t-59.5 27.5t-126 -9.5 t-172 -17.5q-61 -4 -83 -25.5t-17.5 -51z" />
<glyph unicode="&#xe7;" horiz-adv-x="890" d="M37 339.5q-4 91.5 2 195.5t21.5 189t56.5 144.5t116.5 86t204.5 14.5q135 -14 213 -14.5t115 -9.5t41 -40t-8 -106q-12 -86 -22.5 -129t-22 -55.5t-23.5 -1t-27.5 33t-37 48t-52.5 42.5q-35 18 -82 41t-92 29t-80.5 -13.5t-48.5 -82.5q-12 -63 -18 -97t-7 -67t5 -78 t20 -131q8 -45 31 -90t61.5 -74t95 -31t132.5 41q51 29 70.5 45.5t30.5 14.5t26.5 -22.5t60.5 -63.5q59 -59 35.5 -97t-108 -56.5t-221 -16.5t-298.5 24q-66 8 -105.5 52.5t-60 114t-24.5 161z" />
<glyph unicode="&#xe8;" horiz-adv-x="1114" d="M43 459q6 35 23.5 69.5t25.5 89.5t2 83t-6 55.5t17.5 70.5t72.5 129t95 123t90.5 43t124 -11t196.5 -38q82 -14 126 -20t64.5 -12.5t24.5 -16.5t9 -32.5t17.5 -62.5t47.5 -106q27 -49 34 -87t3 -66.5t-19.5 -49t-36.5 -34.5q-47 -33 -123 -43l-233 -49q-43 -10 -86 -18.5 t-77 -15.5t-54.5 -10.5t-22.5 -3.5q-4 2 9.5 -6t44 -31.5t80 -67.5t120.5 -114q35 -35 60.5 -54t44 -27.5t31 -5.5t20.5 12q16 18 16 67q-14 31 -20 53q-4 18 2 31.5t35 7.5t53.5 -38.5t33.5 -75.5t0 -89.5t-46 -80.5q-25 -23 -76 -29t-116.5 2t-139.5 30.5t-144.5 56.5 t-132 77t-102.5 94q-61 76 -77.5 121t-10.5 80zM276.5 822.5q4.5 -29.5 27 -63.5t47 -63.5t44 -49t17.5 -19.5q-4 -2 26.5 1t75.5 21.5t97.5 55t93.5 102.5t29.5 91.5t-59.5 27.5t-126 -9.5t-172 -17.5q-61 -4 -83 -25.5t-17.5 -51zM289 1311q2 51 22.5 69.5t60.5 14.5 t99.5 -25.5t141.5 -50.5t107.5 -47.5t20.5 -38t-26.5 -48t-34.5 -75.5q-8 -31 -40.5 -38t-77 4t-93.5 36t-90 58.5t-66.5 69.5t-23.5 71z" />
<glyph unicode="&#xe9;" horiz-adv-x="1114" d="M43 459q6 35 23.5 69.5t25.5 89.5t2 83t-6 55.5t17.5 70.5t72.5 129t95 123t90.5 43t124 -11t196.5 -38q82 -14 126 -20t64.5 -12.5t24.5 -16.5t9 -32.5t17.5 -62.5t47.5 -106q27 -49 34 -87t3 -66.5t-19.5 -49t-36.5 -34.5q-47 -33 -123 -43l-233 -49q-43 -10 -86 -18.5 t-77 -15.5t-54.5 -10.5t-22.5 -3.5q-4 2 9.5 -6t44 -31.5t80 -67.5t120.5 -114q35 -35 60.5 -54t44 -27.5t31 -5.5t20.5 12q16 18 16 67q-14 31 -20 53q-4 18 2 31.5t35 7.5t53.5 -38.5t33.5 -75.5t0 -89.5t-46 -80.5q-25 -23 -76 -29t-116.5 2t-139.5 30.5t-144.5 56.5 t-132 77t-102.5 94q-61 76 -77.5 121t-10.5 80zM276.5 822.5q4.5 -29.5 27 -63.5t47 -63.5t44 -49t17.5 -19.5q-4 -2 26.5 1t75.5 21.5t97.5 55t93.5 102.5t29.5 91.5t-59.5 27.5t-126 -9.5t-172 -17.5q-61 -4 -83 -25.5t-17.5 -51z" />
<glyph unicode="&#xea;" horiz-adv-x="1114" d="M43 459q6 35 23.5 69.5t25.5 89.5t2 83t-6 55.5t17.5 70.5t72.5 129t95 123t90.5 43t124 -11t196.5 -38q82 -14 126 -20t64.5 -12.5t24.5 -16.5t9 -32.5t17.5 -62.5t47.5 -106q27 -49 34 -87t3 -66.5t-19.5 -49t-36.5 -34.5q-47 -33 -123 -43l-233 -49q-43 -10 -86 -18.5 t-77 -15.5t-54.5 -10.5t-22.5 -3.5q-4 2 9.5 -6t44 -31.5t80 -67.5t120.5 -114q35 -35 60.5 -54t44 -27.5t31 -5.5t20.5 12q16 18 16 67q-14 31 -20 53q-4 18 2 31.5t35 7.5t53.5 -38.5t33.5 -75.5t0 -89.5t-46 -80.5q-25 -23 -76 -29t-116.5 2t-139.5 30.5t-144.5 56.5 t-132 77t-102.5 94q-61 76 -77.5 121t-10.5 80zM276.5 822.5q4.5 -29.5 27 -63.5t47 -63.5t44 -49t17.5 -19.5q-4 -2 26.5 1t75.5 21.5t97.5 55t93.5 102.5t29.5 91.5t-59.5 27.5t-126 -9.5t-172 -17.5q-61 -4 -83 -25.5t-17.5 -51z" />
<glyph unicode="&#xeb;" horiz-adv-x="1114" d="M43 459q6 35 23.5 69.5t25.5 89.5t2 83t-6 55.5t17.5 70.5t72.5 129t95 123t90.5 43t124 -11t196.5 -38q82 -14 126 -20t64.5 -12.5t24.5 -16.5t9 -32.5t17.5 -62.5t47.5 -106q27 -49 34 -87t3 -66.5t-19.5 -49t-36.5 -34.5q-47 -33 -123 -43l-233 -49q-43 -10 -86 -18.5 t-77 -15.5t-54.5 -10.5t-22.5 -3.5q-4 2 9.5 -6t44 -31.5t80 -67.5t120.5 -114q35 -35 60.5 -54t44 -27.5t31 -5.5t20.5 12q16 18 16 67q-14 31 -20 53q-4 18 2 31.5t35 7.5t53.5 -38.5t33.5 -75.5t0 -89.5t-46 -80.5q-25 -23 -76 -29t-116.5 2t-139.5 30.5t-144.5 56.5 t-132 77t-102.5 94q-61 76 -77.5 121t-10.5 80zM276.5 822.5q4.5 -29.5 27 -63.5t47 -63.5t44 -49t17.5 -19.5q-4 -2 26.5 1t75.5 21.5t97.5 55t93.5 102.5t29.5 91.5t-59.5 27.5t-126 -9.5t-172 -17.5q-61 -4 -83 -25.5t-17.5 -51z" />
<glyph unicode="&#xec;" horiz-adv-x="604" d="M37 1311q2 51 22.5 69.5t60.5 14.5t99.5 -25.5t141.5 -50.5t107.5 -47.5t20.5 -38t-26.5 -48t-34.5 -75.5q-8 -31 -40.5 -38t-77 4t-93.5 36t-90 58.5t-66.5 69.5t-23.5 71zM52.5 856q-21.5 29 0.5 59q14 20 48 35t77 24t89 11t86 -1t66.5 -13t29.5 -29q2 -18 17 -97 t32.5 -185.5t31 -225.5t14.5 -216t-16.5 -155.5t-62.5 -44.5q-68 20 -120 23.5t-83 27t-37 89t17 211.5q23 145 48 229t39.5 124t10.5 44t-37 -8q-51 -20 -76.5 -12t-27.5 8q2 0 -28 14t-63.5 36.5t-55 51.5zM140.5 1158q-11.5 34 0 62.5t27.5 36.5t52 17.5t78 12.5t84 -3 t71 -27q29 -23 44 -59.5t5 -70t-52 -56t-128 -14.5t-128 37.5t-53.5 63.5z" />
<glyph unicode="&#xed;" />
<glyph unicode="&#xee;" />
<glyph unicode="&#xef;" />
<glyph unicode="&#xf0;" horiz-adv-x="1038" d="M33 850q-10 78 12.5 151.5t59 132t79.5 97.5t72 49t72 14t95 4t109.5 -2t114.5 -4q63 -2 115.5 -24.5t88.5 -57t55.5 -76.5t19.5 -81q0 -37 4 -99.5t8 -139.5t5 -161t-5 -163.5t-21.5 -149.5t-42.5 -117q-39 -68 -75.5 -110.5t-93 -67.5t-142.5 -31t-221 4 q-86 6 -136 12.5t-75 16.5t-30 26.5t-1 39t12.5 55.5t10.5 78q2 55 20.5 71.5t46 8t61.5 -33t64 -50.5q18 -16 64.5 -15.5t104 16t115.5 43t99 66.5t53.5 89.5t-22.5 107.5q-8 12 -57 5t-121 -15.5t-156 -7.5t-158.5 30t-131 96.5t-72.5 192.5zM243.5 907.5 q20.5 -69.5 78 -120t144.5 -64.5t189 35q61 31 82 81t19 99t-17.5 87t-23.5 44q-82 61 -162 67.5t-144.5 -13t-106.5 -48.5t-46 -37q-33 -61 -12.5 -130.5z" />
<glyph unicode="&#xf1;" horiz-adv-x="1069" d="M48 616.5q-3 79.5 3 142t23.5 102.5t48.5 42q61 4 100 11.5t57.5 6.5t20.5 -13.5t-8 -47.5t-7 -41t33.5 1t96 23.5t180.5 28.5q29 2 65.5 13.5t74.5 19.5t74 7t63.5 -21.5t45 -64.5t19.5 -124t14.5 -159.5t24.5 -152.5t22.5 -135t6 -106.5t-27 -66t-71.5 -12.5 q-49 8 -90 3t-71.5 -8.5t-52 1t-32 28t-10.5 74.5t11 143q10 90 28.5 148.5t34.5 92.5t25.5 49t2 22.5t-35 10.5t-86.5 11q-88 12 -152.5 33.5t-106.5 26t-63.5 -20.5t-23.5 -104q-2 -53 11 -98.5t31.5 -86.5t36 -78.5t22.5 -73.5t-5 -72t-49 -75q-57 -57 -96 -74.5 t-64 -16.5t-36 11.5t-13 6.5q-2 -2 -9.5 34.5t-17.5 97t-20 139.5t-17.5 161t-10.5 161.5z" />
<glyph unicode="&#xf2;" horiz-adv-x="1099" d="M59 662.5q0 50.5 25 97.5t79 85t152 54q90 14 150.5 33.5t102.5 33t72 17.5t59.5 -11.5t65.5 -53t89 -107.5q82 -106 134 -201.5t60.5 -177.5t-36.5 -148.5t-158 -113.5t-206 -93t-166.5 -67.5t-130 -5.5t-93.5 92t-65.5 146.5t-47 125t-29 85t-12.5 28.5t-13 23.5 t-21.5 66.5t-10.5 91.5zM283 1311q2 51 22.5 69.5t60.5 14.5t99.5 -25.5t141.5 -50.5t107.5 -47.5t20.5 -38t-26.5 -48t-34.5 -75.5q-8 -31 -40.5 -38t-77 4t-93.5 36t-90 58.5t-66.5 69.5t-23.5 71zM323 560q-1 -34 11 -64q0 -4 5 -36t15.5 -76t24.5 -93t36.5 -86t52.5 -54 t67 3q84 45 144 87t91 86t29 91t-41 100q-27 35 -38 76t-16.5 79t-10.5 69.5t-20.5 48t-45 16.5t-84.5 -27q-82 -39 -129 -76.5t-68.5 -73.5t-22.5 -70z" />
<glyph unicode="&#xf3;" horiz-adv-x="1099" d="M59 662.5q0 50.5 25 97.5t79 85t152 54q90 14 150.5 33.5t102.5 33t72 17.5t59.5 -11.5t65.5 -53t89 -107.5q82 -106 134 -201.5t60.5 -177.5t-36.5 -148.5t-158 -113.5t-206 -93t-166.5 -67.5t-130 -5.5t-93.5 92t-65.5 146.5t-47 125t-29 85t-12.5 28.5t-13 23.5 t-21.5 66.5t-10.5 91.5zM323 560q-1 -34 11 -64q0 -4 5 -36t15.5 -76t24.5 -93t36.5 -86t52.5 -54t67 3q84 45 144 87t91 86t29 91t-41 100q-27 35 -38 76t-16.5 79t-10.5 69.5t-20.5 48t-45 16.5t-84.5 -27q-82 -39 -129 -76.5t-68.5 -73.5t-22.5 -70z" />
<glyph unicode="&#xf4;" horiz-adv-x="1099" d="M59 662.5q0 50.5 25 97.5t79 85t152 54q90 14 150.5 33.5t102.5 33t72 17.5t59.5 -11.5t65.5 -53t89 -107.5q82 -106 134 -201.5t60.5 -177.5t-36.5 -148.5t-158 -113.5t-206 -93t-166.5 -67.5t-130 -5.5t-93.5 92t-65.5 146.5t-47 125t-29 85t-12.5 28.5t-13 23.5 t-21.5 66.5t-10.5 91.5zM323 560q-1 -34 11 -64q0 -4 5 -36t15.5 -76t24.5 -93t36.5 -86t52.5 -54t67 3q84 45 144 87t91 86t29 91t-41 100q-27 35 -38 76t-16.5 79t-10.5 69.5t-20.5 48t-45 16.5t-84.5 -27q-82 -39 -129 -76.5t-68.5 -73.5t-22.5 -70z" />
<glyph unicode="&#xf5;" horiz-adv-x="1099" d="M59 662.5q0 50.5 25 97.5t79 85t152 54q90 14 150.5 33.5t102.5 33t72 17.5t59.5 -11.5t65.5 -53t89 -107.5q82 -106 134 -201.5t60.5 -177.5t-36.5 -148.5t-158 -113.5t-206 -93t-166.5 -67.5t-130 -5.5t-93.5 92t-65.5 146.5t-47 125t-29 85t-12.5 28.5t-13 23.5 t-21.5 66.5t-10.5 91.5zM323 560q-1 -34 11 -64q0 -4 5 -36t15.5 -76t24.5 -93t36.5 -86t52.5 -54t67 3q84 45 144 87t91 86t29 91t-41 100q-27 35 -38 76t-16.5 79t-10.5 69.5t-20.5 48t-45 16.5t-84.5 -27q-82 -39 -129 -76.5t-68.5 -73.5t-22.5 -70z" />
<glyph unicode="&#xf6;" horiz-adv-x="1099" d="M59 662.5q0 50.5 25 97.5t79 85t152 54q90 14 150.5 33.5t102.5 33t72 17.5t59.5 -11.5t65.5 -53t89 -107.5q82 -106 134 -201.5t60.5 -177.5t-36.5 -148.5t-158 -113.5t-206 -93t-166.5 -67.5t-130 -5.5t-93.5 92t-65.5 146.5t-47 125t-29 85t-12.5 28.5t-13 23.5 t-21.5 66.5t-10.5 91.5zM323 560q-1 -34 11 -64q0 -4 5 -36t15.5 -76t24.5 -93t36.5 -86t52.5 -54t67 3q84 45 144 87t91 86t29 91t-41 100q-27 35 -38 76t-16.5 79t-10.5 69.5t-20.5 48t-45 16.5t-84.5 -27q-82 -39 -129 -76.5t-68.5 -73.5t-22.5 -70z" />
<glyph unicode="&#xf7;" horiz-adv-x="610" d="M144.5 847q-11.5 34 4 58.5t76.5 28.5t105.5 14t71 10t33.5 -16t-5 -65t-6 -87t11 -65t1 -40t-33 -13t-53 -5t-45.5 -5t-41.5 10t-38 39t-43.5 65.5t-37 70.5zM196 68.5q-3 23.5 4 64.5t25 109q2 10 38 18t76 8t70.5 -10t24.5 -39q-10 -45 -1 -77.5t16.5 -58.5t0 -46.5 t-50.5 -40.5q-55 -27 -92 -18.5t-69 30.5q-16 12 -27.5 24.5t-14.5 36z" />
<glyph unicode="&#xf8;" horiz-adv-x="1099" d="M59 662.5q0 50.5 25 97.5t79 85t152 54q90 14 150.5 33.5t102.5 33t72 17.5t59.5 -11.5t65.5 -53t89 -107.5q82 -106 134 -201.5t60.5 -177.5t-36.5 -148.5t-158 -113.5t-206 -93t-166.5 -67.5t-130 -5.5t-93.5 92t-65.5 146.5t-47 125t-29 85t-12.5 28.5t-13 23.5 t-21.5 66.5t-10.5 91.5zM289 43q-4 27 19.5 99.5t63.5 166.5t90 201.5t101 206t98.5 177.5t79.5 118q49 57 90 100t68 62.5t36 10.5t-5 -55q-8 -27 -33 -87t-59.5 -142t-74.5 -178t-81 -193.5t-77 -188.5t-62 -161q-37 -98 -79 -147t-80 -60.5t-64.5 9t-30.5 61.5zM323 560 q-1 -34 11 -64q0 -4 5 -36t15.5 -76t24.5 -93t36.5 -86t52.5 -54t67 3q84 45 144 87t91 86t29 91t-41 100q-27 35 -38 76t-16.5 79t-10.5 69.5t-20.5 48t-45 16.5t-84.5 -27q-82 -39 -129 -76.5t-68.5 -73.5t-22.5 -70z" />
<glyph unicode="&#xf9;" horiz-adv-x="942" d="M28.5 326q-10.5 80 1 205.5t46.5 318.5q4 20 37.5 59t75.5 68t82 37t59 -29q18 -37 1.5 -89t-38 -117.5t-33.5 -143.5t12 -166q25 -90 37.5 -136t30.5 -64.5t52 -17.5t100 7q41 4 70.5 7t52 22.5t39 63.5t30.5 130q10 57 1 116.5t-23.5 115t-30 104.5t-18.5 85t11.5 54.5 t59.5 16.5q33 -2 65.5 -46t60.5 -113t50.5 -157t36.5 -179t20.5 -177t0 -153.5t-26 -106.5t-53.5 -37q-70 6 -101.5 15.5t-43 24.5t-8.5 38.5t3 58.5q0 23 -3 17t-12 -26.5t-26.5 -49.5t-46.5 -49.5t-72 -25.5t-102 20q-86 35 -154.5 56t-119 49t-82 71t-42 123zM203 1311 q2 51 22.5 69.5t60.5 14.5t99.5 -25.5t141.5 -50.5t107.5 -47.5t20.5 -38t-26.5 -48t-34.5 -75.5q-8 -31 -40.5 -38t-77 4t-93.5 36t-90 58.5t-66.5 69.5t-23.5 71z" />
<glyph unicode="&#xfa;" horiz-adv-x="942" d="M28.5 326q-10.5 80 1 205.5t46.5 318.5q4 20 37.5 59t75.5 68t82 37t59 -29q18 -37 1.5 -89t-38 -117.5t-33.5 -143.5t12 -166q25 -90 37.5 -136t30.5 -64.5t52 -17.5t100 7q41 4 70.5 7t52 22.5t39 63.5t30.5 130q10 57 1 116.5t-23.5 115t-30 104.5t-18.5 85t11.5 54.5 t59.5 16.5q33 -2 65.5 -46t60.5 -113t50.5 -157t36.5 -179t20.5 -177t0 -153.5t-26 -106.5t-53.5 -37q-70 6 -101.5 15.5t-43 24.5t-8.5 38.5t3 58.5q0 23 -3 17t-12 -26.5t-26.5 -49.5t-46.5 -49.5t-72 -25.5t-102 20q-86 35 -154.5 56t-119 49t-82 71t-42 123z" />
<glyph unicode="&#xfb;" horiz-adv-x="942" d="M28.5 326q-10.5 80 1 205.5t46.5 318.5q4 20 37.5 59t75.5 68t82 37t59 -29q18 -37 1.5 -89t-38 -117.5t-33.5 -143.5t12 -166q25 -90 37.5 -136t30.5 -64.5t52 -17.5t100 7q41 4 70.5 7t52 22.5t39 63.5t30.5 130q10 57 1 116.5t-23.5 115t-30 104.5t-18.5 85t11.5 54.5 t59.5 16.5q33 -2 65.5 -46t60.5 -113t50.5 -157t36.5 -179t20.5 -177t0 -153.5t-26 -106.5t-53.5 -37q-70 6 -101.5 15.5t-43 24.5t-8.5 38.5t3 58.5q0 23 -3 17t-12 -26.5t-26.5 -49.5t-46.5 -49.5t-72 -25.5t-102 20q-86 35 -154.5 56t-119 49t-82 71t-42 123z" />
<glyph unicode="&#xfc;" horiz-adv-x="942" d="M28.5 326q-10.5 80 1 205.5t46.5 318.5q4 20 37.5 59t75.5 68t82 37t59 -29q18 -37 1.5 -89t-38 -117.5t-33.5 -143.5t12 -166q25 -90 37.5 -136t30.5 -64.5t52 -17.5t100 7q41 4 70.5 7t52 22.5t39 63.5t30.5 130q10 57 1 116.5t-23.5 115t-30 104.5t-18.5 85t11.5 54.5 t59.5 16.5q33 -2 65.5 -46t60.5 -113t50.5 -157t36.5 -179t20.5 -177t0 -153.5t-26 -106.5t-53.5 -37q-70 6 -101.5 15.5t-43 24.5t-8.5 38.5t3 58.5q0 23 -3 17t-12 -26.5t-26.5 -49.5t-46.5 -49.5t-72 -25.5t-102 20q-86 35 -154.5 56t-119 49t-82 71t-42 123z" />
<glyph unicode="&#xfd;" horiz-adv-x="1245" d="M-16.5 -99.5q-14.5 15.5 1 26t76.5 20.5q90 14 157 27.5t107 11.5t53 -21.5t-1 -68.5q-25 -78 -8.5 -103.5t50.5 -13.5t76 55t68.5 102.5t26.5 126t-47 125.5q-72 88 -117 148.5t-84 117t-79 121t-97 162.5q-16 27 -40 46.5t-43.5 33.5t-28.5 25.5t5.5 24t58.5 25.5 t128 32q55 12 84.5 8t51 -32t45.5 -83t69 -145q25 -51 45 -106.5t38.5 -101.5t36 -80t37 -43t42 11.5t50.5 81.5q45 94 60.5 167t17.5 128t-3 94t0 64.5t26.5 39t75.5 19.5q98 10 169.5 -14.5t104.5 -62.5t19.5 -77.5t-85.5 -60.5q-55 -16 -101 -101t-94 -206t-101.5 -260 t-122.5 -264q-41 -74 -74 -143.5t-63.5 -125t-60.5 -92.5t-62.5 -41t-71.5 29t-86 113q-35 57 -82 100t-93 73.5t-83 51t-51.5 36z" />
<glyph unicode="&#xfe;" d="M414 924q2 131 14 228t39 124q41 41 78 74.5t65.5 40t46 -27.5t21.5 -130q2 -96 -12.5 -177t-23.5 -132.5t-4 -65.5t48 27q43 39 66.5 68.5t51 36.5t72 -14.5t130.5 -80.5t134 -74.5t71.5 -22.5t29.5 -24.5t6 -81.5q0 -63 13.5 -120.5t17.5 -116t-10.5 -121t-69.5 -137.5 q-37 -51 -51 -90t-19.5 -67t-7.5 -44t-16 -20.5t-47 3t-99 25.5q-98 29 -150 56.5t-77.5 43t-37 11.5t-25.5 -41t-42 -73t-57.5 -54.5t-55.5 -11t-38 56.5q-8 33 -19.5 133t-20.5 233.5t-16 284t-5 281.5zM574.5 459q-7.5 -43 17 -82t98.5 -78q74 -41 137.5 -66.5 t110.5 -22.5t73.5 41t28.5 126t30 139t45.5 83t6 52.5t-89.5 44.5q-78 25 -132 48.5t-94 29.5t-70.5 -15t-63.5 -87t-61.5 -118t-36 -95z" />
<glyph unicode="&#xff;" horiz-adv-x="1245" d="M-16.5 -99.5q-14.5 15.5 1 26t76.5 20.5q90 14 157 27.5t107 11.5t53 -21.5t-1 -68.5q-25 -78 -8.5 -103.5t50.5 -13.5t76 55t68.5 102.5t26.5 126t-47 125.5q-72 88 -117 148.5t-84 117t-79 121t-97 162.5q-16 27 -40 46.5t-43.5 33.5t-28.5 25.5t5.5 24t58.5 25.5 t128 32q55 12 84.5 8t51 -32t45.5 -83t69 -145q25 -51 45 -106.5t38.5 -101.5t36 -80t37 -43t42 11.5t50.5 81.5q45 94 60.5 167t17.5 128t-3 94t0 64.5t26.5 39t75.5 19.5q98 10 169.5 -14.5t104.5 -62.5t19.5 -77.5t-85.5 -60.5q-55 -16 -101 -101t-94 -206t-101.5 -260 t-122.5 -264q-41 -74 -74 -143.5t-63.5 -125t-60.5 -92.5t-62.5 -41t-71.5 29t-86 113q-35 57 -82 100t-93 73.5t-83 51t-51.5 36z" />
<glyph unicode="&#x152;" horiz-adv-x="2297" d="M29.5 348.5q-9.5 61.5 1 130t26 135t30.5 127t17 105.5q2 104 14.5 169.5t28 107.5t33 66.5t31.5 47.5q78 127 145.5 165t141 14.5t159.5 -95.5t201 -164q68 -55 95.5 -120.5t28.5 -142.5t-18.5 -162t-47 -176t-56.5 -188.5t-45 -197.5q-12 -78 -46 -117t-83 -49 t-108.5 2t-126 38t-136 56.5t-135.5 57.5q-74 29 -107.5 79t-43 111.5zM254 649q-2 2 2 -34.5t13.5 -90t27.5 -114t48 -107.5t71 -72.5t96 -7.5q51 16 81 41t51.5 81t38.5 154.5t44 262.5q18 111 26.5 171t4.5 91t-19.5 41t-46 20.5t-77 30t-107.5 68.5q-47 37 -83 33.5 t-61.5 -34t-44 -82.5t-31 -111.5t-18.5 -120t-10 -109.5t-4 -64zM1154 340q-5 113 1 248t17.5 267t24.5 250t21 198q8 78 49 114.5t105.5 48t148.5 3t178.5 -17.5t192.5 -13t195 14q94 18 134 -3.5t43 -64.5t-19.5 -98t-50 -104t-52.5 -84t-25 -37q0 -4 -22.5 19.5t-64.5 52 t-102 52t-136 21.5q-115 -4 -166 -8t-67.5 -15.5t-11.5 -32t4 -55t-19.5 -89t-81.5 -129.5q-63 -78 -68.5 -116t32.5 -49.5t108.5 0t157.5 34t183.5 52t182.5 56.5t122.5 36t42 2t-11 -28.5t-37 -57.5t-37 -84t-8.5 -108q12 -90 -20.5 -116.5t-100 -16t-164 46t-210.5 72.5 q-115 37 -169 18.5t-67.5 -67.5t0 -119t33.5 -139q20 -70 37.5 -99.5t70 -26.5t157 32.5t296.5 81.5q127 33 195.5 44t94.5 0.5t16.5 -36t-37 -66.5t-64.5 -92t-68 -108q-14 -27 -76.5 -39.5t-151.5 -13.5t-190.5 6.5t-193.5 19.5t-162.5 26.5t-97.5 26.5q-43 20 -64.5 99 t-26.5 192z" />
<glyph unicode="&#x153;" horiz-adv-x="2213" d="M59 662.5q0 50.5 25 97.5t79 85t152 54q90 14 150.5 33.5t102.5 33t72 17.5t59.5 -11.5t65.5 -53t89 -107.5q82 -106 134 -201.5t60.5 -177.5t-36.5 -148.5t-158 -113.5t-206 -93t-166.5 -67.5t-130 -5.5t-93.5 92t-65.5 146.5t-47 125t-29 85t-12.5 28.5t-13 23.5 t-21.5 66.5t-10.5 91.5zM323 560q-1 -34 11 -64q0 -4 5 -36t15.5 -76t24.5 -93t36.5 -86t52.5 -54t67 3q84 45 144 87t91 86t29 91t-41 100q-27 35 -38 76t-16.5 79t-10.5 69.5t-20.5 48t-45 16.5t-84.5 -27q-82 -39 -129 -76.5t-68.5 -73.5t-22.5 -70zM1143 459 q6 35 23.5 69.5t25.5 89.5t2 83t-6 55.5t17.5 70.5t72.5 129t95 123t90.5 43t124 -11t196.5 -38q82 -14 126 -20t64.5 -12.5t24.5 -16.5t9 -32.5t17.5 -62.5t47.5 -106q27 -49 34 -87t3 -66.5t-19.5 -49t-36.5 -34.5q-47 -33 -123 -43l-233 -49q-43 -10 -86 -18.5t-77 -15.5 t-54.5 -10.5t-22.5 -3.5q-4 2 9.5 -6t44 -31.5t80 -67.5t120.5 -114q35 -35 60.5 -54t44 -27.5t31 -5.5t20.5 12q16 18 16 67q-14 31 -20 53q-4 18 2 31.5t35 7.5t53.5 -38.5t33.5 -75.5t0 -89.5t-46 -80.5q-25 -23 -76 -29t-116.5 2t-139.5 30.5t-144.5 56.5t-132 77 t-102.5 94q-61 76 -77.5 121t-10.5 80zM1376.5 822.5q4.5 -29.5 27 -63.5t47 -63.5t44 -49t17.5 -19.5q-4 -2 26.5 1t75.5 21.5t97.5 55t93.5 102.5t29.5 91.5t-59.5 27.5t-126 -9.5t-172 -17.5q-61 -4 -83 -25.5t-17.5 -51z" />
<glyph unicode="&#x178;" horiz-adv-x="1187" d="M28.5 1333.5q12.5 57.5 90.5 81.5q78 25 127 -7t82.5 -89t57.5 -128t52 -122q18 -35 46 -73t58.5 -69.5t63.5 -54t60.5 -25.5t48 18.5t26.5 76.5q8 72 10.5 150.5t14.5 146.5t43 116t98 56q68 8 126.5 -10.5t93 -56t38.5 -93t-39 -121.5q-47 -74 -97 -141t-101 -144 t-99.5 -170t-93.5 -218q-43 -119 -43 -178.5t22.5 -84t60.5 -26.5t70 -5t49 -20.5t1 -72.5q-8 -31 -32.5 -45.5t-63.5 -19.5t-89.5 -3t-109.5 6q-74 4 -142.5 3t-113.5 8.5t-58.5 38t21.5 92.5q20 37 51 52t63 25.5t62.5 22.5t51 42t26.5 85t-8 149q-10 66 -18.5 108 t-19.5 69.5t-29.5 50t-52.5 50t-87 67.5t-131 106q-47 39 -97 103.5t-76 130t-13.5 123z" />
<glyph unicode="&#x2c6;" />
<glyph unicode="&#x2dc;" />
<glyph unicode="&#x2000;" horiz-adv-x="921" />
<glyph unicode="&#x2001;" horiz-adv-x="1842" />
<glyph unicode="&#x2002;" horiz-adv-x="921" />
<glyph unicode="&#x2003;" horiz-adv-x="1842" />
<glyph unicode="&#x2004;" horiz-adv-x="614" />
<glyph unicode="&#x2005;" horiz-adv-x="460" />
<glyph unicode="&#x2006;" horiz-adv-x="307" />
<glyph unicode="&#x2007;" horiz-adv-x="307" />
<glyph unicode="&#x2008;" horiz-adv-x="230" />
<glyph unicode="&#x2009;" horiz-adv-x="368" />
<glyph unicode="&#x200a;" horiz-adv-x="102" />
<glyph unicode="&#x2010;" horiz-adv-x="999" d="M90 563.5q2 20.5 41 39t131 28.5q45 6 119 14t149.5 11t139 -2t88.5 -27q18 -16 27.5 -23.5t19.5 -18t24.5 -26.5t42.5 -51q8 -10 -24.5 -17.5t-89 -11.5t-126 -5t-133 -3t-111.5 -3t-60 -3q-29 -6 -70 1t-79 22.5t-64.5 35t-24.5 40z" />
<glyph unicode="&#x2011;" horiz-adv-x="999" d="M90 563.5q2 20.5 41 39t131 28.5q45 6 119 14t149.5 11t139 -2t88.5 -27q18 -16 27.5 -23.5t19.5 -18t24.5 -26.5t42.5 -51q8 -10 -24.5 -17.5t-89 -11.5t-126 -5t-133 -3t-111.5 -3t-60 -3q-29 -6 -70 1t-79 22.5t-64.5 35t-24.5 40z" />
<glyph unicode="&#x2012;" horiz-adv-x="999" d="M90 563.5q2 20.5 41 39t131 28.5q45 6 119 14t149.5 11t139 -2t88.5 -27q18 -16 27.5 -23.5t19.5 -18t24.5 -26.5t42.5 -51q8 -10 -24.5 -17.5t-89 -11.5t-126 -5t-133 -3t-111.5 -3t-60 -3q-29 -6 -70 1t-79 22.5t-64.5 35t-24.5 40z" />
<glyph unicode="&#x2013;" />
<glyph unicode="&#x2014;" />
<glyph unicode="&#x2018;" horiz-adv-x="460" d="M61 1092q2 31 6.5 41t24 14t62.5 9t122 28q80 20 106 -9.5t26 -85t-13.5 -122t-13.5 -117.5q0 -35 -23.5 -36t-59.5 18.5t-78 55.5t-78 73.5t-59.5 74t-21.5 56.5z" />
<glyph unicode="&#x2019;" horiz-adv-x="468" d="M52 964.5q3 55.5 32.5 130t95.5 146.5q66 70 104 100.5t60.5 28.5t36.5 -31.5t37 -81.5q20 -51 -4.5 -95t-72.5 -87t-108.5 -87t-109.5 -93q-33 -33 -53.5 -9.5t-17.5 79z" />
<glyph unicode="&#x201a;" />
<glyph unicode="&#x201c;" horiz-adv-x="737" d="M45 1264.5q8 13.5 32.5 16.5t64.5 2t91 7t61.5 2t7.5 -42t-3 -111.5t31 -204.5q20 -86 10 -106.5t-39 3t-68.5 77t-77.5 112.5t-68 114t-38 80q-12 37 -4 50.5zM344 1262.5q8 13.5 32.5 16.5t64.5 2t91 7t61.5 2t7.5 -42t-3 -111.5t31 -204.5q20 -86 10 -106.5t-39 3 t-68.5 76.5t-77.5 112.5t-68 114.5t-38 80q-12 37 -4 50.5z" />
<glyph unicode="&#x201d;" horiz-adv-x="714" d="M39 825.5q-10 18.5 10 104.5q31 127 31 200.5t-3 109.5t7 42t61 -2t91 -7t65 -1t33 -15.5t-4 -50.5q-8 -25 -38 -78t-68 -112.5t-78 -111.5t-68.5 -74.5t-38.5 -4zM362.5 834.5q-10.5 19.5 10.5 103.5q31 127 30.5 200.5t-3.5 109.5t7.5 42t61.5 -2t91 -7t64.5 -1 t32.5 -15.5t-4 -50.5q-8 -25 -37.5 -78t-67.5 -112t-78 -111.5t-68.5 -75t-39 -3z" />
<glyph unicode="&#x201e;" />
<glyph unicode="&#x2022;" d="M316 776q3 37 31 58.5t87 19.5q59 -4 134 -15.5t149 -31t136 -44t95 -54t30 -62.5t-63 -67q-88 -51 -141 -106.5t-93 -90.5t-77 -36t-92 56q-37 39 -74 88.5t-65.5 100.5t-44 99t-12.5 85z" />
<glyph unicode="&#x2026;" horiz-adv-x="5117" />
<glyph unicode="&#x202f;" horiz-adv-x="368" />
<glyph unicode="&#x2039;" />
<glyph unicode="&#x203a;" />
<glyph unicode="&#x205f;" horiz-adv-x="460" />
<glyph unicode="&#x20ac;" horiz-adv-x="1042" d="M42 691.5q7 99.5 30.5 196.5t62.5 186t92.5 155.5t122 104.5t150.5 34q123 -6 219 -51t159.5 -120t92 -176t16.5 -222t-35.5 -259.5t-72 -256t-126 -193.5t-196.5 -72t-209 32t-153.5 84t-101.5 147.5t-50 222.5q-8 88 -1 187.5zM279 562q2 -75 20 -140.5t57 -114.5 t101 -69q94 -31 149.5 -12.5t85 73.5t38.5 141t11 191q2 104 -10 193t-38.5 157t-67.5 111t-95 57q-53 14 -94 -30t-70.5 -115.5t-48 -152.5t-28.5 -140q-12 -74 -10 -149z" />
<glyph unicode="&#x2122;" horiz-adv-x="3104" d="M6 1113q0 28 27.5 62.5t60.5 65.5t46 41l40 33q2 0 80 10t194.5 23.5t256 23.5t266.5 11t226.5 -13t133.5 -51q41 -43 33 -91t-39 -83t-68.5 -47.5t-56.5 16.5q-18 29 -57 20.5t-89 -24.5t-108.5 -26.5t-113.5 16.5q-37 16 -54.5 -24t-21.5 -113.5t1 -171t12 -192.5 t13.5 -178t4.5 -128t-19.5 -103.5t-43 -105.5t-53.5 -73.5t-52.5 -9.5t-40 88t-15.5 218q0 233 -1 384t-10 238t-31.5 122.5t-64.5 42t-109.5 -6t-168.5 -22.5q-100 -10 -139 5t-39 43zM1783 51.5q-5 22.5 10.5 59.5t31.5 90q10 35 8 117.5t-10 191t-17.5 230.5t-11.5 233.5 t7 202t40 135.5q45 68 110.5 62.5t138.5 -57.5t142.5 -140.5t122.5 -184.5q35 -66 70 -77t66.5 9.5t60 64.5t52.5 91t41 89t26 59q12 25 31.5 37t47 19t64.5 13.5t88 18.5q63 16 89 16t27 -24.5t-13.5 -76.5t-26.5 -139t-15.5 -213t19.5 -298t41 -272.5t25.5 -154t0 -70.5 t-37 -23.5t-85 -12.5t-141.5 -35q-72 -25 -108.5 -10.5t-48 55.5t-2 104.5t29 137.5t44 151.5t45 150.5t31.5 132.5t3 95.5q-16 63 -32.5 60.5t-48.5 -45.5t-88 -110.5t-150 -129.5q-66 -43 -97.5 -59.5t-47 -10t-20.5 35t-14.5 78.5t-32 120t-69.5 158q-47 86 -75.5 103.5 t-43 -17.5t-14.5 -112t10 -175t28.5 -210t43.5 -216q25 -109 34 -170t4 -90t-23.5 -33t-48.5 1t-72 12.5t-93 3.5q-78 -8 -109.5 -1t-36.5 29.5z" />
<glyph unicode="&#xe000;" horiz-adv-x="1034" d="M0 0v1034h1034v-1034h-1034z" />
<glyph unicode="&#xfb01;" horiz-adv-x="1427" d="M26.5 -350.5q-8.5 63.5 18.5 135.5t53.5 93.5t52 19.5t46 -13.5t34 -2.5t19.5 52t0 150q-4 90 -6 157.5t-11.5 123t-29 103.5t-58.5 99q-78 102 -76.5 220t111.5 249q37 43 81 98.5t92 105.5t96.5 86t91.5 41t77.5 -29.5t57.5 -127.5q33 -139 49 -232t3 -137t-60 -37 t-142 73q-94 63 -146 66t-72.5 -29.5t-14.5 -87t29 -101.5t49 -89t63 -63.5t89 -16.5t126 50t106.5 28.5t30.5 -63.5t-35.5 -112.5t-93.5 -120.5q-39 -37 -63.5 -46t-41.5 -3t-30.5 22.5t-29 29.5t-37 19.5t-56.5 -8.5q-35 -14 -36 -36.5t15.5 -56.5t40 -81t39 -111.5 t12.5 -149.5t-40 -191q-37 -109 -88 -166.5t-102.5 -74.5t-98.5 0t-76.5 59t-38 105.5zM875.5 856q-21.5 29 0.5 59q14 20 48 35t77 24t89 11t86 -1t66.5 -13t29.5 -29q2 -18 17 -97t32.5 -185.5t31 -225.5t14.5 -216t-16.5 -155.5t-62.5 -44.5q-68 20 -120 23.5t-83 27 t-37 89t17 211.5q23 145 48 229t39.5 124t10.5 44t-37 -8q-51 -20 -76.5 -12t-27.5 8q2 0 -28 14t-63.5 36.5t-55 51.5zM963.5 1158q-11.5 34 0 62.5t27.5 36.5t52 17.5t78 12.5t84 -3t71 -27q29 -23 44 -59.5t5 -70t-52 -56t-128 -14.5t-128 37.5t-53.5 63.5z" />
<glyph unicode="&#xfb02;" horiz-adv-x="1703" d="M26.5 -350.5q-8.5 63.5 18.5 135.5t53.5 93.5t52 19.5t46 -13.5t34 -2.5t19.5 52t0 150q-4 90 -6 157.5t-11.5 123t-29 103.5t-58.5 99q-78 102 -76.5 220t111.5 249q37 43 81 98.5t92 105.5t96.5 86t91.5 41t77.5 -29.5t57.5 -127.5q33 -139 49 -232t3 -137t-60 -37 t-142 73q-94 63 -146 66t-72.5 -29.5t-14.5 -87t29 -101.5t49 -89t63 -63.5t89 -16.5t126 50t106.5 28.5t30.5 -63.5t-35.5 -112.5t-93.5 -120.5q-39 -37 -63.5 -46t-41.5 -3t-30.5 22.5t-29 29.5t-37 19.5t-56.5 -8.5q-35 -14 -36 -36.5t15.5 -56.5t40 -81t39 -111.5 t12.5 -149.5t-40 -191q-37 -109 -88 -166.5t-102.5 -74.5t-98.5 0t-76.5 59t-38 105.5zM850 1188q2 63 49 95t114.5 38t144.5 -12.5t138 -51.5q25 -14 27 -86.5t-7.5 -174t-22.5 -218t-18.5 -218t6 -174.5t50.5 -87q43 -16 55 -28.5t25.5 -8.5t40 32t98.5 91q47 43 67.5 46 t22.5 -19.5t-10 -64.5t-28.5 -93t-34 -103.5t-25.5 -93.5q-12 -61 -62.5 -72.5t-115 11t-130 69t-108.5 97.5q-29 33 -42 107.5t-16 166.5t0 190.5t4 181.5t-1 137t-17 59q-20 6 -55 26.5t-68.5 48t-57 57t-23.5 52.5z" />
</font>
</defs>
</svg>
